<svg width="106" height="30" viewBox="0 0 106 30" fill="none" xmlns="http://www.w3.org/2000/svg">
<path d="M99.7308 15.9483C99.5854 15.9726 99.4386 15.9893 99.2961 16.0257C99.2036 16.0484 99.164 15.9817 99.1023 15.9468C99.0818 15.9347 99.0597 15.9104 99.0406 15.9134C98.8967 15.9377 98.7528 15.965 98.6089 15.9923C98.5648 16.0515 98.5369 16.1303 98.4694 16.1592C98.4033 16.1865 98.3255 16.1865 98.252 16.2001C98.1551 16.2168 98.0582 16.2335 97.9613 16.2487C97.9128 16.2562 97.8732 16.2851 97.857 16.3397C97.8541 16.3488 97.8864 16.3715 97.904 16.3851C97.9627 16.4306 98.02 16.4822 98.0846 16.5171C98.1463 16.5505 98.2227 16.4959 98.2887 16.5383C98.4371 16.6339 98.4385 16.6324 98.5516 16.6142C98.6485 16.5975 98.7455 16.5793 98.8424 16.5672C98.8615 16.5641 98.8835 16.5869 98.9041 16.599C98.9657 16.6324 99.0054 16.7082 99.0964 16.6794C99.1655 16.6566 99.2418 16.6521 99.3138 16.64C99.374 16.6839 99.4298 16.734 99.4944 16.7689C99.5546 16.8022 99.5723 16.828 99.5399 16.872C99.5106 16.913 99.4694 16.9297 99.4151 16.9327C99.3666 16.9342 99.3182 16.9479 99.2697 16.9554C99.2448 16.96 99.2213 16.963 99.1978 16.9676C99.1052 16.9843 99.1052 16.9843 98.9364 16.8872C98.8703 16.8493 98.7954 16.9024 98.7322 16.866C98.6897 16.8417 98.6529 16.8053 98.6118 16.7795C98.5942 16.7689 98.5663 16.7674 98.5443 16.7704C98.4708 16.781 98.3974 16.7886 98.3269 16.8083C98.277 16.822 98.2476 16.8644 98.2535 16.9069C98.255 16.9236 98.2902 16.9479 98.3108 16.9494C98.3578 16.9524 98.4077 16.9312 98.4532 16.9418C98.4973 16.9524 98.5428 16.9827 98.5751 17.0161C98.6412 17.0859 98.7161 17.0237 98.7792 17.0419C98.8453 17.0616 98.8996 17.1223 98.9628 17.1587C98.9789 17.1678 99.0098 17.1526 99.0347 17.1481C99.1067 17.1374 99.1787 17.1284 99.2506 17.1177C99.3109 17.1617 99.3755 17.2012 99.4298 17.2512C99.5282 17.3422 99.6339 17.3771 99.7617 17.3331C99.8336 17.3088 99.9041 17.3179 99.9614 17.3771C100.02 17.4378 100.088 17.4317 100.163 17.4196C100.232 17.4074 100.302 17.3741 100.373 17.4165C100.525 17.5106 100.527 17.5151 100.707 17.4787C100.762 17.4681 100.803 17.4651 100.844 17.5C100.882 17.5318 100.923 17.5591 100.963 17.5894C101.035 17.5788 101.108 17.5682 101.18 17.5561C101.273 17.5394 101.324 17.5606 101.346 17.6456C101.359 17.6971 101.365 17.7441 101.398 17.779C101.436 17.8215 101.477 17.82 101.533 17.8078C101.586 17.7972 101.624 17.7805 101.646 17.7259C101.655 17.7032 101.672 17.682 101.688 17.6638C101.702 17.6501 101.722 17.6289 101.734 17.6319C101.756 17.638 101.785 17.6546 101.793 17.6744C101.865 17.8579 101.865 17.8594 101.938 17.9125C102.019 17.9717 102.103 18.0247 102.176 18.0915C102.242 18.1506 102.308 18.1248 102.38 18.1248C102.434 18.1248 102.47 18.1643 102.465 18.2037C102.462 18.2265 102.442 18.2598 102.424 18.2629C102.28 18.2932 102.135 18.319 101.989 18.3402C101.972 18.3432 101.95 18.3159 101.929 18.3023C101.888 18.275 101.851 18.2325 101.807 18.2234C101.763 18.2143 101.712 18.2371 101.663 18.2447C101.615 18.2522 101.564 18.272 101.52 18.2598C101.475 18.2477 101.44 18.2037 101.399 18.1749C101.38 18.1612 101.354 18.1415 101.337 18.1461C101.23 18.1825 101.151 18.1324 101.075 18.0657C101.058 18.052 101.031 18.0429 101.01 18.046C100.84 18.0718 100.671 18.1021 100.5 18.1309C100.431 18.143 100.376 18.0899 100.361 18.0005C100.353 17.9504 100.339 17.9004 100.339 17.8503C100.339 17.7593 100.258 17.7093 100.199 17.7199C100.102 17.735 100.004 17.7472 99.9085 17.7699C99.8307 17.7881 99.7646 17.7699 99.7117 17.7153C99.6501 17.6531 99.5796 17.6653 99.5091 17.682C99.4562 17.6941 99.4415 17.7441 99.4445 17.87C99.4474 17.9716 99.4224 18.0035 99.327 18.0202C99.2066 18.0414 99.0847 18.0627 98.9628 18.0793C98.9437 18.0824 98.9217 18.0566 98.9026 18.0429C98.8615 18.0156 98.8247 17.9716 98.7807 17.9625C98.7366 17.9519 98.6852 17.9747 98.6368 17.9838C98.5883 17.9914 98.5369 18.0126 98.4929 18.002C98.4488 17.9914 98.4121 17.9459 98.3724 17.9171C98.3533 17.9034 98.3299 17.8837 98.3108 17.8867C98.2138 17.8988 98.1169 17.9171 98.02 17.9337C97.9113 17.9519 97.9113 17.9519 97.7571 17.8579C97.6866 17.8154 97.6162 17.8488 97.5471 17.8609C97.4737 17.8731 97.4047 17.8791 97.3474 17.8185C97.3092 17.779 97.2666 17.7548 97.2211 17.7623C97.0992 17.7805 96.9788 17.8033 96.8569 17.8215C96.8364 17.8245 96.8085 17.8169 96.7923 17.8033C96.7145 17.7396 96.6381 17.6895 96.5295 17.7214C96.4355 17.7487 96.3341 17.7502 96.2402 17.776C96.1888 17.7896 96.1652 17.8382 96.1755 17.8761C96.1814 17.8958 96.2122 17.9186 96.2328 17.9186C96.2798 17.9201 96.3312 17.8973 96.3753 17.9064C96.4663 17.9246 96.5118 18.052 96.6308 18.0171C96.7013 17.9959 96.7747 17.9883 96.8481 17.9823C96.8672 17.9807 96.8877 18.0096 96.9083 18.0247C96.967 18.0657 97.0185 18.1188 97.1036 18.0915C97.1741 18.0702 97.249 18.0642 97.321 18.052C97.4355 18.0323 97.4355 18.0338 97.5838 18.1264C97.6543 18.1703 97.7248 18.1355 97.7938 18.1248C97.8452 18.1173 97.8937 18.1021 97.9348 18.1233C97.998 18.1552 98.0435 18.228 98.1213 18.2234C98.1947 18.2189 98.2667 18.1976 98.3401 18.1901C98.3857 18.1855 98.4283 18.2098 98.465 18.2507C98.5032 18.2917 98.5443 18.3099 98.5942 18.3008C98.6661 18.2886 98.7396 18.2735 98.813 18.2659C98.8335 18.2644 98.8571 18.278 98.8762 18.2902C98.9173 18.3175 98.9569 18.3493 98.9966 18.3781C99.0685 18.369 99.142 18.366 99.2125 18.3478C99.2668 18.3341 99.305 18.3402 99.349 18.3706C99.4048 18.4115 99.4504 18.4843 99.5414 18.4494C99.5869 18.4327 99.6398 18.4373 99.6853 18.4221C99.7411 18.4024 99.7793 18.41 99.8189 18.4555C99.8938 18.5419 99.9878 18.5434 100.085 18.5101C100.19 18.4737 100.27 18.5162 100.349 18.5829C100.433 18.6527 100.433 18.6511 100.497 18.8195C100.517 18.868 100.571 18.8908 100.616 18.8817C100.693 18.8665 100.759 18.8741 100.815 18.9317C100.873 18.9939 100.944 18.9863 101.016 18.9697C101.111 18.9469 101.207 18.9272 101.285 19.0152C101.323 19.0576 101.364 19.0682 101.415 19.0576C101.561 19.0303 101.707 19.0136 101.85 18.9803C101.937 18.959 101.986 19.0076 102.045 19.0485C102.125 19.1046 102.211 19.1547 102.211 19.2745C102.211 19.2942 102.232 19.317 102.249 19.3322C102.288 19.364 102.329 19.3913 102.368 19.4216C102.427 19.4671 102.484 19.5051 102.565 19.4808C102.636 19.4611 102.71 19.455 102.782 19.4414C102.854 19.4277 102.92 19.4201 102.985 19.4778C103.06 19.543 103.139 19.6052 103.224 19.6537C103.285 19.6886 103.364 19.6294 103.429 19.6765C103.468 19.7053 103.506 19.7386 103.549 19.7629C103.567 19.7735 103.595 19.7659 103.618 19.7629C103.667 19.7568 103.716 19.7523 103.763 19.7371C103.818 19.7204 103.859 19.7235 103.9 19.7584C103.938 19.7902 103.976 19.8342 104.02 19.8433C104.087 19.8569 104.16 19.7963 104.226 19.866C104.26 19.9009 104.302 19.9343 104.346 19.9449C104.39 19.9555 104.442 19.9328 104.489 19.9343C104.509 19.9343 104.534 19.9586 104.546 19.9783C104.553 19.9889 104.543 20.0177 104.533 20.0329C104.52 20.0511 104.501 20.0754 104.482 20.0784C104.336 20.1057 104.191 20.1284 104.045 20.1542C103.959 20.1694 103.959 20.1694 103.784 20.0738C103.743 20.0511 103.697 20.0556 103.646 20.0662C103.577 20.0799 103.506 20.1057 103.434 20.0784C103.34 19.9753 103.224 19.9661 103.101 20.0056C103.05 20.0223 103.003 20.0223 102.965 19.9934C102.884 19.9358 102.799 19.8827 102.727 19.8145C102.671 19.7614 102.644 19.7568 102.621 19.8296C102.614 19.8524 102.606 19.8767 102.608 19.8979C102.616 19.9737 102.633 20.048 102.641 20.1239C102.644 20.1451 102.633 20.1694 102.625 20.1921C102.602 20.2558 102.571 20.2513 102.52 20.1982C102.468 20.1451 102.407 20.1102 102.324 20.1345C102.254 20.1557 102.177 20.1527 102.107 20.1755C101.998 20.2088 101.922 20.1603 101.844 20.0951C101.828 20.0814 101.8 20.0738 101.779 20.0769C101.561 20.1118 101.343 20.1512 101.124 20.1861C101.077 20.1937 101.035 20.1709 100.998 20.13C100.96 20.089 100.917 20.0678 100.87 20.0754C100.677 20.1072 100.483 20.136 100.289 20.1755C100.21 20.1921 100.146 20.1724 100.092 20.1193C100.051 20.0799 100.013 20.0678 99.9614 20.0723C99.9056 20.0769 99.866 20.092 99.8381 20.136C99.8116 20.1785 99.8307 20.2043 99.8894 20.2376C99.9526 20.274 100.011 20.3211 100.072 20.3635C100.12 20.3575 100.168 20.3453 100.215 20.3468C100.236 20.3468 100.255 20.3741 100.276 20.3893C100.334 20.4333 100.389 20.4773 100.472 20.453C100.543 20.4318 100.618 20.4272 100.69 20.4136C100.79 20.3969 100.79 20.3969 100.951 20.4925C100.992 20.5167 101.036 20.5152 101.089 20.5015C101.135 20.4909 101.182 20.5122 101.214 20.5577C101.227 20.5759 101.223 20.6062 101.195 20.7063C101.195 20.7806 101.226 20.7473 101.236 20.6987C101.252 20.629 101.221 20.6062 101.163 20.6441C101.122 20.6714 101.101 20.7109 101.111 20.7427C101.117 20.7594 101.145 20.7806 101.195 20.7063C101.324 20.6153 101.423 20.6047 101.517 20.5804C101.572 20.5668 101.608 20.5728 101.652 20.6123C101.705 20.6593 101.757 20.7093 101.844 20.6851C101.938 20.6578 102.038 20.6547 102.133 20.632C102.221 20.6107 102.267 20.6775 102.323 20.7169C102.39 20.7639 102.465 20.7109 102.527 20.7382C102.592 20.7655 102.637 20.8322 102.712 20.8443C102.821 20.8034 102.89 20.8792 102.972 20.9293C103.036 20.9672 103.113 20.9338 103.182 20.9171C103.26 20.8989 103.324 20.9156 103.379 20.9702C103.44 21.0324 103.509 21.0188 103.58 21.0051C103.744 20.9748 103.75 20.9702 103.846 21.0536C103.915 21.1143 103.981 21.087 104.05 21.0794C104.11 21.1204 104.169 21.1644 104.232 21.2008C104.248 21.2099 104.279 21.1947 104.304 21.1901C104.376 21.178 104.449 21.1659 104.521 21.1537C104.57 21.1462 104.621 21.1234 104.665 21.1325C104.709 21.1431 104.746 21.1871 104.786 21.2159C104.825 21.2448 104.866 21.2736 104.904 21.3039C104.963 21.3494 105.019 21.3873 105.101 21.3646C105.172 21.3449 105.245 21.3388 105.319 21.3251C105.411 21.3085 105.408 21.313 105.58 21.404C105.673 21.4541 105.768 21.3934 105.862 21.3873C105.909 21.3843 105.954 21.401 105.987 21.445C106 21.4632 105.996 21.4935 106 21.5193C105.758 21.5602 105.514 21.5951 105.275 21.6452C105.182 21.6649 105.134 21.6103 105.084 21.5648C105.001 21.492 104.893 21.5981 104.815 21.5041C104.768 21.448 104.7 21.4161 104.62 21.4434C104.573 21.4586 104.523 21.4571 104.474 21.4707C104.351 21.5041 104.238 21.5056 104.139 21.401C104.106 21.3646 104.057 21.3449 104.022 21.31C103.981 21.2721 103.941 21.2508 103.893 21.2584C103.674 21.2948 103.457 21.3312 103.239 21.3706C103.22 21.3737 103.201 21.3964 103.185 21.4131C103.144 21.4556 103.157 21.4889 103.223 21.5162C103.245 21.5253 103.263 21.545 103.283 21.5602C103.323 21.589 103.36 21.6345 103.404 21.6452C103.448 21.6558 103.499 21.6345 103.548 21.627C103.596 21.6194 103.647 21.5966 103.691 21.6057C103.736 21.6163 103.772 21.6603 103.813 21.6876C103.832 21.7013 103.856 21.724 103.875 21.7225C103.972 21.7134 104.067 21.6967 104.164 21.6831C104.225 21.724 104.276 21.7832 104.348 21.7968C104.393 21.8059 104.442 21.7892 104.489 21.7923C104.509 21.7938 104.536 21.8166 104.546 21.8363C104.552 21.8484 104.533 21.8787 104.518 21.8939C104.462 21.9515 104.386 21.9409 104.317 21.9591C104.242 21.9788 104.175 21.9728 104.117 21.9136C104.079 21.8742 104.037 21.853 103.99 21.8605C103.868 21.8803 103.747 21.903 103.625 21.9197C103.605 21.9227 103.58 21.9091 103.561 21.8985C103.407 21.8059 103.407 21.8029 103.298 21.8226C103.138 21.8514 103.138 21.8514 103.031 21.771C103.01 21.7559 102.988 21.7271 102.97 21.7286C102.8 21.7529 102.631 21.7771 102.462 21.812C102.406 21.8226 102.368 21.8226 102.327 21.7832C102.292 21.7498 102.251 21.7119 102.207 21.7028C102.161 21.6937 102.111 21.7164 102.063 21.724C102.014 21.7316 101.963 21.7513 101.92 21.7392C101.876 21.7271 101.838 21.6846 101.8 21.6543C101.76 21.6224 101.718 21.6239 101.663 21.6361C101.496 21.6709 101.495 21.6664 101.329 21.5724C101.31 21.5617 101.285 21.5496 101.264 21.5526C101.142 21.5708 101.022 21.5936 100.9 21.6118C100.853 21.6194 100.807 21.5997 100.775 21.5557C100.762 21.5375 100.766 21.5071 100.757 21.448C100.747 21.4343 100.759 21.4586 100.762 21.4814C100.784 21.4783 100.81 21.4813 100.826 21.4692C100.867 21.4404 100.888 21.4025 100.878 21.3706C100.872 21.3539 100.844 21.3327 100.826 21.3327C100.794 21.3327 100.766 21.3661 100.757 21.448C100.665 21.498 100.566 21.5087 100.471 21.5329C100.415 21.5481 100.38 21.5405 100.336 21.5011C100.283 21.4525 100.229 21.4055 100.142 21.4298C100.048 21.4571 99.9482 21.4616 99.8512 21.4829C99.7396 21.5071 99.6912 21.3706 99.5972 21.3737C99.5003 21.3767 99.4034 21.4025 99.3064 21.4207C99.2213 21.4359 99.2213 21.4358 99.045 21.3373C98.9804 21.3009 98.9041 21.3539 98.8409 21.316C98.7983 21.2918 98.7616 21.2554 98.7205 21.2296C98.7029 21.219 98.675 21.219 98.6529 21.222C98.5311 21.2402 98.4077 21.2523 98.2902 21.2857C98.1566 21.3251 98.0553 21.2827 97.9598 21.1932C97.8394 21.2099 97.7175 21.219 97.5985 21.2478C97.5119 21.269 97.462 21.219 97.4032 21.178C97.3827 21.1644 97.3651 21.1416 97.343 21.1355C97.321 21.1295 97.2945 21.1416 97.271 21.1462C97.1741 21.1628 97.0742 21.1704 96.9803 21.1977C96.8643 21.2326 96.8202 21.1082 96.7306 21.0931C96.6704 21.1674 96.6381 21.269 96.5192 21.2766C96.4222 21.2827 96.3253 21.3069 96.2284 21.3236C96.1799 21.3312 96.1315 21.3403 96.083 21.3479C96.0052 21.3615 95.9685 21.4207 95.9846 21.5117C95.9934 21.5617 96.0008 21.6118 96.0081 21.6618C96.0228 21.7513 95.9861 21.8272 95.9244 21.8378C95.7541 21.8666 95.5852 21.8969 95.4148 21.9227C95.3693 21.9303 95.3252 21.9045 95.2885 21.8636C95.2503 21.8226 95.2078 21.8044 95.1608 21.812C94.9904 21.8408 94.8215 21.8712 94.6512 21.8969C94.6321 21.9 94.6072 21.8848 94.5881 21.8727C94.5469 21.8454 94.5073 21.8135 94.4676 21.7847C94.3707 21.7984 94.2753 21.8074 94.1798 21.8256C94.0256 21.8529 94.0256 21.8545 93.9125 21.771C93.892 21.7559 93.8714 21.7271 93.8523 21.7286C93.7789 21.7347 93.7069 21.7498 93.6335 21.7635C93.4176 21.8029 93.4176 21.8029 93.3545 21.7574C93.2972 21.7149 93.2458 21.6634 93.1591 21.6876C93.0652 21.7149 92.9653 21.724 92.8684 21.7392C92.7964 21.7498 92.7245 21.762 92.6525 21.765C92.6334 21.7665 92.6129 21.7377 92.5923 21.7225C92.5336 21.6755 92.4763 21.6376 92.3955 21.6634C92.3485 21.6785 92.2986 21.6816 92.2501 21.6892C92.1238 21.7104 92.1238 21.7104 91.9168 21.6194C91.8962 21.6103 91.8713 21.5997 91.8507 21.6042C91.6804 21.6315 91.5115 21.6618 91.3411 21.6876C91.3206 21.6907 91.2956 21.6816 91.275 21.674C91.043 21.586 91.043 21.586 90.7963 21.6285C90.7023 21.6436 90.6994 21.6497 90.601 21.5693C90.5569 21.5344 90.5202 21.5178 90.4688 21.5284C90.275 21.5648 90.0797 21.589 89.8873 21.6315C89.8007 21.6497 89.7507 21.6042 89.692 21.5633C89.6714 21.5496 89.6494 21.5193 89.6318 21.5208C89.4379 21.5496 89.244 21.5845 89.0502 21.6133C89.0326 21.6164 89.0106 21.586 88.99 21.5724C88.9504 21.5451 88.9122 21.5041 88.8681 21.495C88.8226 21.4859 88.7727 21.5087 88.7227 21.5162C88.6008 21.536 88.6008 21.5344 88.4598 21.445C88.4408 21.4328 88.4158 21.4161 88.3967 21.4192C88.2029 21.4495 88.0076 21.4753 87.8152 21.5193C87.705 21.5435 87.6301 21.4996 87.5523 21.4359C87.5362 21.4222 87.5083 21.4161 87.4877 21.4192C87.2689 21.4541 87.0516 21.4935 86.8327 21.5284C86.7872 21.536 86.7431 21.5102 86.7064 21.4707C86.6477 21.4085 86.5787 21.4161 86.5053 21.4298C86.3364 21.4616 86.3349 21.4601 86.235 21.3873C86.2145 21.3722 86.1969 21.3524 86.1748 21.3449C86.1543 21.3373 86.1279 21.3418 86.1058 21.3449C86.0089 21.36 85.912 21.3767 85.8151 21.3934C85.7181 21.4101 85.6197 21.4192 85.5243 21.445C85.4068 21.4768 85.351 21.3782 85.2687 21.3327C85.1483 21.3524 85.025 21.3646 84.906 21.3964C84.815 21.4207 84.7724 21.3539 84.7122 21.3191C84.6916 21.3069 84.6696 21.2811 84.6505 21.2842C84.4317 21.3175 84.2129 21.3539 83.9955 21.3949C83.9427 21.404 83.9074 21.3919 83.8634 21.3555C83.765 21.2736 83.7606 21.2766 83.5961 21.3069C83.5241 21.3206 83.4551 21.3327 83.3934 21.2705C83.3391 21.2144 83.273 21.2008 83.1952 21.219C83.0997 21.2417 83.0013 21.2538 82.9044 21.269C82.8075 21.2857 82.7106 21.3084 82.6137 21.316C82.5358 21.3236 82.4888 21.2523 82.4272 21.2159C82.4081 21.2053 82.3816 21.2038 82.3596 21.2068C82.2627 21.2205 82.1628 21.2311 82.0688 21.2569C81.9543 21.2887 81.8911 21.2053 81.8104 21.1568C81.7928 21.1462 81.7634 21.1522 81.7413 21.1568C81.571 21.1841 81.4021 21.2144 81.2318 21.2432C81.1715 21.2023 81.1099 21.1628 81.0497 21.1219C80.9527 21.1371 80.8558 21.1537 80.7589 21.1689C80.6855 21.181 80.6106 21.1856 80.5415 21.2083C80.452 21.2387 80.4079 21.1674 80.3477 21.1325C80.3271 21.1204 80.3051 21.0946 80.286 21.0976C80.1641 21.1143 80.0423 21.1325 79.9218 21.1583C79.8073 21.1841 79.7618 21.0476 79.6678 21.0491C79.5709 21.0506 79.471 21.0703 79.377 21.0976C79.2683 21.1295 79.192 21.0809 79.1141 21.0157C79.098 21.0021 79.0701 20.9945 79.0495 20.9975C78.9276 21.0157 78.8072 21.0385 78.6853 21.0567C78.6648 21.0597 78.6398 21.0521 78.6193 21.043C78.3872 20.9535 78.3872 20.952 78.2859 20.9702C78.2139 20.9824 78.1405 20.9975 78.0671 21.0051C78.0465 21.0081 78.0215 20.9945 78.0024 20.9824C77.8497 20.8898 77.8497 20.8883 77.7396 20.9065C77.6427 20.9232 77.5457 20.9399 77.4488 20.9566C77.3886 20.9156 77.3269 20.8762 77.2667 20.8352C77.1463 20.855 77.0229 20.8701 76.904 20.8974C76.8482 20.9095 76.8115 20.905 76.7689 20.8671C76.716 20.8216 76.6632 20.7685 76.575 20.7943C76.4811 20.8216 76.3812 20.8246 76.2857 20.8474C76.1712 20.8747 76.1242 20.7366 76.0317 20.7382C75.9348 20.7397 75.8349 20.7594 75.7409 20.7867C75.6323 20.8185 75.5559 20.77 75.4781 20.7048C75.4619 20.6911 75.434 20.6836 75.4134 20.6866C75.1462 20.7306 74.8804 20.7746 74.6131 20.8216C74.4486 20.8504 74.4486 20.8519 74.1358 20.7685C74.1138 20.7624 74.0903 20.7564 74.0683 20.7594C73.9713 20.773 73.8715 20.7837 73.7775 20.8094C73.6629 20.8413 73.5998 20.7594 73.519 20.7093C73.5014 20.6987 73.4735 20.7048 73.45 20.7078C73.3766 20.7184 73.3046 20.7321 73.2312 20.7442C73.1343 20.7609 73.0374 20.7776 72.9404 20.7943C72.8802 20.7548 72.8185 20.7139 72.7583 20.6745C72.6379 20.6942 72.5146 20.7048 72.3956 20.7366C72.3046 20.7609 72.262 20.6972 72.2018 20.6608C72.1812 20.6487 72.1592 20.6229 72.1401 20.6244C71.9213 20.6578 71.7025 20.6927 71.4851 20.7351C71.3955 20.7533 71.3544 20.6851 71.2942 20.6502C71.2737 20.6396 71.2502 20.6199 71.2311 20.6229C71.0857 20.6441 70.9403 20.6699 70.7949 20.6957C70.7127 20.7109 70.7127 20.7109 70.5335 20.6168C70.513 20.6062 70.4895 20.5956 70.4689 20.5986C70.0078 20.6745 69.5481 20.7548 69.087 20.8307C69.04 20.8383 68.9974 20.8155 68.9607 20.7746C68.9226 20.7336 68.88 20.7124 68.833 20.72C68.6391 20.7518 68.4438 20.7806 68.2514 20.8201C68.1721 20.8368 68.109 20.817 68.0546 20.7639C68.0135 20.7245 67.9753 20.7093 67.9239 20.7184C67.827 20.7366 67.7301 20.7518 67.6332 20.7685C67.5363 20.7852 67.4393 20.8019 67.3424 20.8186C67.2455 20.8352 67.1471 20.8443 67.0516 20.8701C66.9342 20.902 66.8769 20.8079 66.7961 20.7609C66.6507 20.7837 66.5053 20.8064 66.3614 20.8307C66.1676 20.8625 65.9737 20.8974 65.7799 20.9278C65.7623 20.9308 65.7402 20.9035 65.7197 20.8898C65.6595 20.8519 65.6154 20.7988 65.5258 20.8155C65.0911 20.8959 64.6535 20.9642 64.2174 21.043C64.1263 21.0597 64.0867 20.9945 64.025 20.9596C64.0044 20.949 63.9809 20.9278 63.9618 20.9308C63.7195 20.9687 63.4772 21.0112 63.2349 21.0521C63.1365 21.0688 63.1365 21.0688 62.9721 20.9748C62.953 20.9641 62.928 20.9505 62.9074 20.9535C62.5917 21.0051 62.2774 21.0597 61.9617 21.1128C61.9147 21.1204 61.8721 21.0991 61.834 21.0582C61.7972 21.0172 61.7532 20.9945 61.7076 21.0021C61.4169 21.0506 61.1246 21.0976 60.8353 21.1507C60.7575 21.1659 60.6929 21.1522 60.6371 21.0976C60.5974 21.0582 60.5578 21.0415 60.5079 21.0506C60.0717 21.1249 59.6355 21.1962 59.1994 21.2751C59.1157 21.2903 59.057 21.2614 59.0041 21.2114C58.9615 21.1719 58.9248 21.1644 58.8719 21.1704C58.8161 21.178 58.7823 21.1947 58.7515 21.2402C58.7119 21.2993 58.6869 21.3737 58.5929 21.3782C58.496 21.3828 58.3976 21.401 58.3021 21.4268C58.2111 21.4525 58.1685 21.3843 58.1112 21.3433C58.0686 21.3145 58.029 21.31 57.9746 21.3236C57.9247 21.3358 57.8939 21.3615 57.8645 21.4101C57.7999 21.5132 57.794 21.5132 57.7147 21.448C57.6721 21.4131 57.6339 21.3858 57.5869 21.3919C57.3931 21.4222 57.1992 21.4556 57.0054 21.4905C56.8938 21.5102 56.8923 21.5132 56.8086 21.4374C56.7675 21.3995 56.7279 21.3812 56.6794 21.3903C56.1463 21.4813 55.6133 21.5693 55.0802 21.6649C54.9979 21.68 54.9421 21.6482 54.8834 21.6027C54.8643 21.5875 54.8452 21.5663 54.8232 21.5602C54.8012 21.5541 54.7762 21.5602 54.7527 21.5633C54.365 21.6285 53.9758 21.6907 53.5896 21.7635C53.5015 21.7802 53.4545 21.7316 53.3943 21.6922C53.3738 21.6785 53.3561 21.6573 53.3341 21.6512C53.312 21.6467 53.2856 21.6573 53.2621 21.6618C52.8744 21.7271 52.4853 21.7893 52.0991 21.8621C52.0065 21.8787 51.9669 21.815 51.9067 21.7817C51.8861 21.7695 51.8641 21.7468 51.845 21.7498C51.7231 21.7665 51.6027 21.7892 51.4808 21.809C51.19 21.859 50.8992 21.906 50.6085 21.9576C50.4969 21.9773 50.4484 21.8423 50.3544 21.8484C50.2325 21.856 50.1121 21.8863 49.9902 21.9076C49.8933 21.9242 49.7964 21.9394 49.6995 21.9576C49.604 21.9743 49.604 21.9743 49.3661 21.8863C49.3455 21.8787 49.3206 21.8681 49.3 21.8712C48.9608 21.9273 48.6201 21.9834 48.2823 22.0441C48.2045 22.0577 48.1399 22.0501 48.0841 21.994C48.0444 21.9546 48.0033 21.9349 47.9549 21.944C47.4453 22.0304 46.9372 22.1169 46.4276 22.2018C46.4085 22.2048 46.3835 22.1897 46.3644 22.1775C46.3233 22.1502 46.2837 22.1184 46.244 22.0896C46.2146 22.1245 46.1765 22.1563 46.1574 22.1957C46.131 22.2488 46.0957 22.264 46.0399 22.2731C45.9841 22.2822 45.9489 22.2792 45.9048 22.2397C45.8519 22.1912 45.7976 22.1533 45.7109 22.1684C45.1779 22.264 44.6448 22.3504 44.1117 22.4445C44.0236 22.4596 43.9825 22.3929 43.9208 22.358C43.9003 22.3474 43.8767 22.3307 43.8576 22.3338C43.6388 22.3686 43.4215 22.4066 43.2027 22.443C42.5962 22.5461 41.9897 22.6447 41.3847 22.7539C41.2745 22.7736 41.1996 22.7357 41.1218 22.6705C41.1056 22.6568 41.0777 22.6492 41.0572 22.6523C40.2084 22.7948 39.3596 22.9389 38.5122 23.083C38.4667 23.0906 38.4226 23.0663 38.3859 23.0269C38.3477 22.9859 38.3052 22.9662 38.2582 22.9738C37.8705 23.039 37.4828 23.1043 37.0951 23.171C36.9982 23.1877 36.9967 23.1892 36.8968 23.1164C36.8763 23.1012 36.8543 23.0724 36.8381 23.0754C36.8043 23.083 36.772 23.1209 36.7485 23.1725C36.725 23.2271 36.6883 23.2423 36.634 23.2529C36.5782 23.2635 36.5415 23.259 36.4989 23.2226C36.4445 23.1771 36.3946 23.1331 36.3065 23.1482C35.1919 23.3424 34.0772 23.5289 32.9626 23.7216C32.873 23.7367 32.8319 23.673 32.7702 23.6381C32.7497 23.6275 32.7291 23.6123 32.7071 23.6093C32.6836 23.6063 32.6586 23.6154 32.6352 23.6199C30.8171 23.9278 28.9991 24.2372 27.181 24.5451C27.0724 24.5633 27.0738 24.5633 26.9549 24.7029C26.9402 24.7196 26.9211 24.7423 26.9005 24.7453C26.344 24.8424 25.7859 24.9365 25.2279 25.0305C24.9856 25.0714 24.7433 25.1139 24.501 25.1534C24.4143 25.167 24.4143 25.167 24.2073 25.3308C24.1896 25.3445 24.1691 25.3627 24.1485 25.3657C23.1793 25.531 22.21 25.6963 21.2393 25.8586C21.163 25.8708 21.1013 25.8981 21.0661 25.9709C21.0411 26.0224 21.0088 26.0528 20.9603 26.0619C20.2819 26.1771 19.6034 26.2939 18.9235 26.4062C18.8427 26.4198 18.7942 26.4623 18.7546 26.526C18.7414 26.5472 18.7296 26.5715 18.7105 26.5867C18.6929 26.6003 18.6665 26.6049 18.6445 26.6094C18.0629 26.708 17.4814 26.8096 16.8984 26.9037C16.8117 26.9173 16.7765 26.9734 16.7339 27.0326C16.7192 27.0523 16.7089 27.0796 16.6898 27.0933C16.6707 27.1054 16.6428 27.1054 16.6193 27.1084C16.1347 27.1903 15.6501 27.2737 15.1655 27.3556C15.0715 27.3481 15.051 27.436 15.0054 27.4891C14.9893 27.5073 14.9776 27.5316 14.9585 27.5437C14.9379 27.5558 14.9114 27.5543 14.8865 27.5574C14.4988 27.6226 14.1111 27.6924 13.7219 27.753C13.6324 27.7667 13.6147 27.844 13.5663 27.8971C13.5501 27.9138 13.534 27.9396 13.5149 27.9441C13.2726 27.9881 13.0303 28.0291 12.788 28.0685C12.7072 28.0821 12.7072 28.0806 12.5648 28.2308C12.5486 28.2475 12.5295 28.2657 12.5089 28.2702C12.1462 28.3339 11.782 28.3946 11.4178 28.4568C11.3708 28.4644 11.3385 28.5008 11.315 28.5523C11.2915 28.6039 11.2578 28.6373 11.2108 28.6449C10.92 28.6949 10.6292 28.7465 10.3384 28.792C10.2577 28.8041 10.2048 28.842 10.1696 28.9103C10.1431 28.9619 10.1108 28.9876 10.0594 28.9967C9.76866 29.0453 9.4779 29.0984 9.18567 29.1408C9.10049 29.153 9.05642 29.2045 9.02117 29.2682C8.99327 29.3198 8.96096 29.338 8.90662 29.3471C8.37355 29.4351 7.83902 29.523 7.30741 29.6201C7.21783 29.6368 7.17229 29.5837 7.11355 29.5458C7.02985 29.4927 6.95204 29.4351 6.95204 29.3168C6.95204 29.2986 6.92707 29.2773 6.90944 29.2622C6.77874 29.1484 6.77874 29.1484 6.75818 29.0271C6.74643 28.9528 6.73322 28.8769 6.72294 28.8011C6.70385 28.6767 6.65684 28.6449 6.52173 28.6676C6.47327 28.6752 6.42481 28.6858 6.37635 28.6919C6.30439 28.7025 6.25006 28.6524 6.23684 28.5614C6.2295 28.5114 6.2207 28.4613 6.21336 28.4113C6.28679 28.3991 6.2853 28.3976 6.41453 28.2141C6.46887 28.1368 6.46889 28.1368 6.36462 28.0594C6.32497 28.0306 6.28678 27.9987 6.24419 27.9714C6.2251 27.9593 6.20015 27.9517 6.17959 27.9547C6.0577 27.9729 5.93728 27.9942 5.81686 28.0154C5.62302 28.0488 5.623 28.0488 5.42621 27.8941C5.41006 27.8819 5.38509 27.8592 5.38803 27.8471C5.40418 27.7909 5.44383 27.7667 5.49376 27.7606C5.56719 27.7515 5.63914 27.7363 5.7111 27.7242C5.75956 27.7166 5.80802 27.7075 5.85648 27.6999C5.90201 27.6423 5.94902 27.5862 5.99161 27.527C6.05916 27.436 6.05914 27.433 5.96662 27.3693C5.90788 27.3268 5.84474 27.2889 5.78453 27.2495C5.71257 27.2616 5.63914 27.2752 5.56719 27.2859C5.47614 27.2995 5.43942 27.2707 5.41592 27.1721C5.39536 27.0857 5.42033 27.0113 5.49082 26.9931C5.56278 26.9749 5.63036 26.9628 5.66707 26.8855C5.70232 26.8111 5.76398 26.7823 5.84035 26.7762C5.88881 26.7717 5.93727 26.7611 5.98573 26.752C6.04888 26.7399 6.08266 26.6625 6.06945 26.576C6.06211 26.5199 6.04741 26.4729 5.99014 26.4608C5.73609 26.4077 5.73313 26.4092 5.60684 26.3061C5.59509 26.297 5.5863 26.2697 5.59071 26.256C5.59805 26.2333 5.61421 26.1999 5.63183 26.1953C5.80071 26.162 5.96958 26.1316 6.13846 26.1089C6.19427 26.1013 6.23539 26.0907 6.25448 26.0346C6.28092 25.9572 6.26917 25.8859 6.21777 25.8328C6.20162 25.8162 6.17516 25.7949 6.15754 25.7964C5.96369 25.8237 5.77132 25.8586 5.57748 25.8859C5.55985 25.889 5.52756 25.8632 5.52022 25.8435C5.50553 25.8071 5.52755 25.7585 5.57895 25.7418C5.6465 25.7191 5.71552 25.7176 5.76104 25.6417C5.82419 25.534 5.90201 25.4355 5.9725 25.3323C5.98425 25.3141 6.00337 25.2792 5.99896 25.2762C5.96225 25.2428 5.91965 25.217 5.88147 25.1852C5.81686 25.1321 5.81684 25.0578 5.83153 24.9865C5.84328 24.9289 5.88733 24.9061 5.94167 24.9061C5.96517 24.9061 5.99453 24.9061 6.01363 24.8925C6.06356 24.8591 6.07971 24.8166 6.05475 24.7848C6.04006 24.7666 6.01364 24.7408 5.99602 24.7438C5.68176 24.7939 5.366 24.8424 5.0532 24.9046C4.96068 24.9228 4.91812 24.8652 4.86232 24.8242C4.81973 24.7924 4.78006 24.7802 4.72719 24.803C4.67726 24.8242 4.62882 24.8121 4.59798 24.762C4.57301 24.7211 4.61706 24.6862 4.73601 24.6468C4.75804 24.6392 4.78299 24.6346 4.79915 24.6195C4.9695 24.4557 4.96949 24.4541 5.08697 24.4329C5.20152 24.4132 5.20155 24.4117 5.26176 24.3237C5.28966 24.2828 5.32047 24.2418 5.34691 24.1993C5.35719 24.1826 5.37483 24.1523 5.36896 24.1432C5.33665 24.0962 5.29258 24.0856 5.24118 24.0962C5.12663 24.122 4.99155 24.1007 4.93134 24.2448C4.90784 24.2994 4.87112 24.3146 4.81826 24.3237C4.28665 24.4117 3.75502 24.5057 3.22195 24.5907C3.1353 24.6043 3.09568 24.6604 3.0619 24.7226C3.03253 24.7742 3.00021 24.7893 2.94441 24.7984C2.88861 24.8075 2.84453 24.8121 2.81222 24.762C2.79313 24.7317 2.80929 24.6892 2.85334 24.6468C2.91649 24.5861 2.90474 24.5103 2.88418 24.439C2.86949 24.392 2.82397 24.3586 2.77551 24.3616C2.70355 24.3677 2.63455 24.3844 2.57434 24.3237C2.53909 24.2888 2.49503 24.2645 2.45538 24.2342C2.37901 24.172 2.30265 24.1083 2.19545 24.1493C2.12202 24.1341 2.07062 24.0795 2.01188 24.037C1.91349 23.9673 1.90468 23.9567 1.97517 23.8823C2.05447 23.7989 1.99278 23.6897 2.03683 23.6078C2.08383 23.5198 2.14846 23.4425 2.20574 23.3606C2.22042 23.3394 2.23364 23.3196 2.24833 23.2984C2.21455 23.2681 2.18372 23.2302 2.14407 23.2089C2.09267 23.1816 2.06624 23.1482 2.06917 23.0542C2.05889 23.0406 2.06327 23.0754 2.07502 23.0845C2.08823 23.0936 2.12057 23.0861 2.13672 23.0754C2.17784 23.0466 2.19838 23.0087 2.1881 22.9769C2.18222 22.9602 2.15434 22.9389 2.13672 22.9389C2.10441 22.9389 2.07651 22.9723 2.0677 23.0542C1.90323 23.1164 1.73285 23.1467 1.5625 23.171C1.54488 23.174 1.52286 23.1437 1.5023 23.1285C1.43475 23.077 1.43474 23.0785 1.23649 23.0633C1.21593 23.0618 1.18804 23.0406 1.17776 23.0193C1.13518 22.9268 1.13666 22.8252 1.1161 22.7266C1.15428 22.6629 1.19243 22.6007 1.23208 22.5385C1.31138 22.4126 1.4142 22.3019 1.47588 22.1639C1.46266 22.0896 1.44504 22.0152 1.50965 21.9546C1.69322 21.8787 1.69176 21.8787 1.74169 21.8059C1.88414 21.5997 2.02511 21.3919 2.17343 21.1886C2.21308 21.1355 2.21309 21.1067 2.1426 21.084C2.12057 21.0779 2.09704 21.0764 2.07355 21.0794C2.00012 21.09 1.92669 21.1173 1.85474 21.1113C1.78278 21.1067 1.72991 21.04 1.67117 20.999C1.61096 20.9566 1.55075 20.9126 1.49054 20.8686C1.42152 20.8731 1.35252 20.9156 1.28349 20.8474C1.23063 20.7943 1.16455 20.7564 1.10434 20.7124C1.14986 20.5971 1.23505 20.5091 1.30113 20.4075C1.36134 20.315 1.36278 20.3165 1.52432 20.2452C1.60068 20.2119 1.62712 20.0405 1.5625 19.9904C1.48467 19.9297 1.40245 19.8736 1.32315 19.816C1.25413 19.8205 1.18365 19.8615 1.11757 19.7932C1.06617 19.7417 1.00742 19.7068 0.922241 19.7265C0.778325 19.7599 0.631477 19.7766 0.486092 19.8039C0.436162 19.813 0.381811 19.8069 0.359783 19.7553C0.345097 19.7189 0.387688 19.6689 0.436149 19.6583C0.509576 19.6431 0.575652 19.6249 0.612366 19.5491C0.64761 19.4732 0.712219 19.4505 0.788582 19.4398C0.809142 19.4368 0.832655 19.4186 0.842935 19.4004C0.895802 19.3124 0.954548 19.2366 1.06762 19.2396C1.11462 19.2093 1.13957 19.1714 1.12488 19.135C1.11607 19.1153 1.08525 19.0895 1.06762 19.0925C0.945736 19.1077 0.823853 19.1229 0.704902 19.1502C0.649098 19.1623 0.606487 19.1653 0.571243 19.1198C0.546278 19.0895 0.559493 19.0485 0.606486 19.0045C0.647605 18.9666 0.659366 18.9226 0.656429 18.8711C0.649086 18.7512 0.605022 18.7164 0.464043 18.7239C0.362714 18.73 0.337748 18.7103 0.31572 18.6072C0.309846 18.5829 0.295186 18.5495 0.305466 18.5328C0.368613 18.4297 0.409734 18.3023 0.528685 18.2538C0.575678 18.2356 0.625588 18.2356 0.654959 18.1961C0.684329 18.1567 0.710776 18.1112 0.741615 18.0733C0.779797 18.0278 0.806205 17.9853 0.788582 17.9565C0.759212 17.9049 0.712234 17.9004 0.657899 17.9186C0.610906 17.9337 0.560977 17.9352 0.512516 17.9443C0.425872 17.961 0.355399 17.9216 0.345119 17.8549C0.317217 17.6789 0.287838 17.5045 0.262873 17.3286C0.259936 17.3073 0.267258 17.28 0.279006 17.2618C0.320125 17.1981 0.364198 17.1374 0.406786 17.0753C0.456716 17.004 0.536029 17.0176 0.603582 17.004C0.699036 16.9843 0.699003 16.9858 0.826765 16.8402C0.876695 16.7825 0.963343 16.8053 1.01474 16.7537C1.0309 16.737 1.05586 16.7097 1.05145 16.6946C1.04558 16.6748 1.01623 16.6597 0.994198 16.6506C0.973639 16.6415 0.948679 16.6369 0.926651 16.6415C0.659379 16.6855 0.393582 16.7325 0.126309 16.775C0.0807849 16.7825 0.0308535 16.7492 0.0146996 16.7022C-0.00145419 16.6582 0.00293706 16.6051 0 16.555C0.0425874 16.4928 0.0910302 16.4352 0.127744 16.3685C0.155646 16.3169 0.187959 16.2941 0.243763 16.2911C0.31719 16.2866 0.389155 16.2684 0.471393 16.2547C0.62412 16.0333 0.7739 15.8012 0.938375 15.5798C1.00446 15.4903 0.988331 15.3993 1.00155 15.3037C1.01476 15.2157 1.11315 15.2294 1.17923 15.2036C1.2321 15.1824 1.2497 15.1338 1.22914 15.1005C1.21739 15.0808 1.19097 15.058 1.17041 15.058C1.12195 15.058 1.07349 15.0717 1.02503 15.0792C0.97657 15.0868 0.920769 15.0823 0.881118 15.1081C0.842936 15.1323 0.817957 15.1839 0.792992 15.2279C0.76509 15.2764 0.728403 15.2931 0.672598 15.2961C0.60064 15.2992 0.528687 15.3128 0.456729 15.3234C0.377428 15.2643 0.295173 15.2067 0.21881 15.1445C0.204124 15.1323 0.201171 15.0975 0.20264 15.0747C0.205577 15.0156 0.183555 14.9791 0.135093 14.9503C0.0939745 14.9261 0.0601954 14.8912 0.0220136 14.8608C0.0513842 14.8199 0.0837034 14.7804 0.1072 14.7365C0.158598 14.6439 0.223221 14.5772 0.334829 14.5803C0.378885 14.5211 0.41412 14.4483 0.471393 14.4073C0.525728 14.3679 0.61825 14.4073 0.659369 14.3178C0.679928 14.2739 0.710784 14.2238 0.750435 14.2056C0.813582 14.1768 0.895818 14.192 0.932531 14.107C0.954559 14.0585 0.986854 14.0145 1.02944 14.0024C1.0779 13.9887 1.12782 13.9857 1.16306 13.9569C1.18216 13.9417 1.20272 13.9174 1.20272 13.8962C1.20272 13.8826 1.17337 13.8613 1.15281 13.8522C1.13372 13.8416 1.10873 13.834 1.0867 13.8371C1.01327 13.8462 0.941315 13.8628 0.867889 13.8719C0.847329 13.875 0.82384 13.8644 0.801812 13.8553C0.737197 13.831 0.741594 13.8007 0.792992 13.7461C0.844391 13.693 0.881124 13.6247 0.923711 13.5625C0.970704 13.5519 1.02944 13.5565 1.06174 13.5276C1.11608 13.4806 1.15425 13.4124 1.19831 13.3532C1.24677 13.3441 1.2967 13.3411 1.34222 13.3244C1.36131 13.3183 1.37013 13.285 1.38628 13.2652C1.41565 13.2273 1.44064 13.1727 1.48029 13.1545C1.54491 13.1272 1.6242 13.1378 1.66239 13.0544C1.68441 13.0059 1.71818 12.9543 1.7593 12.9513C1.87384 12.9452 1.9223 12.8618 1.98105 12.7829C2.0251 12.7238 2.11909 12.7541 2.16755 12.695C2.19986 12.657 2.22337 12.61 2.25568 12.5736C2.2689 12.5584 2.29679 12.5509 2.31882 12.5463C2.43923 12.5236 2.56112 12.5069 2.68154 12.4826C2.70063 12.4781 2.71827 12.4553 2.73295 12.4371C2.76379 12.3977 2.78286 12.3431 2.82104 12.3173C2.85922 12.2915 2.91355 12.2915 2.96054 12.2839C3.1118 12.2612 3.12356 12.2672 3.19258 12.1383C3.24839 12.0337 3.38498 12.108 3.4305 11.9927C3.45694 11.926 3.50538 11.8714 3.59202 11.8638C3.71391 11.8532 3.83432 11.8244 3.95621 11.8046C4.06488 11.7864 4.06342 11.7864 4.1809 11.6454C4.23377 11.5817 4.31162 11.5908 4.38064 11.5786C4.45406 11.5665 4.52161 11.5483 4.55685 11.4725C4.5921 11.3982 4.65671 11.3739 4.7316 11.3633C4.80062 11.3526 4.87847 11.3602 4.93281 11.2996C5.06497 11.154 5.06351 11.1524 5.15603 11.1373C5.30141 11.113 5.44679 11.0887 5.59218 11.063C5.6891 11.0463 5.79042 11.0432 5.88147 11.0099C5.94756 10.9856 5.97692 10.9007 6.01951 10.8415C6.13992 10.8188 6.26034 10.796 6.38076 10.7748C6.54964 10.7444 6.71998 10.7171 6.89033 10.6883C6.96376 10.6307 6.97406 10.5033 7.09742 10.4972C7.17085 10.4942 7.2428 10.4745 7.31623 10.4623C7.43812 10.4411 7.55853 10.4138 7.68042 10.4032C7.77294 10.3956 7.78907 10.3137 7.83753 10.2621C7.85368 10.2439 7.86838 10.2181 7.88747 10.2136C8.07838 10.1711 8.27515 10.162 8.46165 10.0998C8.48074 10.0938 8.49837 10.0619 8.50278 10.0392C8.50571 10.027 8.48075 10.0043 8.46459 9.99367C8.4455 9.98154 8.42055 9.9694 8.39999 9.97244C7.79348 10.0741 7.187 10.1772 6.58049 10.2788C6.49532 10.294 6.49532 10.2925 6.28826 10.4593C6.27064 10.473 6.25005 10.4881 6.22802 10.4927C6.1311 10.5109 6.03271 10.5215 5.93726 10.5442C5.85943 10.5624 5.79483 10.5442 5.73903 10.4896C5.69938 10.4502 5.65824 10.4381 5.60831 10.4411C5.55251 10.4457 5.51581 10.4623 5.48351 10.5033C5.44092 10.5594 5.41888 10.6322 5.3293 10.6474C4.91665 10.7126 4.50396 10.7854 4.09278 10.8552C4.0355 10.8339 4.0076 10.8021 4.02229 10.7642C4.0311 10.7414 4.04873 10.7111 4.06635 10.708C4.23523 10.6762 4.40558 10.6489 4.57446 10.6186C4.59795 10.614 4.63026 10.617 4.64347 10.6019C4.70809 10.5336 4.73161 10.4229 4.8535 10.4153C4.92399 10.4108 4.99594 10.388 5.06349 10.3668C5.08258 10.3607 5.10021 10.3289 5.10461 10.3061C5.10608 10.294 5.08258 10.2712 5.06496 10.2606C5.00034 10.2166 4.92547 10.2697 4.86085 10.2394C4.83882 10.2288 4.80796 10.2136 4.80356 10.1954C4.80062 10.1787 4.82559 10.1514 4.84321 10.1347C4.85936 10.1196 4.88138 10.1059 4.90341 10.1014C5.09725 10.0665 5.29113 10.0301 5.48498 10.0028C5.56428 9.99215 5.62007 9.95422 5.65531 9.88446C5.68175 9.83289 5.71405 9.80559 5.76398 9.79801C6.10321 9.74189 6.44243 9.67971 6.78313 9.62814C6.86831 9.616 6.91238 9.56596 6.94763 9.50074C6.97553 9.44917 7.00784 9.43097 7.06218 9.42186C7.54826 9.34299 8.03139 9.25503 8.51748 9.17919C8.60706 9.16554 8.6335 9.10032 8.67903 9.0442C8.69518 9.02448 8.70544 9.00022 8.726 8.98808C8.74656 8.97595 8.77299 8.97745 8.79795 8.97442C9.18565 8.9092 9.57336 8.83944 9.96252 8.77877C10.0536 8.76512 10.0712 8.68928 10.1182 8.63619C10.1343 8.61951 10.149 8.59222 10.1681 8.58767C10.4589 8.5361 10.7496 8.48756 11.0404 8.43751C11.2342 8.40414 11.4281 8.37077 11.6219 8.33892C11.7174 8.32375 11.7174 8.32223 11.8466 8.17814C11.8613 8.16145 11.8819 8.14173 11.901 8.13718C12.459 8.04011 13.0156 7.94761 13.5736 7.85206C13.6206 7.84447 13.6544 7.80957 13.6779 7.758C13.7014 7.70643 13.7352 7.67155 13.7807 7.66396C14.2169 7.58813 14.653 7.51381 15.0906 7.44253C15.1699 7.4304 15.2257 7.39399 15.261 7.32574C15.2874 7.27417 15.3197 7.24688 15.3696 7.23929C15.8058 7.16649 16.242 7.08913 16.6796 7.01936C16.7633 7.00571 16.8044 6.95414 16.8455 6.89347C16.8602 6.87224 16.8719 6.83735 16.8896 6.83432C17.1069 6.79185 17.3228 6.74786 17.5416 6.71905C17.6326 6.70691 17.6635 6.64321 17.7002 6.58254C17.7296 6.534 17.7634 6.51732 17.8192 6.51126C17.941 6.49761 18.0615 6.47183 18.1804 6.44605C18.198 6.4415 18.2201 6.40813 18.2215 6.38689C18.2245 6.34746 18.1907 6.32015 18.1349 6.3065C17.5533 6.40509 16.9704 6.50367 16.3888 6.60226C16.2934 6.61894 16.2934 6.61895 16.1641 6.76304C16.1494 6.77972 16.1289 6.79944 16.1083 6.80399C15.5503 6.89955 14.9937 6.99358 14.4357 7.08914C14.3887 7.09672 14.3549 7.13161 14.3314 7.18317C14.3079 7.23474 14.2741 7.26963 14.2286 7.27721C13.6955 7.36821 13.1624 7.46074 12.6279 7.54719C12.5486 7.55933 12.4928 7.5942 12.4576 7.66396C12.4311 7.71553 12.3988 7.74285 12.3489 7.75043C11.8393 7.83537 11.3312 7.92484 10.8201 8.00675C10.7687 8.01433 10.7306 7.97034 10.7335 7.92939C10.735 7.90816 10.757 7.87329 10.7746 7.87026C11.0404 7.8202 11.3048 7.76863 11.572 7.73071C11.6616 7.71858 11.688 7.65184 11.7335 7.59572C11.7482 7.576 11.76 7.55022 11.7791 7.5396C11.7996 7.52747 11.8261 7.52899 11.851 7.52596C12.481 7.41827 13.1111 7.30907 13.7425 7.20745C13.8336 7.19228 13.8512 7.11795 13.8982 7.06487C13.9143 7.04666 13.929 7.01937 13.9481 7.01634C14.1419 6.97994 14.3358 6.94808 14.5296 6.91623C14.8689 6.85859 15.2081 6.80096 15.5488 6.74332C15.6472 6.72664 15.6472 6.72663 15.7735 6.58406C15.7882 6.56737 15.8087 6.54615 15.8278 6.54312C16.7251 6.38993 17.6224 6.23674 18.5197 6.08507C18.5666 6.07748 18.6004 6.0426 18.6239 5.99103C18.6474 5.94098 18.6812 5.90457 18.7267 5.89547C19.9397 5.6892 21.1512 5.48292 22.3643 5.27967C22.4436 5.26602 22.4993 5.23417 22.5346 5.16288C22.5596 5.11132 22.5933 5.08402 22.6433 5.07492C23.9767 4.84893 25.3101 4.62294 26.645 4.39543C27.5423 4.24376 28.4396 4.08905 29.3368 3.94041C29.4191 3.92676 29.4631 3.87973 29.5042 3.81755C29.5174 3.79631 29.5307 3.76143 29.5483 3.75839C29.7407 3.72047 29.933 3.6856 30.1254 3.65071C30.1856 3.69166 30.2458 3.73111 30.306 3.77206C30.3516 3.71442 30.3956 3.65527 30.4412 3.59763C30.7319 3.55364 31.0183 3.48539 31.312 3.46416C31.3311 3.46264 31.3516 3.49146 31.3722 3.50663C31.5088 3.60218 31.5866 3.5946 31.6733 3.46719C31.7041 3.42169 31.7305 3.38074 31.7775 3.37316C31.9229 3.34586 32.0698 3.32765 32.2137 3.2958C32.2915 3.27912 32.3561 3.29428 32.4119 3.34888C32.4516 3.38832 32.4927 3.40501 32.5412 3.39591C32.8085 3.35041 33.0742 3.30642 33.3415 3.25788C33.3606 3.25485 33.3782 3.22906 33.3929 3.21086C33.4237 3.17142 33.4502 3.12896 33.4796 3.08801C33.5192 3.1138 33.5633 3.13352 33.5956 3.16688C33.6367 3.20632 33.6749 3.20631 33.7307 3.19569C34.7968 3.01217 35.8644 2.8332 36.9306 2.64816C37.0216 2.63299 37.0613 2.6967 37.123 2.73007C37.1435 2.7422 37.1641 2.75736 37.1861 2.76039C37.2096 2.76343 37.2346 2.75433 37.2581 2.74978C38.0584 2.61328 38.8588 2.47828 39.6591 2.34178C39.7649 2.32357 39.7649 2.32357 39.922 2.41761C39.9411 2.42975 39.9661 2.4434 39.9866 2.43885C40.3508 2.3797 40.715 2.316 41.0777 2.25533C41.1247 2.24775 41.1644 2.27201 41.207 2.30689C41.2907 2.37515 41.2965 2.37515 41.3582 2.27505C41.3876 2.22803 41.4184 2.1992 41.4669 2.18555C41.5197 2.17038 41.5624 2.17495 41.6035 2.20225C41.6622 2.24017 41.7048 2.30386 41.7944 2.28718C42.1821 2.21589 42.5712 2.15674 42.9575 2.08394C43.0456 2.06726 43.0926 2.11882 43.1513 2.15674C43.1719 2.17039 43.1909 2.19163 43.213 2.19618C43.235 2.20073 43.2614 2.1901 43.2849 2.18555C43.7696 2.10364 44.2556 2.02327 44.7388 1.9353C44.8298 1.91862 44.8695 1.98383 44.9312 2.01719C44.9517 2.02933 44.9752 2.05057 44.9943 2.04754C45.2851 2.00052 45.5773 1.95045 45.8681 1.9004C45.9724 1.8822 45.9723 1.88372 46.1309 1.97624C46.15 1.98837 46.175 2.00051 46.1956 1.99748C46.5348 1.94136 46.8755 1.88372 47.2147 1.82608C47.319 1.80788 47.319 1.80789 47.62 1.88676C47.6421 1.89282 47.6656 1.90194 47.6876 1.8989C48.0753 1.83368 48.4644 1.76997 48.8521 1.7002C48.93 1.68655 48.9946 1.69868 49.0504 1.75328C49.09 1.79272 49.1311 1.80941 49.1796 1.80031C49.6158 1.72599 50.0534 1.65471 50.4881 1.57584C50.5718 1.56067 50.6261 1.59403 50.6848 1.63801C50.7039 1.65318 50.723 1.67442 50.7451 1.68048C50.7671 1.68655 50.7921 1.68048 50.8156 1.67593C51.2517 1.60161 51.6893 1.53184 52.124 1.45146C52.2121 1.43477 52.2591 1.48634 52.3179 1.52426C52.3384 1.53791 52.3604 1.56521 52.3781 1.56369C52.5484 1.53791 52.7188 1.51517 52.8876 1.47725C52.9787 1.45601 53.0183 1.52577 53.08 1.55914C53.1006 1.56976 53.1241 1.59252 53.1432 1.58948C53.5074 1.53033 53.8716 1.46815 54.2343 1.40445C54.2857 1.39535 54.3239 1.40899 54.365 1.44842C54.4193 1.50151 54.4825 1.52274 54.5618 1.50606C54.7307 1.47117 54.901 1.44691 55.0714 1.41809C55.1712 1.40141 55.1712 1.40142 55.4767 1.48028C55.4987 1.48635 55.5222 1.49545 55.5442 1.49241C55.835 1.44388 56.1272 1.39686 56.4165 1.34378C56.4944 1.32861 56.559 1.34226 56.6148 1.39686C56.6544 1.43629 56.6941 1.45299 56.744 1.44388C57.0113 1.39838 57.2771 1.35288 57.5444 1.30738C57.6413 1.29069 57.7382 1.26187 57.8351 1.26187C57.9056 1.26338 57.957 1.33618 58.0202 1.37258C58.0378 1.3832 58.0672 1.37108 58.0907 1.36805C58.4299 1.31041 58.7706 1.25732 59.1083 1.1921C59.1965 1.17542 59.2435 1.22698 59.3022 1.2649C59.3228 1.27855 59.3448 1.30586 59.3624 1.30434C59.4843 1.28766 59.6047 1.2649 59.7266 1.24518C59.872 1.22092 60.0188 1.20272 60.1627 1.16935C60.2802 1.14205 60.3243 1.274 60.4183 1.27855C60.4902 1.2831 60.5636 1.25732 60.6356 1.24518C60.781 1.22092 60.9264 1.19362 61.0718 1.17238C61.1232 1.1648 61.1628 1.14052 61.179 1.08592C61.1819 1.0753 61.157 1.05256 61.1408 1.03891C60.9455 0.884206 60.9455 0.884199 60.7487 0.917567C60.6268 0.938801 60.5064 0.960039 60.3845 0.978239C60.3639 0.981273 60.3404 0.96914 60.3199 0.960039C60.2611 0.934255 60.267 0.903923 60.3169 0.849321C60.3669 0.794719 60.405 0.727989 60.4476 0.665803C60.5078 0.705238 60.5666 0.744659 60.6268 0.784094C60.6753 0.77651 60.7237 0.767423 60.7722 0.75984C61.0145 0.720405 61.2568 0.67945 61.4991 0.643049C61.5167 0.640015 61.5388 0.670354 61.5593 0.685521C61.6181 0.729507 61.6709 0.767414 61.7561 0.75073C61.9735 0.706745 62.1923 0.674894 62.4096 0.636976C62.5051 0.620292 62.5051 0.620293 62.6725 0.71433C62.6916 0.724947 62.7165 0.737082 62.7371 0.734049C62.9559 0.699164 63.1732 0.66125 63.392 0.624849C63.439 0.617265 63.4846 0.636982 63.5184 0.680967C63.5316 0.699168 63.5286 0.729496 63.5844 0.978239C63.7577 1.17996 63.8767 1.15874 63.9971 1.14054C64.0485 1.13296 64.094 1.12536 64.1278 1.09503C64.1454 1.07835 64.1674 1.05408 64.1674 1.03436C64.1674 1.01919 64.1351 0.994918 64.1146 0.991885C63.9692 0.96155 63.8311 1.02526 63.6887 1.03891C63.6226 1.04498 63.5653 0.991893 63.5536 0.905439C63.5507 0.881172 63.5462 0.855389 63.5418 0.831121C63.5374 0.806854 63.5345 0.781071 63.5301 0.756803C63.4728 0.74922 63.4391 0.776516 63.4141 0.828085C63.3935 0.870553 63.3641 0.919089 63.3245 0.941839C63.2848 0.966107 63.2305 0.961565 63.1821 0.969149C63.1351 0.976732 63.0837 0.996448 63.0396 0.98583C62.9956 0.973697 62.9603 0.929704 62.9192 0.902403C62.9001 0.888752 62.8766 0.869042 62.8575 0.872076C62.6886 0.89786 62.5212 0.923635 62.3538 0.957003C62.2657 0.975204 62.2216 0.911511 62.1658 0.872076C62.1218 0.841741 62.0777 0.849315 62.0704 0.919085C62.0513 1.08592 62.1188 1.15569 62.2686 1.12384C62.392 1.09654 62.5036 1.092 62.6005 1.19514C62.6137 1.20879 62.6446 1.21485 62.6637 1.21182C62.7841 1.19362 62.903 1.17087 63.0234 1.15267C63.0455 1.14963 63.069 1.15569 63.0896 1.16176C63.3891 1.24366 63.3891 1.24519 63.4905 1.22698C63.5389 1.21788 63.5859 1.2103 63.5815 0.979758C63.674 0.732531 63.8209 0.71585 63.9633 0.679449C64.0558 0.656698 64.0955 0.723437 64.1557 0.758321C64.1762 0.770455 64.1983 0.794718 64.2174 0.791685C64.5331 0.741633 64.8474 0.68854 65.1616 0.632421C65.2145 0.623321 65.2527 0.632423 65.2938 0.671858C65.3466 0.72191 65.4054 0.753768 65.4891 0.735567C65.6565 0.699165 65.8269 0.67642 65.9972 0.646085C66.0839 0.630918 66.0839 0.630902 66.2586 0.724939C66.2777 0.735556 66.3027 0.747691 66.3232 0.744658C66.4936 0.718873 66.6625 0.687032 66.8314 0.65973C66.8784 0.652147 66.9209 0.673379 66.9576 0.71433C66.9944 0.755282 67.0384 0.776514 67.0839 0.76893C67.2543 0.741629 67.4232 0.711304 67.5921 0.684003C67.6126 0.68097 67.6376 0.691586 67.6567 0.702203C67.8358 0.79624 67.8358 0.796225 67.9181 0.781057C68.0385 0.758307 68.1618 0.747701 68.2808 0.717367C68.3968 0.687032 68.457 0.774995 68.5363 0.82353C68.7537 0.788646 68.9725 0.759835 69.1883 0.717367C69.2764 0.699166 69.3234 0.749214 69.3822 0.788649C69.4027 0.802299 69.4233 0.83112 69.4424 0.829603C69.5158 0.823536 69.5878 0.806855 69.6598 0.794721C69.7317 0.782588 69.8051 0.770455 69.8771 0.758321C69.9593 0.802306 70.0137 0.905442 70.1311 0.870558C70.2016 0.849324 70.2765 0.844773 70.3485 0.83264C70.4204 0.820506 70.4939 0.808373 70.5658 0.79624C70.6143 0.788656 70.6642 0.784099 70.7112 0.770449C70.7979 0.747698 70.8404 0.822026 70.9021 0.855394C70.9227 0.866011 70.9462 0.8842 70.9653 0.881167C71.1106 0.859932 71.2575 0.841733 71.3999 0.806848C71.5101 0.779547 71.585 0.825055 71.6628 0.888758C71.679 0.902408 71.7069 0.909991 71.7274 0.906958C71.8978 0.881173 72.0667 0.849313 72.2355 0.822012C72.2811 0.814428 72.3251 0.838695 72.3618 0.87813C72.4 0.919082 72.4426 0.938814 72.4896 0.93123C72.6585 0.903929 72.8288 0.873586 72.9977 0.846285C73.0183 0.843251 73.0432 0.855387 73.0623 0.867521C73.2268 0.961558 73.2268 0.963077 73.3237 0.944876C73.3472 0.940326 73.3722 0.93728 73.3957 0.93273C73.5161 0.911496 73.6409 0.903923 73.7584 0.867521C73.8935 0.82657 73.9919 0.878141 74.0874 0.964594C74.2078 0.946393 74.3311 0.935774 74.4486 0.905439C74.5367 0.882689 74.5837 0.940321 74.6425 0.978239C74.663 0.99189 74.685 1.01919 74.7027 1.01616C74.873 0.990373 75.0434 0.96763 75.2108 0.929712C75.3018 0.908478 75.3415 0.976718 75.4032 1.0116C75.4237 1.02374 75.4457 1.04498 75.4648 1.04195C75.5617 1.02981 75.6587 1.01161 75.7556 0.994921C75.8687 0.975204 75.8687 0.976719 76.0185 1.06924C76.089 1.11322 76.1595 1.07834 76.2285 1.06772C76.3019 1.05559 76.3709 1.04649 76.4297 1.10868C76.4664 1.14811 76.5104 1.17238 76.556 1.16631C76.6529 1.15266 76.7513 1.13902 76.8467 1.11627C76.9231 1.09807 76.9892 1.11019 77.045 1.16631C77.0846 1.20575 77.1258 1.22548 77.1742 1.21638C77.3916 1.17997 77.6104 1.14204 77.8277 1.10716C77.8468 1.10412 77.8732 1.11778 77.8908 1.13143C77.932 1.15873 77.9716 1.18906 78.0113 1.21939C78.1067 1.20574 78.2051 1.19969 78.2991 1.17846C78.399 1.15722 78.49 1.14964 78.5678 1.23306C78.584 1.25126 78.6075 1.27703 78.6266 1.27551C78.7 1.26945 78.772 1.25428 78.8439 1.24215C78.9159 1.23001 78.9893 1.21788 79.0613 1.20575C79.145 1.24367 79.1979 1.35287 79.3153 1.31798C79.3858 1.29675 79.4607 1.2922 79.5327 1.28007C79.6046 1.26793 79.6781 1.25428 79.75 1.24367C79.7735 1.24063 79.7999 1.23305 79.8205 1.23911C79.8425 1.24518 79.8616 1.26642 79.8807 1.28158C79.9394 1.32557 79.9938 1.36956 80.0775 1.34378C80.148 1.32254 80.2229 1.31799 80.2948 1.30434C80.3932 1.28766 80.3932 1.28766 80.5562 1.38321C80.6223 1.42265 80.6972 1.37108 80.7604 1.40445C80.8029 1.4272 80.8397 1.46511 80.8808 1.49089C80.8984 1.50151 80.9263 1.50605 80.9469 1.50302C81.0438 1.48937 81.1422 1.47573 81.2376 1.45298C81.3155 1.43477 81.3801 1.45297 81.4344 1.50758C81.4741 1.54701 81.5137 1.5637 81.5636 1.5546C81.8059 1.51213 82.0483 1.47572 82.2891 1.4287C82.3714 1.41202 82.4374 1.43781 82.4829 1.49241C82.5608 1.58645 82.6709 1.47573 82.7517 1.55157C82.8016 1.59859 82.8516 1.65319 82.9426 1.63044C83.11 1.591 83.2804 1.56976 83.4492 1.54246C83.5095 1.58341 83.5697 1.62437 83.6313 1.66532C83.7283 1.64864 83.8252 1.63194 83.9221 1.61678C83.9941 1.60464 84.0675 1.59099 84.1394 1.58038C84.1629 1.57734 84.1879 1.57127 84.2099 1.57886C84.232 1.58644 84.2496 1.60616 84.2702 1.62133C84.3715 1.69565 84.3715 1.69717 84.5389 1.66684C84.6108 1.65319 84.6799 1.64409 84.7401 1.70476C84.7959 1.76088 84.862 1.77149 84.9383 1.7548C85.0822 1.72447 85.2276 1.70172 85.3745 1.68048C85.42 1.6729 85.4626 1.69869 85.5008 1.73812C85.558 1.80031 85.6286 1.79424 85.7005 1.77756C85.796 1.75632 85.8899 1.73509 85.9707 1.82003C85.9869 1.83823 86.0118 1.864 86.0295 1.86248C86.1499 1.85035 86.2718 1.84126 86.3892 1.81244C86.5067 1.78362 86.564 1.87766 86.6448 1.92316C86.7652 1.90344 86.8871 1.88372 87.0075 1.864C87.031 1.85945 87.0589 1.84581 87.0794 1.85339C87.1661 1.88525 87.216 1.999 87.335 1.96411C87.404 1.94439 87.4789 1.93833 87.5508 1.93378C87.5699 1.93227 87.5949 1.95804 87.6081 1.97776C87.6155 1.98837 87.6081 2.01719 87.5993 2.03236C87.5729 2.07483 87.5406 2.11427 87.5171 2.15826C87.5141 2.16432 87.542 2.19161 87.5582 2.20375C87.5978 2.23105 87.6434 2.22651 87.6962 2.21438C87.7417 2.20376 87.7887 2.22499 87.8211 2.27049C87.8343 2.28869 87.8299 2.31903 87.8019 2.41913C87.8019 2.49345 87.8328 2.46007 87.8431 2.41154C87.8592 2.34177 87.8284 2.31902 87.7696 2.35694C87.7285 2.38424 87.708 2.42368 87.7183 2.45553C87.7241 2.47221 87.752 2.49345 87.8019 2.41913C87.9312 2.32813 88.0281 2.31145 88.1251 2.29477C88.15 2.29022 88.1794 2.27504 88.197 2.28414C88.2602 2.32054 88.3189 2.36453 88.3806 2.40548C88.4511 2.39638 88.5171 2.37362 88.5862 2.43278C88.6831 2.5162 88.6875 2.50861 88.7815 2.49193C88.8299 2.48283 88.8784 2.47526 88.9269 2.46768C88.9753 2.46009 89.0135 2.48284 89.0561 2.51772C89.1427 2.58901 89.1501 2.589 89.2073 2.49193C89.2411 2.43278 89.2646 2.41307 89.3072 2.44037C89.4482 2.53289 89.4496 2.53895 89.5701 2.51165C89.6699 2.4889 89.7639 2.48283 89.8373 2.56928C89.8873 2.62995 89.9034 2.61631 89.9431 2.5526C90.0488 2.38425 90.0973 2.38727 90.2955 2.50861C90.388 2.56625 90.4835 2.50407 90.5775 2.49648C90.6568 2.49042 90.7126 2.52681 90.7185 2.62237C90.7229 2.68152 90.7361 2.72399 90.789 2.74371C90.8095 2.7513 90.8345 2.76191 90.855 2.75888C90.9769 2.74067 91.0973 2.71944 91.2192 2.6982C91.2809 2.68759 91.3147 2.61631 91.3029 2.52228C91.2897 2.42217 91.3132 2.38576 91.4013 2.35694C91.4542 2.34026 91.4968 2.3433 91.5394 2.3706C91.5864 2.40094 91.5732 2.42824 91.532 2.48284C91.4336 2.61631 91.4454 2.6982 91.5717 2.79072C91.6157 2.82257 91.651 2.8514 91.6613 2.89842C91.6671 2.92269 91.6613 2.95454 91.6745 2.97274C91.7464 3.07436 91.8463 3.13959 91.9579 3.18812C92.0651 3.14717 92.1385 3.21541 92.2208 3.27001C92.2854 3.31248 92.3617 3.27609 92.4308 3.26092C92.5086 3.24424 92.5732 3.25637 92.629 3.31248C92.6687 3.35192 92.7098 3.37011 92.7582 3.36253C92.8552 3.34585 92.9536 3.33523 93.049 3.31097C93.1312 3.28973 93.1929 3.32007 93.2443 3.37164C93.309 3.43686 93.3809 3.39287 93.4485 3.40197C93.5395 3.41258 93.5851 3.54757 93.704 3.51117C93.7745 3.48993 93.8479 3.48235 93.9213 3.47628C93.9404 3.47477 93.9639 3.50056 93.9801 3.51876C94.0579 3.60218 94.149 3.59762 94.2488 3.57336C94.3178 3.55667 94.3854 3.54151 94.4529 3.59915C94.5645 3.69622 94.6879 3.78116 94.8054 3.87065C94.8216 3.94042 94.8098 4.02231 94.8935 4.06326C94.9375 4.08449 94.9787 4.11635 95.0125 4.15124C95.0536 4.19219 95.0917 4.20281 95.1446 4.19219C95.2401 4.17096 95.34 4.16639 95.4339 4.13909C95.5206 4.11483 95.5749 4.16489 95.6278 4.21191C95.6703 4.24983 95.71 4.26802 95.7614 4.24072C95.8143 4.21494 95.8524 4.23161 95.895 4.27257C95.9552 4.32868 95.9597 4.32263 96.1594 4.33931C96.1799 4.34083 96.2049 4.36357 96.2166 4.38328C96.2225 4.3939 96.2093 4.42425 96.199 4.43942C96.1858 4.45762 96.1652 4.47884 96.1461 4.48339C95.9288 4.52283 95.71 4.55771 95.4927 4.59715C95.4706 4.6017 95.4472 4.61233 95.431 4.62749C95.4134 4.64418 95.3913 4.66691 95.3913 4.68815C95.3913 4.70331 95.4207 4.72152 95.4412 4.73214C95.5059 4.76702 95.5822 4.71394 95.6454 4.75338C95.688 4.77916 95.7232 4.81555 95.7658 4.83982C95.7834 4.85044 95.8113 4.84893 95.8334 4.84589C95.9068 4.83528 95.9788 4.82011 96.0522 4.81101C96.0727 4.80949 96.0962 4.82467 96.1153 4.8368C96.2563 4.92781 96.2563 4.9278 96.3782 4.90808C96.4267 4.9005 96.4781 4.87775 96.5236 4.88685C96.5676 4.89595 96.6058 4.9369 96.6455 4.96268C96.7277 5.01729 96.8055 5.07037 96.8114 5.18867C96.8143 5.23418 96.8628 5.2736 96.9112 5.27664C96.9582 5.27967 97.0082 5.263 97.0566 5.2539C97.1712 5.2357 97.1712 5.2357 97.3195 5.32822C97.3606 5.354 97.4047 5.35703 97.4575 5.34187C97.4781 5.3358 97.5031 5.34187 97.5251 5.34946C97.5971 5.37221 97.5971 5.40102 97.5501 5.45562C97.484 5.53601 97.4898 5.54359 97.6749 5.61185C97.7454 5.63763 97.7997 5.68617 97.8584 5.72864C97.9539 5.79689 97.9525 5.79688 97.8893 5.88637C97.8746 5.90608 97.8614 5.92732 97.8467 5.94856C97.8041 6.00771 97.7703 6.07141 97.6822 6.07747C97.5853 6.08354 97.4884 6.10782 97.3915 6.1245C97.2975 6.14119 97.2725 6.17757 97.2813 6.28071C97.2916 6.40508 97.3107 6.41874 97.4796 6.41722C97.5281 6.41722 97.5706 6.42935 97.6073 6.4703C97.5897 6.51884 97.5574 6.55676 97.5104 6.56586C97.39 6.58861 97.2681 6.60833 97.1477 6.62805C97.0508 6.64473 96.9539 6.66141 96.8569 6.67809C96.7967 6.68871 96.7585 6.76759 96.7747 6.85556C96.7835 6.90561 96.7908 6.95566 96.7982 7.00571C96.8143 7.10581 96.8452 7.13161 96.9436 7.12706C96.9685 7.12554 96.992 7.1134 97.0155 7.11643C97.111 7.12705 97.1565 7.25293 97.271 7.22715C97.3665 7.20591 97.4664 7.20137 97.5604 7.17407C97.647 7.1498 97.6954 7.20441 97.7557 7.24537C97.7762 7.25902 97.7983 7.28782 97.8159 7.2863C97.9378 7.26962 98.0597 7.25295 98.1786 7.22413C98.2344 7.212 98.2682 7.22109 98.3122 7.25749C98.418 7.34546 98.4209 7.34091 98.578 7.31361C98.6926 7.29238 98.6941 7.29541 98.8409 7.38793C98.882 7.41371 98.9261 7.41371 98.979 7.40157C99.048 7.38641 99.1199 7.36214 99.1919 7.38489C99.2139 7.39096 99.2418 7.40917 99.2492 7.42888C99.2536 7.44253 99.233 7.4759 99.2154 7.48652C99.0862 7.56539 98.9349 7.55174 98.7939 7.58359C98.7499 7.59269 98.7058 7.56387 98.6691 7.52292C98.6309 7.48197 98.5898 7.46529 98.5399 7.47287C98.4429 7.48956 98.3446 7.50017 98.2491 7.52444C98.1669 7.54567 98.1096 7.51078 98.0523 7.46377C98.0332 7.4486 98.0112 7.41978 97.9921 7.42129C97.7748 7.45163 97.556 7.48197 97.3401 7.52444C97.2534 7.54264 97.2035 7.49411 97.1448 7.45316C97.1242 7.43951 97.1037 7.41069 97.0846 7.4122C97.0111 7.41827 96.9392 7.43495 96.8658 7.44708C96.5985 7.49259 96.3326 7.53809 96.0654 7.58056C96.0478 7.58359 96.0257 7.55173 96.0052 7.53808C95.9655 7.51078 95.9244 7.48499 95.8833 7.45921C95.8099 7.47134 95.7379 7.48651 95.6645 7.49561C95.6116 7.50168 95.5646 7.52292 95.5573 7.58056C95.5529 7.61847 95.6013 7.65335 95.6527 7.65032C95.7027 7.64729 95.7526 7.62908 95.7937 7.6488C95.9978 7.74587 95.9978 7.74739 96.1256 7.72767C96.2372 7.70947 96.2254 7.6943 96.3238 7.77772C96.3664 7.81412 96.4046 7.83537 96.4531 7.82627C96.5735 7.80503 96.6954 7.78379 96.8173 7.76559C96.8364 7.76256 96.8613 7.77773 96.8804 7.78987C97.0243 7.88087 97.0243 7.8839 97.1433 7.86115C97.299 7.83385 97.3048 7.82626 97.4091 7.91878C97.4811 7.98249 97.5471 7.9385 97.6161 7.93546C97.6954 7.99462 97.7821 8.04771 97.8541 8.11445C97.9392 8.19332 98.0288 8.17965 98.1257 8.1569C98.1977 8.14022 98.2682 8.13415 98.3269 8.19634C98.3827 8.25397 98.4503 8.26005 98.5266 8.24488C98.5957 8.23123 98.6662 8.20241 98.7381 8.23577C98.7572 8.24487 98.7866 8.26763 98.7851 8.28128C98.7836 8.30252 98.7645 8.33286 98.7454 8.34196C98.6103 8.40414 98.462 8.40262 98.3196 8.43144C98.3005 8.43599 98.2755 8.4193 98.2564 8.40717C98.2153 8.37986 98.1757 8.34802 98.136 8.3192C98.0641 8.3283 97.9906 8.33133 97.9202 8.34953C97.8658 8.36318 97.8247 8.36168 97.785 8.32527C97.7483 8.29191 97.7087 8.25095 97.6646 8.24033C97.6206 8.22971 97.5692 8.25246 97.5207 8.26157C97.4723 8.27067 97.4165 8.26611 97.3783 8.29037C97.3401 8.31464 97.3166 8.36773 97.2916 8.4102C97.2637 8.45722 97.2255 8.4724 97.1697 8.47695C97.1183 8.4815 97.0772 8.47542 97.039 8.43296C97.0229 8.41476 97.0008 8.4011 96.9788 8.38896C96.9582 8.37835 96.9348 8.36166 96.9157 8.36469C96.6968 8.39958 96.4795 8.43751 96.2607 8.47391C96.152 8.49211 96.1535 8.4921 95.9273 8.40261C95.9068 8.39503 95.8818 8.38441 95.8613 8.38745C95.7394 8.40565 95.619 8.42689 95.4971 8.44812C95.3737 8.46935 95.3752 8.46632 95.1652 8.37076C95.127 8.35256 95.0712 8.37683 95.0257 8.3738C94.9302 8.36622 94.8832 8.23882 94.7716 8.26308C94.6762 8.28432 94.5763 8.28886 94.4808 8.31616C94.3942 8.34043 94.3443 8.28735 94.2855 8.2464C94.265 8.23275 94.2429 8.20241 94.2253 8.20545C94.0065 8.23881 93.7892 8.27673 93.4984 8.28128C93.4264 8.28128 93.4587 8.31314 93.5057 8.32376C93.5733 8.34044 93.5953 8.30859 93.5586 8.24792C93.5322 8.20545 93.494 8.1842 93.4631 8.19482C93.447 8.20089 93.4264 8.22971 93.4984 8.28128C93.5748 8.33892 93.5704 8.37076 93.5836 8.38896C93.6159 8.43295 93.6614 8.45115 93.7084 8.44508C93.7818 8.43447 93.8538 8.4193 93.9272 8.4102C93.9478 8.40717 93.9727 8.41779 93.9918 8.42992C94.1534 8.52396 94.1548 8.53003 94.3267 8.49363C94.381 8.48301 94.4206 8.48301 94.4632 8.51183C94.522 8.55126 94.5646 8.61799 94.6541 8.59676C94.7731 8.56794 94.895 8.55127 95.0169 8.53458C95.0359 8.53155 95.0565 8.55885 95.0785 8.57098C95.1387 8.60738 95.1828 8.67564 95.2724 8.64682C95.3414 8.62407 95.4163 8.61799 95.4897 8.61344C95.5088 8.61192 95.5382 8.63619 95.547 8.65591C95.5646 8.69079 95.5426 8.73176 95.4927 8.76057C95.4721 8.77271 95.4442 8.76967 95.4207 8.77422C95.3238 8.7909 95.2269 8.8091 95.1299 8.82275C95.0785 8.83033 95.0301 8.85309 95.0242 8.90921C95.0198 8.94713 95.0727 8.98049 95.1226 8.97746C95.196 8.97291 95.2694 8.96077 95.3399 8.94106C95.4648 8.90769 95.5734 8.91678 95.6748 9.01234C95.7467 9.07907 95.7423 9.05482 95.8187 9.25199C95.8378 9.30204 95.8951 9.30659 95.945 9.30356C96.0654 9.29597 96.1212 9.31873 96.1109 9.36575C96.0977 9.42338 96.0551 9.44157 96.0008 9.44916C95.9038 9.46129 95.8069 9.48102 95.71 9.4977C95.6865 9.50225 95.6601 9.51134 95.638 9.50831C95.616 9.50528 95.5955 9.48708 95.5764 9.47343C95.5353 9.44461 95.5 9.40062 95.4559 9.39C95.4119 9.37938 95.3605 9.40214 95.312 9.41124C95.2636 9.41882 95.2122 9.44157 95.1681 9.43096C95.1241 9.42034 95.0873 9.37485 95.0477 9.34755C95.0286 9.3339 95.0051 9.31265 94.986 9.31416C94.8891 9.3263 94.7922 9.34602 94.6953 9.36119C94.5763 9.38091 94.5763 9.38091 94.4324 9.28687C94.3913 9.25957 94.3487 9.2611 94.2944 9.27323C94.1769 9.2975 94.1754 9.29293 93.961 9.20496C93.9404 9.19586 93.9154 9.18525 93.8949 9.1898C93.6761 9.22469 93.4587 9.2626 93.2414 9.299C93.0549 9.33085 93.0549 9.33086 92.9521 9.48254C92.8757 9.59478 92.8743 9.59477 92.9492 9.64634C93.0094 9.68881 93.0637 9.75099 93.1298 9.77374C93.1915 9.79497 93.2678 9.72672 93.3354 9.79649C93.3692 9.83138 93.4132 9.8693 93.4558 9.87536C93.5233 9.88295 93.5953 9.83896 93.6599 9.90569C93.6922 9.93906 93.7407 9.97396 93.7818 9.97547C93.8538 9.97851 93.9272 9.95423 93.9992 9.94361C94.0212 9.94058 94.0462 9.94058 94.0667 9.94816C94.0888 9.95726 94.1078 9.97547 94.1269 9.99064C94.1857 10.0422 94.2488 10.0665 94.3252 10.0407C94.45 9.99821 94.5616 10.0194 94.6585 10.1165C94.6718 10.1302 94.7041 10.1317 94.7246 10.1256C94.7775 10.1105 94.823 10.1089 94.8627 10.1378C94.8788 10.1499 94.9023 10.1711 94.8994 10.1848C94.895 10.2075 94.8773 10.2379 94.8582 10.2454C94.7202 10.297 94.5719 10.3031 94.4295 10.3304C94.4104 10.3334 94.3869 10.3137 94.3678 10.3C94.3267 10.2727 94.2914 10.2272 94.2474 10.2166C94.2033 10.206 94.1519 10.2257 94.1034 10.2333C94.055 10.2409 94.0036 10.2636 93.9595 10.2545C93.9155 10.2439 93.8743 10.206 93.8391 10.1726C93.798 10.1347 93.7583 10.1302 93.704 10.1453C93.6335 10.1651 93.5601 10.1681 93.4881 10.1787C93.4485 10.1499 93.4088 10.118 93.3677 10.0907C93.3486 10.0771 93.3251 10.0604 93.3046 10.0619C93.2076 10.0741 93.1107 10.0922 93.0138 10.1089C92.9168 10.1256 92.9169 10.1256 92.7524 10.0316C92.7333 10.021 92.7083 10.0088 92.6878 10.0119C92.5659 10.0301 92.4454 10.0528 92.3236 10.071C92.2766 10.0786 92.234 10.0574 92.1958 10.0164C92.1591 9.97546 92.115 9.95271 92.0695 9.96029C91.8757 9.99214 91.6818 10.0225 91.488 10.0604C91.4101 10.0756 91.344 10.0619 91.2912 10.0073C91.2295 9.94513 91.1605 9.9603 91.0885 9.97244C90.9255 10.0028 90.9241 10.0012 90.8198 9.92389C90.7992 9.90872 90.7787 9.8799 90.7596 9.88142C90.5907 9.90417 90.4204 9.92541 90.253 9.96181C90.1648 9.98153 90.1178 9.92844 90.0591 9.88901C90.0385 9.87536 90.0165 9.84654 89.9989 9.84957C89.877 9.86626 89.7551 9.88143 89.6361 9.91177C89.5172 9.9421 89.4717 9.80105 89.3821 9.80256C89.2602 9.80408 89.1398 9.83897 89.0194 9.8602C88.9224 9.87689 88.8255 9.89356 88.7286 9.91025C88.6317 9.92693 88.5348 9.94057 88.4378 9.96029C88.3864 9.97091 88.3483 9.95726 88.3057 9.91934C88.2514 9.86929 88.1867 9.82987 88.128 9.78436C88.0384 9.71915 88.0384 9.71914 87.9297 9.73734C87.9062 9.74189 87.8813 9.74491 87.8578 9.74946C87.6801 9.78283 87.6801 9.77981 87.4539 9.68426C87.4436 9.67971 87.4172 9.69639 87.4069 9.70853C87.3761 9.74796 87.3482 9.79042 87.3203 9.83137C87.2807 9.80711 87.2322 9.79346 87.2058 9.75857C87.1309 9.65999 87.0134 9.79497 86.937 9.6979C86.9091 9.6615 86.8606 9.62965 86.8166 9.62055C86.771 9.61145 86.7197 9.63268 86.6727 9.64178C86.5508 9.66453 86.5508 9.66302 86.4465 9.79801C86.3936 9.86475 86.3173 9.85261 86.2483 9.86777C86.1763 9.88446 86.1073 9.89356 86.0471 9.83137C85.9927 9.77526 85.9267 9.76161 85.8488 9.77981C85.7534 9.80256 85.655 9.81621 85.5581 9.82986C85.5375 9.83289 85.5125 9.82531 85.492 9.81621C85.2673 9.72672 85.2673 9.72521 85.1586 9.74493C85.1101 9.75403 85.0602 9.75705 85.0132 9.7707C84.9339 9.79497 84.8737 9.76312 84.8165 9.71458C84.7974 9.69942 84.7753 9.67061 84.7562 9.67213C84.6593 9.67971 84.5639 9.69336 84.4684 9.70701C84.395 9.71763 84.3215 9.72369 84.2511 9.74493C84.1336 9.77981 84.0763 9.68121 83.9955 9.63571C83.8751 9.65543 83.7532 9.66908 83.6328 9.69638C83.577 9.70852 83.5403 9.70398 83.4977 9.66757C83.4434 9.62207 83.3934 9.57051 83.3053 9.59326C83.1878 9.62359 83.0645 9.63421 82.9441 9.65241C82.8633 9.60539 82.8046 9.50983 82.6886 9.54471C82.6181 9.56594 82.5432 9.57049 82.4712 9.58263C82.3743 9.59931 82.2774 9.61449 82.1805 9.63269C82.0762 9.65089 82.0776 9.64634 81.9176 9.55686C81.8251 9.50377 81.7296 9.56292 81.6356 9.57202C81.5622 9.5796 81.5255 9.64937 81.5431 9.73886C81.5607 9.82834 81.521 9.89811 81.4535 9.91025C81.2846 9.93906 81.1143 9.96939 80.9454 9.99517C80.9248 9.99821 80.8999 9.98759 80.8808 9.97697C80.7002 9.88142 80.7001 9.88295 80.6194 9.8966C80.499 9.91935 80.3756 9.93147 80.2567 9.96029C80.1744 9.98001 80.1142 9.94817 80.0613 9.8966C80.0202 9.85717 79.982 9.84806 79.9292 9.85716C79.3476 9.95879 78.7661 10.0528 78.186 10.1575C78.0994 10.1726 78.0495 10.1287 77.9907 10.0877C77.9702 10.0741 77.951 10.0452 77.9305 10.0452C77.882 10.0452 77.8336 10.0589 77.7851 10.068C77.5678 10.1044 77.3504 10.1484 77.1316 10.1757C77.0391 10.1878 77.0141 10.2576 76.9745 10.3152C76.9436 10.3592 76.9084 10.3774 76.8541 10.3835C76.8012 10.3895 76.763 10.3819 76.7219 10.3425C76.669 10.2909 76.6088 10.2591 76.5266 10.2803C76.4312 10.3046 76.3342 10.3152 76.2358 10.3319C76.1859 10.3395 76.1477 10.3668 76.1315 10.4214C76.1286 10.4305 76.1595 10.4532 76.1771 10.4669C76.2358 10.5124 76.2916 10.5655 76.3577 10.5973C76.4253 10.6292 76.4987 10.5928 76.5692 10.5837C76.5941 10.5806 76.6176 10.5715 76.6411 10.5731C76.6631 10.5746 76.6896 10.5822 76.7058 10.5958C76.7821 10.6641 76.8629 10.7111 76.9686 10.6701C77.0596 10.6898 77.1067 10.8157 77.2227 10.7824C77.2932 10.7626 77.3666 10.7535 77.44 10.746C77.4591 10.7444 77.4797 10.7717 77.5002 10.7854C77.559 10.8233 77.606 10.884 77.6941 10.8582C77.7881 10.8309 77.8879 10.8264 77.9834 10.8051C78.0362 10.793 78.0744 10.8036 78.1155 10.843C78.1684 10.8931 78.2286 10.931 78.3109 10.9067C78.3813 10.8855 78.4562 10.8809 78.5282 10.8673C78.6222 10.8506 78.6222 10.8521 78.7896 10.9462C78.8087 10.9568 78.8336 10.9689 78.8542 10.9659C78.9761 10.9477 79.0965 10.9249 79.2184 10.9067C79.2654 10.8991 79.3109 10.9189 79.3432 10.9628C79.3565 10.981 79.352 11.0114 79.3564 11.0372C79.1141 11.0781 78.8718 11.113 78.631 11.1631C78.5399 11.1828 78.4988 11.1206 78.4386 11.0857C78.418 11.0736 78.396 11.0478 78.3769 11.0508C78.2066 11.0766 78.0377 11.1039 77.8688 11.1373C77.816 11.1479 77.7763 11.1418 77.7367 11.0978C77.6353 10.981 77.512 11.0448 77.3974 11.0614C77.3093 11.0736 77.2814 11.1206 77.2917 11.2207C77.3049 11.339 77.3578 11.3754 77.4929 11.3542C77.5413 11.3466 77.5898 11.336 77.6383 11.3299C77.6852 11.3238 77.7279 11.3435 77.766 11.3845C77.8027 11.4255 77.8468 11.4467 77.8923 11.4406C77.9892 11.427 78.0876 11.4133 78.1816 11.3906C78.2594 11.3724 78.3241 11.3875 78.3784 11.4437C78.4386 11.5058 78.5091 11.4922 78.5796 11.4785C78.7441 11.4482 78.7455 11.4497 78.8483 11.5256C78.8689 11.5407 78.8895 11.5696 78.9086 11.568C79.0774 11.5453 79.2478 11.5256 79.4137 11.4892C79.5004 11.471 79.5503 11.5195 79.6076 11.5589C79.6281 11.5726 79.6487 11.6029 79.6678 11.5999C79.7897 11.5832 79.9115 11.5665 80.0305 11.5377C80.0863 11.524 80.1201 11.5331 80.1656 11.5695C80.2743 11.659 80.2772 11.656 80.4314 11.6272C80.4784 11.6181 80.5298 11.6014 80.5738 11.6135C80.6179 11.6257 80.6532 11.6697 80.6943 11.697C80.7134 11.7091 80.7369 11.7258 80.7574 11.7227C80.8543 11.7106 80.9513 11.6924 81.0482 11.6757C81.1392 11.659 81.1392 11.6606 81.3096 11.7546C81.3786 11.794 81.4506 11.7607 81.5196 11.7485C81.5945 11.7349 81.662 11.7349 81.7193 11.794C81.7766 11.8532 81.8456 11.8501 81.919 11.838C81.9881 11.8259 82.0585 11.7925 82.129 11.8335C82.2906 11.9275 82.2906 11.929 82.3904 11.9108C82.5358 11.885 82.6797 11.8608 82.8266 11.838C82.8457 11.835 82.8706 11.8532 82.8897 11.8653C82.9308 11.8926 82.9661 11.9381 83.0102 11.9487C83.0542 11.9609 83.1056 11.9427 83.1526 11.9336C83.3039 11.9047 83.3141 11.8941 83.4155 11.9942C83.5006 12.0761 83.6064 11.9578 83.6857 12.0519C83.7312 12.1049 83.7929 12.1474 83.878 12.1216C83.9485 12.1004 84.022 12.0943 84.0954 12.0822C84.2114 12.0625 84.2114 12.064 84.3583 12.155C84.3773 12.1671 84.4023 12.1823 84.4214 12.1793C84.5183 12.1671 84.6167 12.1565 84.7107 12.1292C84.8209 12.0974 84.8913 12.155 84.9736 12.2111C85.0382 12.2551 85.1146 12.2187 85.1836 12.2035C85.2585 12.1884 85.326 12.1929 85.3818 12.2521C85.4406 12.3127 85.5096 12.3052 85.583 12.293C85.652 12.2824 85.7225 12.2475 85.793 12.29C85.9443 12.384 85.9443 12.384 86.0544 12.3658C86.1513 12.3491 86.2483 12.3309 86.3452 12.3188C86.3643 12.3158 86.3878 12.3355 86.4068 12.3491C86.448 12.3764 86.4832 12.4219 86.5273 12.4326C86.5713 12.4432 86.6227 12.4235 86.6712 12.4159C86.7197 12.4083 86.771 12.3855 86.8151 12.3946C86.8592 12.4037 86.9003 12.4417 86.9355 12.475C86.9767 12.5145 87.0148 12.519 87.0706 12.5038C87.1411 12.4841 87.2145 12.4796 87.2865 12.469C87.3261 12.4978 87.3673 12.5266 87.4055 12.5584C87.4451 12.5918 87.4877 12.5888 87.542 12.5782C87.7226 12.5418 87.7241 12.5463 87.8754 12.6404C87.9444 12.6828 88.0164 12.6479 88.0854 12.6373C88.1588 12.6252 88.2278 12.6191 88.2851 12.6798C88.3409 12.7374 88.4099 12.745 88.4834 12.7268C88.5304 12.7147 88.5803 12.7071 88.6288 12.7025C88.6508 12.701 88.6772 12.7071 88.6934 12.7192C88.7712 12.7829 88.8476 12.8406 88.9548 12.7996C89.0487 12.8118 89.0957 12.9361 89.2088 12.9119C89.3043 12.8906 89.4041 12.8861 89.4981 12.8588C89.5848 12.8345 89.6464 12.877 89.6905 12.9301C89.7698 13.0241 89.8814 12.8967 89.9607 12.9892C90.0062 13.0423 90.065 13.0848 90.1531 13.062C90.25 13.0377 90.2808 13.0696 90.3087 13.1651C90.3249 13.2197 90.322 13.2637 90.2926 13.3062C90.2632 13.3502 90.2309 13.3426 90.1839 13.2926C90.1296 13.2364 90.065 13.2258 89.9871 13.2379C89.9108 13.2501 89.8638 13.1712 89.8006 13.1409C89.7375 13.109 89.6626 13.1621 89.5965 13.1212C89.4409 13.0256 89.4409 13.0256 89.3351 13.0438C89.2632 13.0559 89.1883 13.062 89.1178 13.0832C89.0341 13.109 88.9797 13.062 88.9225 13.0195C88.9019 13.0044 88.8813 12.9755 88.8637 12.9771C88.6948 12.9998 88.5245 13.0211 88.3571 13.059C88.269 13.0787 88.222 13.0241 88.1632 12.9862C88.1427 12.9725 88.1206 12.9452 88.103 12.9483C87.9576 12.9695 87.8137 12.9968 87.6683 13.0226C87.6404 13.0635 87.6096 13.103 87.5831 13.1469C87.5552 13.1924 87.5171 13.2122 87.4613 13.2106C87.3688 13.2106 87.2777 13.2744 87.1852 13.194C87.0897 13.1121 87.0824 13.1166 86.9899 13.1363C86.8724 13.1621 86.7476 13.156 86.6374 13.2152C86.6183 13.2258 86.5978 13.2546 86.5978 13.2759C86.5963 13.2895 86.6271 13.3092 86.6462 13.3214C86.7109 13.3578 86.7857 13.3047 86.8503 13.3426C86.8929 13.3669 86.9282 13.4033 86.9708 13.429C86.9884 13.4397 87.0148 13.4382 87.0383 13.4366C87.0633 13.4351 87.0868 13.4245 87.1103 13.426C87.1323 13.4275 87.1558 13.4366 87.1735 13.4503C87.2542 13.5079 87.3394 13.561 87.4113 13.6293C87.4818 13.696 87.5479 13.6505 87.6184 13.6475C87.9003 13.7536 87.9004 13.7551 88.0898 13.7218C88.1368 13.7142 88.1853 13.7051 88.2337 13.7066C88.2543 13.7066 88.2734 13.7339 88.2939 13.7491C88.3527 13.7946 88.4085 13.8355 88.4907 13.8113C88.5612 13.79 88.6361 13.7855 88.7081 13.7718C88.805 13.7551 88.805 13.7551 88.9695 13.8507C89.0106 13.875 89.0546 13.8719 89.1075 13.8598C89.153 13.8492 89.2 13.8719 89.2323 13.9159C89.2455 13.9341 89.2411 13.9645 89.2455 13.9902C89.1001 14.0145 88.9533 14.0312 88.8123 14.0676C88.7213 14.0904 88.6801 14.0251 88.6199 13.9902C88.5994 13.9781 88.5774 13.9523 88.5583 13.9554C88.4144 13.9781 88.2704 14.0039 88.1265 14.0342C88.1089 14.0373 88.0869 14.0721 88.0854 14.0934C88.0825 14.1328 88.1192 14.1707 88.172 14.1692C88.2425 14.1677 88.3116 14.1419 88.3747 14.2041C88.4276 14.2587 88.4936 14.283 88.5715 14.2587C88.6185 14.2451 88.6684 14.2451 88.7154 14.2329C88.8402 14.1965 88.9533 14.2041 89.0473 14.3072C89.1192 14.3345 89.1897 14.3088 89.2588 14.2951C89.3102 14.2845 89.3601 14.2739 89.3968 14.3027C89.4746 14.3633 89.551 14.424 89.6582 14.3831C89.7742 14.4255 89.8623 14.515 89.9593 14.5878C90.0048 14.6227 90.04 14.6424 90.0929 14.6197C90.1149 14.6106 90.1413 14.6106 90.1648 14.606C90.2133 14.5984 90.2647 14.5757 90.3087 14.5848C90.3528 14.5954 90.3895 14.6394 90.4292 14.6667C90.4483 14.6803 90.4703 14.7031 90.4894 14.7016C90.5628 14.694 90.6348 14.6788 90.7067 14.6667C90.7787 14.6561 90.8506 14.6455 90.9226 14.6349C90.9828 14.6743 91.0445 14.7137 91.1047 14.7532C91.2016 14.7365 91.2986 14.7198 91.394 14.7046C91.5012 14.6864 91.5012 14.6879 91.6554 14.782C91.7244 14.8244 91.7978 14.7971 91.8639 14.7774C91.9741 14.7456 92.0475 14.8032 92.1253 14.8639C92.1415 14.876 92.1708 14.8836 92.1899 14.8775C92.2663 14.8563 92.3324 14.873 92.3882 14.9291C92.4278 14.9685 92.4675 14.9867 92.5159 14.9792C92.6848 14.9503 92.8537 14.92 93.0226 14.8942C93.0431 14.8912 93.0666 14.9048 93.0857 14.917C93.2355 15.0095 93.237 15.014 93.3471 14.9898C93.4455 14.9685 93.5366 14.9594 93.6144 15.0428C93.6306 15.061 93.6555 15.0868 93.6731 15.0853C93.7936 15.0702 93.9155 15.0535 94.0344 15.0277C94.0888 15.0155 94.1269 15.0201 94.1695 15.055C94.2239 15.099 94.2723 15.1521 94.3619 15.1323C94.6101 15.0762 94.6115 15.0853 94.9053 15.19C94.9258 15.1975 94.9537 15.1854 94.9772 15.1794C95.0271 15.1642 95.0638 15.1854 95.1079 15.2203C95.2063 15.2992 95.2092 15.2946 95.3032 15.2779C95.3752 15.2643 95.4501 15.2613 95.5206 15.2385C95.6292 15.2051 95.7012 15.2643 95.782 15.3204C95.8466 15.3644 95.9215 15.328 95.9905 15.3143C96.0654 15.2992 96.1329 15.3037 96.1887 15.3614C96.2269 15.4008 96.268 15.422 96.3165 15.4145C96.4854 15.3872 96.6543 15.3568 96.8232 15.3295C96.8437 15.3265 96.8687 15.3386 96.8878 15.3492C97.0552 15.4433 97.0552 15.4478 97.2211 15.4129C97.274 15.4023 97.318 15.3993 97.3577 15.4311C97.3959 15.4615 97.437 15.4903 97.4766 15.5191C97.5486 15.5085 97.622 15.5055 97.6925 15.4873C97.7469 15.4736 97.785 15.4797 97.8276 15.5115C97.8834 15.5525 97.9304 15.6237 98.0185 15.5889C98.064 15.5722 98.1169 15.5767 98.1624 15.5616C98.2168 15.5419 98.2535 15.554 98.2961 15.5934C98.349 15.6404 98.4033 15.689 98.4884 15.6647C98.5824 15.6374 98.6823 15.6329 98.7777 15.6116C98.8306 15.5995 98.8673 15.6116 98.9099 15.6511C98.9628 15.7011 99.023 15.733 99.1053 15.7132C99.2727 15.6753 99.2741 15.6829 99.4371 15.7785C99.4782 15.8027 99.5223 15.7997 99.5752 15.7876C99.6207 15.7769 99.6677 15.7997 99.7 15.8437C99.7308 15.8922 99.7279 15.9225 99.7308 15.9483ZM86.6448 2.26898C86.5963 2.27656 86.5478 2.28566 86.4773 2.1537C86.4729 2.13095 86.4759 2.10366 86.4656 2.08394C86.4421 2.04299 86.4054 2.01417 86.3614 2.00962C86.2821 2.00355 86.1866 2.05511 86.188 2.09455C86.1895 2.12792 86.2145 2.15673 86.2629 2.18403C86.2835 2.19465 86.2997 2.21285 86.3188 2.22498C86.3746 2.25987 86.4186 2.32813 86.4994 2.29325C86.4847 2.19921 86.492 2.24623 86.4994 2.29325C86.492 2.35088 86.5141 2.39184 86.5669 2.40852C86.5816 2.41307 86.6037 2.41003 86.6154 2.40093C86.6609 2.36756 86.6683 2.32207 86.6345 2.20225C86.6286 2.22197 86.633 2.25684 86.6462 2.26594C86.6595 2.27504 86.6917 2.26747 86.7079 2.25685C86.749 2.22803 86.7696 2.19011 86.7593 2.15826C86.7534 2.14157 86.7255 2.12034 86.7079 2.12034C86.6771 2.12034 86.6492 2.1537 86.6448 2.26898ZM98.5193 19.8585C98.4121 19.8873 98.2887 19.8767 98.1815 19.9358C98.1625 19.9464 98.1434 19.9737 98.1419 19.995C98.1404 20.0086 98.1698 20.0283 98.1874 20.039C98.2271 20.0632 98.2711 20.0556 98.3225 20.048C98.4004 20.0374 98.4459 20.1072 98.5061 20.1421C98.5252 20.1527 98.5501 20.1603 98.5707 20.1572C98.6896 20.139 98.8071 20.1193 98.9261 20.0981C98.9466 20.0936 98.9687 20.0829 98.9863 20.0693C99.045 20.0253 99.0392 19.9965 98.9819 19.9631C98.9187 19.9267 98.8688 19.866 98.8042 19.8372C98.7117 19.7963 98.6177 19.8509 98.5193 19.8585ZM90.1795 20.9657C90.1076 20.9778 90.037 20.9899 89.9651 21.0021C89.9416 21.0066 89.9166 21.0081 89.8946 21.0142C89.8491 21.0248 89.8153 21.0567 89.7933 21.1067C89.8271 21.1462 89.8682 21.1689 89.9137 21.1644C89.9857 21.1553 90.0562 21.1355 90.1281 21.131C90.2059 21.1249 90.2515 21.1932 90.3117 21.2281C90.3308 21.2387 90.3543 21.2402 90.3763 21.2417C90.485 21.2478 90.551 21.1689 90.5305 21.0582C90.5158 20.9717 90.46 20.9202 90.3925 20.9308C90.322 20.9414 90.25 20.9535 90.1795 20.9657ZM99.0215 17.6167C99.0392 17.5909 99.0583 17.5728 99.0671 17.55C99.0935 17.4726 99.0832 17.415 99.0347 17.3543C98.976 17.28 98.9041 17.3301 98.838 17.3377C98.8218 17.3392 98.8042 17.371 98.7954 17.3907C98.7895 17.4044 98.7895 17.4332 98.7983 17.4408C98.8703 17.5015 98.9466 17.5576 99.0215 17.6167ZM86.282 13.1363C86.2116 13.1485 86.1396 13.1576 86.0691 13.1742C86.0515 13.1788 86.0353 13.2076 86.025 13.2273C86.006 13.2637 86.0265 13.3138 86.0867 13.3183C86.1557 13.3244 86.2277 13.2986 86.2996 13.2865C86.3907 13.2713 86.445 13.2152 86.4113 13.1667C86.379 13.1196 86.3349 13.1105 86.282 13.1363ZM8.98005 9.89508C9.02704 9.8875 9.0755 9.88143 9.12249 9.87081C9.16655 9.86019 9.20035 9.82683 9.22238 9.77677C9.18567 9.73734 9.14453 9.71611 9.09901 9.72066C9.02705 9.72976 8.95657 9.74189 8.88608 9.75706C8.84202 9.76616 8.79945 9.79952 8.78917 9.85109C8.77889 9.89053 8.87725 9.91328 8.98005 9.89508ZM80.0716 9.6615C80.0907 9.67515 80.1098 9.70246 80.1289 9.70246C80.1759 9.70246 80.2244 9.69335 80.2684 9.67818C80.2875 9.67212 80.3022 9.64482 80.311 9.62358C80.3168 9.60993 80.3154 9.58567 80.3066 9.57354C80.264 9.50073 80.0936 9.52652 80.0657 9.60994C80.0628 9.6251 80.0702 9.64482 80.0716 9.6615ZM75.4384 1.3559C75.4428 1.38017 75.4443 1.40444 75.4502 1.4287C75.4619 1.4742 75.4942 1.50758 75.5412 1.53033C75.5779 1.49241 75.597 1.44995 75.5955 1.40445C75.5941 1.38018 75.5897 1.3559 75.5838 1.33163C75.572 1.28613 75.5397 1.25277 75.4928 1.23002C75.456 1.26642 75.4384 1.30888 75.4384 1.3559ZM102.415 21.2296C102.402 21.2493 102.389 21.269 102.374 21.2872C102.414 21.3312 102.451 21.3448 102.478 21.3206C102.496 21.3054 102.506 21.2827 102.52 21.2629C102.48 21.219 102.445 21.2068 102.415 21.2296ZM101.502 21.4359C101.521 21.4495 101.539 21.4677 101.559 21.4768C101.593 21.492 101.624 21.4662 101.647 21.4116C101.628 21.3979 101.611 21.3797 101.59 21.3706C101.556 21.3555 101.525 21.3813 101.502 21.4359ZM102.08 21.1583C102.07 21.1947 102.091 21.225 102.145 21.2508C102.158 21.2311 102.176 21.2129 102.185 21.1917C102.199 21.1568 102.174 21.1249 102.122 21.1007C102.107 21.1189 102.094 21.1386 102.08 21.1583ZM98.9804 19.5233C98.9701 19.5597 98.9907 19.59 99.045 19.6158C99.0582 19.5961 99.0759 19.5779 99.0847 19.5566C99.0994 19.5217 99.0744 19.4899 99.0215 19.4656C99.0069 19.4838 98.9936 19.5035 98.9804 19.5233ZM94.7569 8.7909C94.7437 8.81062 94.7305 8.83034 94.7158 8.84854C94.7555 8.89252 94.7922 8.90617 94.8201 8.8819C94.8377 8.86673 94.848 8.84398 94.8612 8.82426C94.8215 8.78028 94.7863 8.76815 94.7569 8.7909ZM90.7111 3.0971C90.7464 3.10772 90.7757 3.08649 90.8007 3.03038C90.7816 3.01672 90.764 2.99852 90.7434 2.98942C90.7096 2.97425 90.6788 3.00005 90.6553 3.05465C90.6744 3.06982 90.6935 3.08345 90.7111 3.0971ZM88.5627 2.74068C88.5495 2.76039 88.5362 2.78011 88.5216 2.79831C88.5612 2.8423 88.5979 2.85594 88.6258 2.83168C88.6434 2.81651 88.6537 2.79376 88.6669 2.77404C88.6273 2.73005 88.592 2.71944 88.5627 2.74068ZM73.9934 1.35438C73.9802 1.3741 73.9669 1.39382 73.9523 1.41202C73.9919 1.45601 74.0286 1.46965 74.0565 1.44538C74.0742 1.43022 74.0844 1.40747 74.0976 1.38775C74.058 1.34376 74.0228 1.33315 73.9934 1.35438ZM1.44942 13.6945C1.43033 13.6808 1.41126 13.6672 1.39363 13.652C1.35105 13.693 1.33783 13.7309 1.36133 13.7597C1.37602 13.7779 1.39803 13.7885 1.41712 13.8022C1.46117 13.7612 1.47145 13.7248 1.44942 13.6945Z" fill="#FFE492"/>
</svg>
