<svg width="38" height="30" viewBox="0 0 38 30" fill="none" xmlns="http://www.w3.org/2000/svg">
<g clip-path="url(#clip0_9_20908)">
<path d="M0.5 2.45656V9.20951C0.5 11.2663 3.00611 12.3632 4.53763 10.9235L11.8471 4.17051C13.4483 2.69651 12.404 0.0913086 10.2112 0.0913086H2.90169C1.57902 0.0913086 0.5 1.15396 0.5 2.45656Z" fill="white"/>
<path d="M35.0982 0.0913086H27.7887C25.6307 0.0913086 24.5517 2.69651 26.1528 4.1705L33.4623 10.9235C34.9938 12.3289 37.4999 11.2662 37.4999 9.20951V2.45656C37.4999 1.15396 36.4209 0.0913086 35.0982 0.0913086Z" fill="white"/>
<path d="M20.6533 16.5797L33.4624 28.4402C34.9939 29.8456 37.5 28.783 37.5 26.7263V19.9047C37.5 19.2534 37.2215 18.6364 36.7342 18.1908L20.6533 3.27945C19.7135 2.42248 18.2865 2.42248 17.3467 3.27945L1.26576 18.1908C0.778457 18.6364 0.5 19.2534 0.5 19.9047V26.7263C0.5 28.783 3.00611 29.8799 4.53763 28.4402L17.3467 16.5797C18.2865 15.7227 19.7135 15.7227 20.6533 16.5797Z" fill="white"/>
</g>
<defs>
<clipPath id="clip0_9_20908">
<rect width="37" height="29" fill="white" transform="translate(0.5 0.196777)"/>
</clipPath>
</defs>
</svg>
