<svg width="288" height="233" viewBox="0 0 288 233" fill="none" xmlns="http://www.w3.org/2000/svg">
<circle cx="140.93" cy="89.2681" r="70.625" stroke="#4F9CF9" stroke-width="2" stroke-dasharray="15 15"/>
<circle cx="90.2812" cy="160.893" r="70.625" stroke="#4F9CF9" stroke-width="2" stroke-dasharray="15 15"/>
<circle cx="197.719" cy="160.893" r="70.625" stroke="#4F9CF9" stroke-width="2" stroke-dasharray="15 15"/>
<circle cx="212.044" cy="90.803" r="17.9062" fill="white"/>
<g clip-path="url(#clip0_9_23207)">
<path d="M209.166 91.4329C207.926 91.4329 206.918 92.4413 206.918 93.681V99.2989C206.918 100.539 207.926 101.547 209.166 101.547C210.406 101.547 211.414 100.539 211.414 99.299V93.681C211.414 92.4413 210.406 91.4329 209.166 91.4329Z" fill="#FF4340"/>
<path d="M205.66 91.4324H203.483C202.283 91.4324 201.307 92.4088 201.307 93.6088C201.307 94.8089 202.283 95.7853 203.483 95.7853C204.683 95.7853 205.66 94.8089 205.66 93.6088V91.4324Z" fill="#FF4340"/>
<path d="M201.301 87.9256C201.301 89.1653 202.309 90.1737 203.549 90.1737H209.167C210.407 90.1737 211.415 89.1653 211.415 87.9256C211.415 86.686 210.407 85.6775 209.167 85.6775H203.549C202.309 85.6774 201.301 86.686 201.301 87.9256V87.9256Z" fill="#36C6FF"/>
<path d="M209.239 84.4181H211.415V82.2416C211.415 81.0415 210.439 80.0652 209.239 80.0652C208.039 80.0652 207.062 81.0416 207.062 82.2416C207.062 83.4417 208.039 84.4181 209.239 84.4181Z" fill="#36C6FF"/>
<path d="M214.922 90.1736C216.162 90.1736 217.17 89.1651 217.17 87.9254V82.3075C217.17 81.0678 216.162 80.0593 214.922 80.0593C213.682 80.0593 212.674 81.0678 212.674 82.3075V87.9254C212.674 89.1651 213.682 90.1736 214.922 90.1736Z" fill="#0DC46E"/>
<path d="M218.43 90.1739H220.606C221.806 90.1739 222.783 89.1976 222.783 87.9975C222.783 86.7974 221.806 85.821 220.606 85.821C219.406 85.821 218.43 86.7974 218.43 87.9975V90.1739Z" fill="#0DC46E"/>
<path d="M222.788 93.6805C222.788 92.4409 221.78 91.4324 220.54 91.4324H214.922C213.682 91.4324 212.674 92.4409 212.674 93.6805C212.674 94.9201 213.682 95.9286 214.922 95.9286H220.54C221.78 95.9287 222.788 94.9201 222.788 93.6805Z" fill="#FDCB02"/>
<path d="M214.85 97.188H212.674V99.3644C212.674 100.565 213.65 101.541 214.85 101.541C216.05 101.541 217.027 100.565 217.027 99.3644C217.027 98.1644 216.05 97.188 214.85 97.188Z" fill="#FDCB02"/>
</g>
<circle cx="18.6562" cy="155.266" r="17.9062" fill="white"/>
<g clip-path="url(#clip1_9_23207)">
<path d="M28.729 149.223H19.3282C18.9576 149.223 18.6567 149.524 18.6567 149.895C18.6567 150.265 18.9576 150.566 19.3282 150.566H26.7723L22.6467 153.774L19.6881 151.893L18.9683 153.026L22.3257 155.162C22.4345 155.232 22.5607 155.267 22.6856 155.267C22.8307 155.267 22.9771 155.22 23.0979 155.125L28.0575 151.267V159.967H19.3282C18.9576 159.967 18.6567 160.268 18.6567 160.638C18.6567 161.009 18.9576 161.31 19.3282 161.31H28.729C29.0997 161.31 29.4005 161.009 29.4005 160.638V149.895C29.4005 149.524 29.0997 149.223 28.729 149.223Z" fill="#1976D2"/>
<path d="M19.7562 145.348C19.6031 145.221 19.3977 145.166 19.2043 145.206L8.46053 147.22C8.14225 147.279 7.9126 147.556 7.9126 147.88V162.652C7.9126 162.975 8.14225 163.253 8.46053 163.312L19.2043 165.326C19.2446 165.334 19.2862 165.338 19.3278 165.338C19.4836 165.338 19.6354 165.285 19.7562 165.184C19.9107 165.056 19.9993 164.866 19.9993 164.667V145.865C19.9993 145.665 19.9107 145.476 19.7562 145.348Z" fill="#2196F3"/>
<path d="M13.9556 159.966C12.105 159.966 10.5981 158.159 10.5981 155.938C10.5981 153.716 12.105 151.909 13.9556 151.909C15.8062 151.909 17.313 153.716 17.313 155.938C17.313 158.159 15.8062 159.966 13.9556 159.966ZM13.9556 153.252C12.8449 153.252 11.9411 154.456 11.9411 155.938C11.9411 157.419 12.8449 158.624 13.9556 158.624C15.0662 158.624 15.97 157.419 15.97 155.938C15.97 154.456 15.0662 153.252 13.9556 153.252Z" fill="#FAFAFA"/>
</g>
<circle cx="269.344" cy="155.266" r="17.9062" fill="white"/>
<g clip-path="url(#clip2_9_23207)">
<path d="M269.325 151.311L264.865 159.046H264.853L267.435 162.195L261.64 164.626C261.527 164.564 261.439 164.475 261.388 164.387L258.667 159.348C258.528 159.071 258.642 158.857 258.68 158.731L265.974 146.133C266.024 146.057 266.1 145.982 266.201 145.919H266.213L269.955 147.078L269.325 151.311Z" fill="#59C36A"/>
<path d="M280.088 159.045L275.036 162.195L273.839 159.045L269.325 151.31L266.213 145.918C266.301 145.855 266.415 145.818 266.516 145.818H272.176C272.302 145.855 272.554 145.843 272.718 146.133L280.012 158.73C280.063 158.819 280.088 158.932 280.088 159.045Z" fill="#FFDA2D"/>
<path d="M272.718 146.133C272.554 145.843 272.302 145.856 272.176 145.818H269.325V151.311L273.839 159.046L275.036 162.195L280.087 159.046C280.087 158.932 280.062 158.819 280.012 158.731L272.718 146.133Z" fill="#FDBF00"/>
<path d="M280.089 159.046C280.089 159.159 280.063 159.272 280.026 159.348L277.304 164.387C277.204 164.551 276.964 164.715 276.75 164.715H261.943C261.843 164.715 261.729 164.677 261.641 164.626L264.854 159.046H280.089Z" fill="#4086F4"/>
<path d="M269.325 164.714H276.749C276.963 164.714 277.203 164.55 277.303 164.387L280.024 159.348C280.062 159.272 280.087 159.159 280.087 159.045H269.325V164.714H269.325Z" fill="#4175DF"/>
</g>
<circle cx="69.3047" cy="90.803" r="17.9062" fill="white"/>
<g clip-path="url(#clip3_9_23207)">
<path d="M62.7817 96.1364V94.4098L65.6979 96.098L69.3047 92.7214V100.396L62.7817 96.1364Z" fill="#0093EB"/>
<path d="M59.2896 91.5703L63.0883 88.1169L69.3043 91.954L65.6974 95.3306L59.2896 91.5703Z" fill="#0093EB"/>
<path d="M63.0888 88.1169L58.561 84.6635L65.084 81.2102L69.6885 84.2798L63.0888 88.1169Z" fill="#0093EB"/>
<path d="M75.8282 96.1748L69.3052 100.396V92.7214L73.0271 95.9446L75.8282 94.1795V96.1748Z" fill="#0093EB"/>
<path d="M73.0271 95.1768L69.3052 91.9537L75.5596 87.9631L79.3199 91.1863L73.0271 95.1768Z" fill="#0093EB"/>
<path d="M75.5606 87.9634L69.6899 84.2798L74.2944 81.2102L80.05 84.6635L75.5606 87.9634Z" fill="#0093EB"/>
</g>
<circle cx="144" cy="205.915" r="17.9062" fill="white"/>
<g clip-path="url(#clip4_9_23207)">
<path d="M152.831 201.55H135.204C134.856 201.55 134.575 201.268 134.575 200.92V197.059C134.575 196.018 135.422 195.171 136.463 195.171H151.572C152.613 195.171 153.46 196.018 153.46 197.059V200.92C153.46 201.268 153.179 201.55 152.831 201.55Z" fill="#E3E7EA"/>
<path d="M151.572 195.171H144.018V201.55H152.831C153.179 201.55 153.461 201.268 153.461 200.92V197.059C153.461 196.018 152.614 195.171 151.572 195.171Z" fill="#BABAC0"/>
<path d="M134.551 208.475C134.551 208.474 134.551 208.474 134.551 208.474L133.299 202.507C133.21 201.941 133.361 201.374 133.714 200.959C134.079 200.53 134.608 200.291 135.162 200.291H152.839C153.393 200.291 153.921 200.53 154.287 200.959C154.639 201.374 154.79 201.941 154.702 202.482L153.45 208.476L154.702 214.443C154.79 215.009 154.639 215.576 154.287 215.991C153.921 216.419 153.393 216.659 152.839 216.659H135.162C134.608 216.659 134.079 216.419 133.714 215.991C133.361 215.576 133.21 215.009 133.299 214.468C133.299 214.468 134.529 208.579 134.551 208.475Z" fill="#4086F4"/>
<path d="M134.551 208.474C134.551 208.474 134.551 208.474 134.551 208.475H153.45L154.702 202.482C154.79 201.941 154.639 201.374 154.287 200.959C153.921 200.53 153.393 200.291 152.839 200.291H135.162C134.608 200.291 134.079 200.53 133.714 200.959C133.361 201.374 133.21 201.941 133.299 202.507L134.551 208.474Z" fill="#4175DF"/>
<path d="M137.704 198.948C138.052 198.948 138.334 198.666 138.334 198.318C138.334 197.971 138.052 197.689 137.704 197.689C137.357 197.689 137.075 197.971 137.075 198.318C137.075 198.666 137.357 198.948 137.704 198.948Z" fill="#FFF5F5"/>
<path d="M150.296 198.948C150.644 198.948 150.926 198.666 150.926 198.318C150.926 197.971 150.644 197.689 150.296 197.689C149.948 197.689 149.667 197.971 149.667 198.318C149.667 198.666 149.948 198.948 150.296 198.948Z" fill="#E3E7EA"/>
<path d="M141.481 212.881C140.417 212.881 139.462 212.207 139.107 211.202C138.991 210.874 139.162 210.515 139.491 210.399C139.817 210.283 140.178 210.455 140.294 210.783C140.471 211.285 140.949 211.622 141.481 211.622C142.175 211.622 142.74 211.057 142.74 210.363C142.74 209.669 142.175 209.104 141.481 209.104H140.699C140.351 209.104 140.069 208.822 140.069 208.474C140.069 208.127 140.351 207.845 140.699 207.845H141.481C142.175 207.845 142.74 207.28 142.74 206.586C142.74 205.892 142.175 205.327 141.481 205.327C140.949 205.327 140.471 205.664 140.294 206.166C140.178 206.494 139.817 206.666 139.491 206.55C139.162 206.434 138.991 206.074 139.107 205.747C139.462 204.742 140.417 204.068 141.481 204.068C142.87 204.068 143.999 205.197 143.999 206.586C143.999 207.337 143.669 208.013 143.145 208.474C143.669 208.936 143.999 209.612 143.999 210.363C143.999 211.752 142.87 212.881 141.481 212.881Z" fill="#FFF5F5"/>
<path d="M139.491 206.55C139.817 206.666 140.178 206.494 140.294 206.166C140.471 205.664 140.949 205.327 141.481 205.327C142.175 205.327 142.74 205.892 142.74 206.586C142.74 207.28 142.175 207.845 141.481 207.845H140.699C140.351 207.845 140.069 208.126 140.069 208.474H143.145C143.669 208.013 143.999 207.337 143.999 206.586C143.999 205.197 142.87 204.068 141.481 204.068C140.417 204.068 139.462 204.742 139.107 205.747C138.991 206.074 139.162 206.434 139.491 206.55Z" fill="#E3E7EA"/>
<path d="M147.777 212.881C147.429 212.881 147.147 212.599 147.147 212.252V205.873L146.237 206.48C145.947 206.672 145.557 206.594 145.364 206.306C145.171 206.016 145.249 205.626 145.539 205.433L147.427 204.174C147.62 204.045 147.869 204.033 148.074 204.142C148.278 204.252 148.406 204.465 148.406 204.697V212.252C148.406 212.599 148.125 212.881 147.777 212.881Z" fill="#FFF5F5"/>
<path d="M146.237 206.48L147.147 205.873V208.474H148.406V204.697C148.406 204.465 148.278 204.252 148.074 204.142C147.869 204.033 147.62 204.045 147.427 204.173L145.539 205.433C145.249 205.626 145.171 206.016 145.364 206.306C145.557 206.594 145.947 206.672 146.237 206.48Z" fill="#E3E7EA"/>
</g>
<circle cx="142.466" cy="18.6665" r="17.9062" fill="white"/>
<g clip-path="url(#clip5_9_23207)">
<path d="M150.524 10.6089H134.408V26.7245H150.524V10.6089Z" fill="#ECEFF1"/>
<path d="M142.467 20.3613L150.525 26.7242V14.1621L142.467 20.3613Z" fill="#CFD8DC"/>
<path d="M151.196 10.6089H150.524L142.466 16.9719L134.409 10.6089H133.737C132.625 10.6089 131.723 11.5114 131.723 12.6233V24.7101C131.723 25.822 132.625 26.7245 133.737 26.7245H134.409V14.1624L142.466 20.3602L150.524 14.161V26.7245H151.196C152.308 26.7245 153.21 25.822 153.21 24.7101V12.6233C153.21 11.5114 152.308 10.6089 151.196 10.6089Z" fill="#F44336"/>
</g>
<circle cx="143.58" cy="138.204" r="25.5804" fill="white"/>
<path d="M130 129.308V134.115C130 135.58 131.829 136.361 132.946 135.336L138.28 130.528C139.449 129.478 138.687 127.624 137.087 127.624H131.753C130.787 127.624 130 128.38 130 129.308Z" fill="#5986EF"/>
<path d="M155.247 127.624H149.913C148.338 127.624 147.551 129.478 148.719 130.528L154.053 135.336C155.171 136.336 157 135.58 157 134.115V129.308C157 128.38 156.212 127.624 155.247 127.624Z" fill="#5986EF"/>
<path d="M144.706 139.362L154.054 147.807C155.171 148.807 157 148.051 157 146.587V141.73C157 141.266 156.797 140.827 156.441 140.51L144.706 129.893C144.021 129.283 142.979 129.283 142.294 129.893L130.559 140.51C130.203 140.827 130 141.266 130 141.73V146.587C130 148.051 131.829 148.832 132.946 147.807L142.294 139.362C142.979 138.752 144.021 138.752 144.706 139.362Z" fill="#5986EF"/>
<defs>
<clipPath id="clip0_9_23207">
<rect width="21.4875" height="21.4875" fill="white" transform="translate(201.301 80.0593)"/>
</clipPath>
<clipPath id="clip1_9_23207">
<rect width="21.4875" height="21.4875" fill="white" transform="translate(7.9126 144.522)"/>
</clipPath>
<clipPath id="clip2_9_23207">
<rect width="21.4875" height="21.4875" fill="white" transform="translate(258.6 144.522)"/>
</clipPath>
<clipPath id="clip3_9_23207">
<rect width="21.4875" height="21.4875" fill="white" transform="translate(58.561 80.0593)"/>
</clipPath>
<clipPath id="clip4_9_23207">
<rect width="21.4875" height="21.4875" fill="white" transform="translate(133.256 195.171)"/>
</clipPath>
<clipPath id="clip5_9_23207">
<rect width="21.4875" height="21.4875" fill="white" transform="translate(131.723 7.92285)"/>
</clipPath>
</defs>
</svg>
