<svg width="320" height="1172" viewBox="0 0 320 1172" fill="none" xmlns="http://www.w3.org/2000/svg">
<g opacity="0.3">
<path d="M-59.7286 825.548C-63.2876 823.543 -66.4709 821.095 -69.24 818.226C-75.0466 812.207 -79.0842 804.291 -81.2404 794.694C-83.5594 784.383 -83.7233 772.018 -81.7301 757.945C-77.7228 729.658 -66.6129 699.337 -55.8686 670.013C-53.7593 664.255 -51.5781 658.301 -49.5018 652.501C-35.3572 612.969 -25.3811 576.98 -19.0018 542.482C-6.27679 473.664 -6.3427 408.78 -19.1942 354.844C-34.0579 292.47 -63.3616 249.067 -101.709 232.632C-124.248 222.973 -164.646 229.066 -198.25 259.401C-218.192 277.404 -232.662 301.697 -240.092 329.651L-240.276 329.683C-236.378 315.024 -230.596 301.383 -223.088 289.141C-216.2 277.912 -207.859 267.84 -198.296 259.207C-183.085 245.475 -165.273 235.744 -146.783 231.063C-129.699 226.74 -113.645 227.207 -101.577 232.379C-81.5101 240.982 -63.953 256.854 -49.396 279.558C-36.2009 300.14 -25.9746 325.411 -19.0023 354.671C-6.14262 408.637 -6.07539 473.557 -18.8088 542.416C-25.1936 576.937 -35.1753 612.945 -49.3268 652.5C-51.4017 658.3 -53.5843 664.256 -55.695 670.014C-66.4323 699.316 -77.5339 729.616 -81.5343 757.861C-85.4048 785.18 -81.2128 805.411 -69.0756 817.988C-52.2682 835.408 -20.6151 836.594 15.5965 821.158C67.7794 798.915 120.804 753.628 172.083 709.834C181.072 702.157 190.365 694.219 199.429 686.605C222.964 666.831 254.011 641.518 285.464 621.103C317.614 600.237 345.595 587.361 371.008 581.738C386.562 578.296 401.033 578.225 414.018 581.527C426.012 584.575 437.129 590.605 447.062 599.445C464.1 614.611 478.292 638.342 490.454 671.992C514.397 738.252 533.467 813.052 547.131 894.314C560.118 971.552 568.348 1055.31 571.593 1143.26L571.397 1143.38C564.671 961.077 537.376 802.541 490.269 672.178C463.654 598.528 425.74 569.869 370.947 581.992C315.204 594.323 255.588 639.654 199.467 686.804C190.406 694.417 181.113 702.355 172.124 710.031C120.829 753.842 67.7873 799.143 15.5685 821.401C-1.30636 828.595 -17.8276 832.314 -32.2072 832.155C-39.8035 832.072 -46.7447 830.906 -52.8405 828.689C-55.2742 827.813 -57.5711 826.762 -59.7286 825.548Z" fill="#A1A1A1"/>
<path d="M-48.5058 813.757C-57.5816 808.646 -64.2532 800.831 -68.3417 790.518C-72.9008 779.019 -74.2129 764.44 -72.2443 747.187C-72.0693 745.659 -71.8667 744.092 -71.6406 742.524C-67.5936 714.393 -56.888 684.32 -46.5327 655.236C-44.4412 649.357 -42.2762 643.278 -40.2177 637.355C-27.9619 602.088 -19.0235 569.955 -12.8962 539.125C-12.1424 535.329 -11.4217 531.505 -10.7576 527.759C1.39771 459.273 0.754842 394.886 -12.6159 341.556C-28.1477 279.728 -58.0426 237.105 -96.7952 221.54C-119.464 212.472 -159.934 218.996 -193.429 249.014C-213.486 266.988 -228.238 291.188 -236.092 318.996L-236.274 319.023C-232.157 304.448 -226.196 290.876 -218.556 278.689C-211.539 267.497 -203.101 257.447 -193.476 248.819C-178.224 235.15 -160.43 225.386 -142.02 220.583C-125.004 216.143 -108.899 216.393 -96.6693 221.288C-76.3779 229.438 -58.554 244.888 -43.6931 267.207C-30.2328 287.424 -19.7137 312.381 -12.4282 341.384C0.950791 394.744 1.59222 459.169 -10.5686 527.694C-11.2341 531.442 -11.9549 535.27 -12.71 539.068C-18.8415 569.919 -27.7841 602.068 -40.0468 637.354C-42.1039 643.278 -44.2689 649.357 -46.3618 655.238C-56.7087 684.304 -67.4075 714.356 -71.4489 742.448C-71.6736 744.01 -71.8762 745.577 -72.0512 747.102C-76.1241 782.763 -66.0254 803.891 -48.4631 813.781C-48.3667 813.835 -48.2717 813.888 -48.1754 813.943C-48.2841 813.878 -48.3957 813.819 -48.5058 813.757ZM-44.6628 815.694C-27.4935 823.393 -4.34541 821.692 19.4805 813.186C70.958 794.692 124.719 751.63 176.711 709.987C178.853 708.27 180.992 706.557 183.131 704.845C187.828 701.087 193.391 696.64 199.029 692.173C224.316 672.144 254.234 649.119 284.402 630.218C316.501 610.106 344.374 597.463 369.613 591.565C385.116 587.951 399.64 587.434 412.782 590.029C424.958 592.433 436.351 597.591 446.644 605.355C464.423 618.772 479.586 640.22 492.998 670.926C506.09 700.838 515.702 727.467 523.247 754.73C533.922 793.377 541.305 835.136 547.12 870.888C560.546 954.17 568.723 1044.76 571.425 1140.14L571.23 1140.26C568.529 1044.9 560.353 954.317 546.928 871.045C541.114 835.298 533.733 793.545 523.059 754.909C515.515 727.653 505.906 701.032 492.816 671.128C463.598 604.235 424.43 579.032 369.552 591.822C312.574 605.132 251.671 650.709 199.058 692.383C193.418 696.849 187.858 701.295 183.16 705.055C181.022 706.765 178.881 708.48 176.739 710.197C124.731 751.853 70.9507 794.931 19.436 813.439C6.68385 817.991 -5.53254 820.431 -16.874 820.69C-27.4285 820.927 -36.7557 819.248 -44.6628 815.694Z" fill="#A1A1A1"/>
<path d="M-37.1021 802.479C-38.1939 801.864 -39.2553 801.212 -40.2836 800.519C-48.9487 794.699 -55.2512 786.264 -59.0122 775.444C-63.1256 763.611 -64.188 748.916 -62.1673 731.767C-61.9854 730.24 -61.7786 728.671 -61.5498 727.106C-57.4659 699.144 -47.1631 669.325 -37.1997 640.493C-35.1231 634.483 -32.9758 628.268 -30.9363 622.211C-19.0264 586.892 -10.3983 554.882 -4.5609 524.35C-3.84025 520.575 -3.15126 516.769 -2.51751 513.038C9.0666 444.887 7.84677 380.996 -6.04328 328.273C-22.2416 266.991 -52.7264 225.145 -91.8858 210.451C-113.962 202.227 -153.636 207.528 -188.576 238.597C-208.763 256.548 -223.812 280.667 -232.096 308.346L-232.275 308.365C-227.935 293.864 -221.789 280.357 -214.011 268.219C-206.858 257.055 -198.316 247.025 -188.621 238.404C-173.331 224.808 -155.564 215.022 -137.238 210.1C-120.296 205.551 -104.146 205.588 -91.7613 210.201C-71.2458 217.902 -53.1538 232.927 -37.9904 254.86C-24.2648 274.716 -13.453 299.356 -5.85555 328.101C8.04134 380.856 9.26111 444.783 -2.32859 512.973C-2.96369 516.706 -3.65133 520.513 -4.37474 524.293C-10.2163 554.842 -18.85 586.871 -30.7668 622.21C-32.8077 628.269 -34.955 634.484 -37.0316 640.494C-46.9881 669.311 -57.2839 699.107 -61.3636 727.036C-61.5925 728.602 -61.8006 730.166 -61.9797 731.689C-70.1901 801.371 -25.0296 818.823 23.3659 805.21C74.3554 790.626 129.258 749.58 182.353 709.888L182.898 709.48C188.043 705.631 193.361 701.654 198.632 697.737C254.236 656.418 313.135 614.942 368.224 601.386C383.679 597.6 398.257 596.638 411.552 598.527C423.918 600.284 435.586 604.568 446.232 611.261C464.793 622.929 480.924 642.095 495.55 669.856C510.951 698.976 521.084 723.477 528.404 749.3C538.807 786.141 544.976 828.767 550.419 866.375C562.361 950.422 569.374 1041.48 571.266 1137L571.072 1137.13C569.179 1041.61 562.166 950.564 550.227 866.525C544.784 828.924 538.616 786.305 528.216 749.476C520.9 723.661 510.77 699.169 495.374 670.058C463.672 609.883 423.252 588.141 368.167 601.635C313.114 615.183 254.24 656.64 198.656 697.945C193.386 701.862 188.066 705.842 182.922 709.688L182.377 710.095C155.918 729.875 128.559 750.328 101.876 767.334C71.8905 786.444 46.1928 798.914 23.3144 805.456C-0.545439 812.167 -21.8129 811.089 -37.1021 802.479Z" fill="#A1A1A1"/>
<path d="M570.917 1133.99C569.832 1038.32 563.982 946.81 553.528 862.006C553.074 858.433 552.625 854.846 552.172 851.247C547.577 814.634 542.825 776.774 533.377 744.045C524.179 712.348 510.3 688.319 497.935 668.993C463.894 615.489 422.221 597.206 366.786 611.45C309.82 626.178 247.961 669.056 198.257 703.511C195.273 705.579 192.29 707.654 189.303 709.729C187.098 711.262 184.891 712.794 182.686 714.324C154.369 733.969 128.849 751.419 103.269 766.051C74.0462 782.764 49.1628 793.044 27.1923 797.478C6.60188 801.635 -11.7628 799.628 -25.5321 791.877C-28.0406 790.465 -30.3944 788.864 -32.5839 787.072C-40.578 780.53 -46.3351 771.555 -49.6945 760.395C-53.3607 748.218 -54.168 733.399 -52.0964 716.347C-51.909 714.819 -51.6967 713.251 -51.4638 711.684C-47.343 683.902 -37.4458 654.356 -27.8743 625.785C-25.8126 619.631 -23.6802 613.265 -21.6556 607.061C-10.0915 571.679 -1.77369 539.789 3.77651 509.567C4.46679 505.807 5.12132 502.02 5.7247 498.308C16.7363 430.491 14.9409 367.097 0.534284 314.98C-16.3307 254.244 -47.4068 213.18 -86.9687 199.349C-114.063 189.981 -153.831 201.82 -183.676 228.137C-204.008 246.066 -219.365 270.115 -228.09 297.682L-228.268 297.695C-223.7 283.261 -217.365 269.809 -209.44 257.712C-202.143 246.573 -193.489 236.558 -183.719 227.941C-168.396 214.428 -150.659 204.625 -132.428 199.595C-115.566 194.942 -99.3778 194.764 -86.8456 199.098C-66.1046 206.347 -47.7473 220.95 -32.2814 242.497C-18.2919 261.99 -7.186 286.318 0.724783 314.802C15.141 366.951 16.9363 430.381 5.91775 498.239C5.31437 501.954 4.65851 505.744 3.9682 509.504C-1.58479 539.743 -9.90815 571.65 -21.4764 607.048C-23.5024 613.255 -25.6334 619.618 -27.6965 625.775C-37.2625 654.33 -47.1527 683.857 -51.2693 711.606C-51.5009 713.17 -51.7132 714.736 -51.9006 716.26C-60.812 789.609 -14.8264 805.715 27.2589 797.222C77.4715 787.086 133.361 748.314 182.674 714.103C184.88 712.571 187.085 711.038 189.291 709.509C192.277 707.433 195.261 705.359 198.245 703.291C226.616 683.625 254.394 664.63 282.298 648.425C314.388 629.788 342.043 617.612 366.844 611.199C382.258 607.237 396.888 605.83 410.329 607.018C422.892 608.126 434.834 611.539 445.828 617.161C465.215 627.075 482.316 643.962 498.109 668.781C510.476 688.114 524.362 712.154 533.564 743.869C543.018 776.612 547.77 814.48 552.367 851.101C552.818 854.699 553.269 858.287 553.723 861.861C564.178 946.671 570.028 1038.19 571.113 1133.87L570.917 1133.99Z" fill="#A1A1A1"/>
<path d="M570.763 1130.86C570.479 1033.21 565.793 941.236 556.832 857.489C556.295 852.478 555.763 847.325 555.247 842.342C551.55 806.655 547.728 769.752 538.54 738.615C529.326 707.592 514.141 685.472 500.499 667.927C464.297 621.034 421.37 606.207 365.407 621.267C311.959 635.754 256.356 671.487 202.584 706.041L196.68 709.834C192.017 712.831 187.196 715.928 182.455 718.959C128.816 753.217 76.8789 784.387 31.0772 789.498C19.9627 790.739 9.62067 790.112 0.332076 787.64C-9.64114 784.982 -18.1181 780.251 -24.8633 773.575C-32.1891 766.322 -37.4037 756.818 -40.3614 745.325C-43.5805 732.819 -44.1367 717.879 -42.0143 700.926C-41.82 699.393 -41.6023 697.824 -41.3665 696.262C-37.2144 668.675 -27.723 639.419 -18.5434 611.125C-16.4951 604.811 -14.3776 598.281 -12.3665 591.915C-1.15231 556.465 6.85794 524.696 12.1209 494.792C12.7781 491.055 13.4022 487.283 13.9739 483.586C24.4143 416.103 22.0433 353.207 7.1175 301.693C-10.4183 241.507 -42.0842 201.22 -82.0528 188.257C-109.233 179.565 -148.989 191.65 -178.731 217.649C-199.224 235.562 -214.908 259.553 -224.088 287.029L-224.264 287.037C-219.462 272.66 -212.93 259.254 -204.853 247.194C-197.406 236.075 -188.633 226.069 -178.777 217.455C-163.422 204.034 -145.727 194.227 -127.6 189.093C-110.823 184.341 -94.6058 183.956 -81.9339 188.007C-60.9689 194.806 -42.3448 208.983 -26.575 230.145C-12.3203 249.277 -0.921592 273.287 7.30248 301.515C22.2379 353.058 24.6088 415.993 14.1628 483.514C13.5898 487.214 12.9656 490.989 12.3084 494.726C7.04407 524.646 -0.970352 556.432 -12.1914 591.9C-14.2026 598.267 -16.3215 604.799 -18.3697 611.112C-27.5438 639.39 -37.031 668.633 -41.1776 696.188C-41.412 697.744 -41.6283 699.31 -41.824 700.843C-50.8616 773.031 -10.0539 793.84 31.1507 789.242C76.9152 784.136 128.832 752.977 182.447 718.735C187.188 715.704 192.009 712.607 196.673 709.61L202.576 705.817C228.971 688.856 256.264 671.315 283.714 656.158C314.803 638.992 341.543 627.497 365.46 621.012C380.84 616.873 395.525 615.021 409.104 615.508C421.872 615.965 434.091 618.506 445.421 623.059C465.694 631.205 483.762 645.81 500.665 667.704C514.312 685.258 529.507 707.386 538.725 738.434C547.919 769.585 551.743 806.498 555.44 842.195C555.956 847.178 556.49 852.329 557.025 857.342C565.988 941.096 570.675 1033.08 570.958 1130.73L570.763 1130.86Z" fill="#A1A1A1"/>
<path d="M570.608 1127.72C571.147 1029.46 567.623 937.018 560.133 852.974C559.569 846.658 559.03 840.117 558.508 833.792C555.631 798.928 552.655 762.877 543.697 733.189C534.389 702.556 517.932 682.472 503.059 666.866C464.917 626.5 420.737 615.132 364.023 631.088C314.454 645.147 263.058 675.687 213.354 705.221C208.123 708.329 202.715 711.541 197.46 714.646C191.289 718.291 186.587 721.054 182.218 723.599C158.824 737.221 131.419 752.643 105.531 763.728C78.0982 775.473 55.013 781.294 34.9547 781.524C24.4073 781.645 14.6872 779.994 6.06451 776.613C-3.19448 772.984 -11.0057 767.421 -17.1488 760.078C-23.805 752.123 -28.4756 742.091 -31.0344 730.26C-33.8091 717.431 -34.1115 702.372 -31.937 685.507C-31.7372 683.98 -31.5152 682.411 -31.2754 680.845C-27.0947 653.474 -18.009 624.523 -9.22408 596.524C-7.18655 590.03 -5.07971 583.316 -3.08068 576.768C7.78497 541.239 15.4849 509.592 20.4606 480.014C21.0861 476.295 21.6771 472.544 22.2184 468.861C32.0877 401.714 29.1397 339.314 13.696 288.404C-4.50645 228.768 -36.765 189.263 -77.1363 177.162C-100.164 170.378 -138.966 177.011 -173.739 207.121C-194.413 225.023 -210.44 248.969 -220.084 276.371L-220.256 276.371C-215.214 262.043 -208.479 248.677 -200.238 236.644C-192.631 225.538 -183.731 215.539 -173.78 206.923C-158.401 193.607 -140.754 183.805 -122.741 178.574C-106.054 173.73 -89.8165 173.139 -77.0159 176.91C-55.8268 183.26 -36.9346 197.013 -20.8636 217.788C-6.34507 236.557 5.34634 260.254 13.8823 288.224C29.3357 339.162 32.285 401.599 22.4101 468.785C21.8688 472.467 21.2764 476.225 20.6495 479.946C15.671 509.539 7.96694 541.202 -2.90286 576.748C-4.9019 583.3 -7.00874 590.013 -9.04627 596.507C-17.8284 624.492 -26.9072 653.428 -31.0837 680.768C-31.3222 682.332 -31.5441 683.898 -31.7425 685.423C-39.5562 746.002 -14.5885 781.831 35.0461 781.262C79.9948 780.748 132.401 752.377 182.226 723.364C186.595 720.819 191.295 718.055 197.466 714.41C202.721 711.305 208.129 708.093 213.36 704.985C237.829 690.446 263.13 675.411 288.487 662.271C317.162 647.409 341.89 637.125 364.08 630.832C379.436 626.512 394.173 624.214 407.882 624.004C420.867 623.804 433.36 625.474 445.016 628.962C466.237 635.317 485.277 647.639 503.222 666.631C518.102 682.247 534.573 702.342 543.888 733.002C552.851 762.71 555.827 798.77 558.705 833.644C559.227 839.969 559.767 846.511 560.33 852.827C567.819 936.879 571.345 1029.33 570.806 1127.6L570.608 1127.72Z" fill="#A1A1A1"/>
<path d="M570.445 1124.58C571.813 1025.7 569.452 932.789 563.428 848.452C562.914 841.278 562.455 833.792 562.009 826.553C559.885 792.068 557.69 756.412 548.852 727.754C539.399 697.344 521.692 679.369 505.616 665.796C466.357 632.316 419.586 624.172 362.635 640.9C317.213 654.354 270.256 680.128 224.845 705.056C215.673 710.09 206.188 715.298 197.053 720.208C191.464 723.214 186.532 725.84 181.974 728.235C160.79 739.349 133.083 753.294 106.651 762.557C80.0932 771.862 57.9064 775.456 38.8249 773.543C18.0127 771.457 1.32181 762.129 -9.44424 746.572C-15.4293 737.921 -19.5588 727.363 -21.7173 715.188C-24.0477 702.044 -24.0978 686.868 -21.8709 670.088C-21.6656 668.561 -21.4381 666.991 -21.1955 665.426C-16.9905 638.296 -8.31468 609.673 0.0755156 581.995C2.10511 575.299 4.20408 568.377 6.19247 561.623C16.7068 526.006 24.0992 494.477 28.7891 465.24C29.3828 461.538 29.9421 457.804 30.4517 454.14C39.7498 387.327 36.2276 325.422 20.2632 275.121C1.39279 216.037 -31.457 177.311 -72.2322 166.073C-99.9394 158.588 -138.711 170.839 -168.708 196.556C-189.582 214.452 -205.967 238.368 -216.092 265.72L-216.261 265.711C-210.971 251.419 -204.023 238.082 -195.613 226.074C-187.84 214.974 -178.8 204.975 -168.747 196.356C-153.349 183.154 -135.757 173.366 -117.873 168.051C-101.284 163.121 -85.0315 162.326 -72.1132 165.817C-50.7001 171.717 -31.5411 185.048 -15.1663 205.435C-0.382468 223.843 11.6017 247.225 20.451 274.935C36.4236 325.267 39.9485 387.206 30.6448 454.061C30.1352 457.726 29.5745 461.462 28.9808 465.166C24.2867 494.421 16.8916 525.964 6.37305 561.598C4.38467 568.353 2.28436 575.277 0.254726 581.973C-8.13129 609.637 -16.803 638.246 -21.0039 665.35C-21.2464 666.914 -21.4725 668.478 -21.6778 670.006C-29.6546 730.073 -6.99893 768.681 38.926 773.286C80.7942 777.483 132.428 753.999 181.987 727.999C186.543 725.604 191.475 722.981 197.063 719.974C206.197 715.063 215.681 709.859 224.852 704.824C270.273 679.892 317.239 654.11 362.682 640.652C378.031 636.143 392.821 633.402 406.644 632.5C419.864 631.64 432.632 632.437 444.595 634.869C466.841 639.392 486.85 649.434 505.764 665.562C521.85 679.145 539.575 697.132 549.035 727.576C557.88 756.254 560.076 791.924 562.2 826.421C562.646 833.661 563.107 841.144 563.621 848.318C569.646 932.662 572.007 1025.58 570.639 1124.47L570.445 1124.58Z" fill="#A1A1A1"/>
<path d="M570.291 1121.45C572.495 1021.93 571.296 928.566 566.73 843.937C566.311 836.16 565.976 827.987 565.654 820.084C564.247 785.722 562.795 750.19 554.012 722.326C544.383 692.03 525.439 676.211 508.178 664.732C467.625 637.447 419.566 632.862 361.254 650.719C320.287 663.37 278.053 684.796 237.21 705.515C223.166 712.64 209.9 719.37 196.655 725.775C191.266 728.383 186.387 730.706 181.74 732.872C151.768 746.828 128.267 755.889 107.783 761.383C82.0846 768.278 60.7976 769.646 42.7067 765.565C35.6891 763.98 29.201 761.507 23.3262 758.199C12.9122 752.335 4.41717 743.852 -1.72673 733.064C-12.8454 713.541 -16.2312 687.165 -11.7906 654.666C-11.577 653.128 -11.3454 651.56 -11.1 650.004C-6.87614 623.139 1.38693 594.879 9.3796 567.547C11.4041 560.622 13.4979 553.464 15.4812 546.474C25.6443 510.756 32.725 479.349 37.1331 450.461C37.6951 446.777 38.2227 443.061 38.7005 439.414C47.4275 372.936 43.3283 311.527 26.846 261.83C7.30617 203.301 -26.1321 165.353 -67.3113 154.977C-95.4605 148.042 -133.258 160.195 -163.603 185.942C-184.696 203.838 -201.459 227.739 -212.083 255.061L-212.251 255.047C-206.703 240.78 -199.535 227.464 -190.944 215.47C-182.991 204.368 -173.807 194.366 -163.641 185.743C-148.231 172.667 -130.706 162.906 -112.96 157.513C-96.4746 152.503 -80.2227 151.513 -67.1951 154.723C-45.5579 160.174 -26.1308 173.08 -9.45483 193.08C5.59288 211.129 17.8684 234.197 27.0338 261.645C43.5243 311.373 47.6261 372.815 38.895 439.333C38.4158 442.982 37.8882 446.698 37.3262 450.385C32.9167 479.289 25.8318 510.713 15.6646 546.444C13.6813 553.435 11.5874 560.595 9.56155 567.52C1.57304 594.838 -6.68725 623.087 -10.907 649.928C-11.1509 651.482 -11.3839 653.049 -11.5961 654.585C-19.891 715.275 -0.0567776 755.632 42.8216 765.306C83.639 774.515 135.962 753.955 181.765 732.628C186.411 730.461 191.288 728.14 196.678 725.532C209.921 719.126 223.185 712.399 237.229 705.274C278.08 684.55 320.322 663.122 361.304 650.466C376.666 645.761 391.509 642.575 405.423 640.993C418.899 639.462 431.944 639.386 444.192 640.769C467.55 643.41 488.528 651.167 508.323 664.487C525.6 675.975 544.56 691.809 554.2 722.141C562.991 750.025 564.443 785.574 565.85 819.948C566.173 827.853 566.507 836.025 566.926 843.799C571.492 928.434 572.69 1021.81 570.486 1121.33L570.291 1121.45Z" fill="#A1A1A1"/>
<path d="M570.129 1118.32C573.217 1016.76 573.183 925.528 570.025 839.419C569.723 831.203 569.553 822.891 569.372 814.09C568.666 779.686 567.934 744.113 559.164 716.897C549.278 686.465 528.088 672.464 510.732 663.667C469.342 642.391 419.992 641.367 359.862 660.539C323.72 672.159 286.555 689.626 250.612 706.52C231.722 715.398 213.882 723.782 196.246 731.342C191.009 733.59 186.183 735.607 181.495 737.51C152.454 749.278 129.39 756.488 108.906 760.204C84.0442 764.715 63.657 763.857 46.5789 757.584C37.8043 754.36 29.9572 749.618 23.2551 743.49C16.1594 737.001 10.3483 728.946 5.98248 719.551C-3.69368 698.726 -6.28592 671.71 -1.72128 639.249C-1.50213 637.71 -1.26504 636.143 -1.01694 634.588C3.21743 608.03 11.0663 580.164 18.6559 553.215C20.6809 546.025 22.7752 538.59 24.7576 531.331C34.5653 495.503 41.3385 464.218 45.4634 435.687C45.9923 432.021 46.4881 428.322 46.937 424.694C55.0928 358.551 50.4181 297.64 33.4179 248.547C17.6621 203.35 -6.49835 170.792 -36.0841 154.132C-44.4481 149.422 -53.2388 145.985 -62.4027 143.888C-90.5338 137.606 -128.235 149.933 -158.454 175.292C-179.784 193.193 -196.948 217.094 -208.089 244.41L-208.254 244.388C-202.442 230.134 -195.042 216.829 -186.262 204.844C-178.123 193.734 -168.779 183.722 -158.492 175.089C-143.076 162.152 -125.629 152.429 -108.033 146.967C-91.4219 141.811 -75.604 140.658 -62.292 143.633C-40.4307 148.635 -20.7369 161.118 -3.75702 180.73C11.556 198.414 24.1269 221.167 33.6043 248.358C50.614 297.479 55.2929 358.425 47.1329 424.607C46.6854 428.236 46.1895 431.938 45.6593 435.607C41.5316 464.152 34.7556 495.452 24.9437 531.297C22.9613 538.556 20.8684 545.992 18.842 553.184C11.2552 580.121 3.40907 607.976 -0.822515 634.513C-1.0692 636.065 -1.30631 637.633 -1.52543 639.168C-10.0601 699.869 7.52007 742.934 46.7075 757.33C86.3618 771.895 139.591 754.255 181.534 737.261C186.222 735.357 191.046 733.339 196.282 731.094C213.914 723.538 231.754 715.151 250.642 706.274C286.588 689.379 323.76 671.907 359.915 660.284C390.873 650.414 418.304 645.963 443.779 646.675C468.348 647.361 490.295 652.838 510.873 663.417C522.65 669.385 531.535 675.54 538.838 682.782C548.266 692.133 554.977 703.231 559.356 716.711C568.134 743.951 568.865 779.542 569.572 813.963C569.752 822.763 569.925 831.074 570.224 839.288C573.382 925.4 573.416 1016.63 570.328 1118.2L570.129 1118.32Z" fill="#A1A1A1"/>
<path d="M569.972 1115.18C573.92 1012.97 575.016 921.294 573.326 834.9C573.16 826.353 573.154 817.642 573.149 808.419C573.128 773.864 573.109 738.13 564.324 711.465C554.219 681.026 531.745 669.361 513.296 662.598C471.67 647.077 421.029 649.615 358.482 670.351C327.608 680.669 295.934 694.538 265.303 707.952C241.088 718.554 218.218 728.57 195.85 736.9C190.793 738.787 185.884 740.55 181.262 742.139C153.421 751.697 130.126 757.216 110.044 759.011C85.9981 761.161 66.508 758.082 50.4619 749.597C42.2985 745.278 35.0747 739.503 28.9986 732.43C22.6295 725.015 17.4842 716.132 13.7068 706.024C5.46202 683.961 3.66195 656.304 8.35896 623.821C8.58359 622.288 8.82483 620.72 9.07844 619.158C13.315 592.954 20.7427 565.533 27.9249 539.015C29.9574 531.512 32.0592 523.751 34.0463 516.175C43.4987 480.225 49.9615 449.062 53.8074 420.901C54.3045 417.252 54.7687 413.572 55.1858 409.962C62.7704 344.154 57.5187 283.739 40.0006 235.25C19.122 177.832 -15.5002 141.443 -57.4845 132.786C-85.5658 127.144 -123.149 139.625 -153.229 164.58C-174.82 182.493 -192.404 206.41 -204.085 233.748L-204.246 233.719C-198.158 219.468 -190.517 206.163 -181.535 194.176C-173.196 183.048 -163.685 173.021 -153.265 164.376C-137.855 151.591 -120.494 141.915 -103.06 136.395C-86.5708 131.173 -70.7731 129.837 -57.3725 132.529C-35.2871 137.085 -15.3251 149.141 1.95584 168.366C17.5313 185.693 30.3936 208.132 40.1856 235.06C57.7161 283.575 62.9691 344.026 55.3789 409.873C54.9631 413.484 54.499 417.168 54.0004 420.819C50.1532 448.995 43.6862 480.172 34.231 516.136C32.2453 523.714 30.1421 531.474 28.1097 538.98C20.9302 565.487 13.5052 592.896 9.27152 619.083C9.01927 620.642 8.77805 622.21 8.55342 623.739C-0.399673 685.663 14.5303 730.275 50.6002 749.345C79.8656 764.822 121.4 762.45 181.308 741.883C185.928 740.293 190.835 738.532 195.892 736.646C218.254 728.315 241.122 718.304 265.333 707.7C295.969 694.286 327.648 680.414 358.531 670.094C390.067 659.638 417.817 653.908 443.371 652.572C469.258 651.219 492.174 654.413 513.426 662.338C531.896 669.106 554.394 680.789 564.515 711.275C573.308 737.97 573.328 773.721 573.349 808.292C573.353 817.514 573.36 826.223 573.526 834.767C575.217 921.165 574.12 1012.85 570.171 1115.06L569.972 1115.18Z" fill="#A1A1A1"/>
<path d="M569.812 1112.04C574.625 1009.19 576.854 917.055 576.623 830.383C576.6 821.584 576.771 812.551 576.953 802.988C577.615 768.2 578.298 732.227 569.481 706.035C559.141 675.555 535.391 666.24 515.856 661.529C474.242 651.274 423.796 657.197 357.095 680.167C332.035 688.861 306.378 699.429 281.567 709.65C251.432 722.062 222.966 733.789 195.445 742.464C190.485 744.03 185.632 745.482 181.022 746.773C153.885 754.367 131.038 757.981 111.177 757.818C100.053 757.728 89.7641 756.406 80.5969 753.893C70.8194 751.21 61.9844 747.079 54.3371 741.615C38.8221 730.527 27.7491 714.002 21.4259 692.501C14.5973 669.279 13.5894 640.985 18.434 608.4C18.6669 606.859 18.9137 605.291 19.1659 603.738C23.3934 577.949 30.3917 551.037 37.1595 525.013C39.2078 517.135 41.3269 508.989 43.327 501.028C52.42 464.944 58.5739 433.901 62.142 406.124C62.6088 402.49 63.0399 398.827 63.4253 395.238C70.4401 329.762 64.6128 269.844 46.5741 221.964C25.026 165.104 -10.1861 129.495 -52.5744 121.695C-98.0754 113.545 -167.41 149.994 -200.087 223.094L-200.245 223.056C-192.071 204.77 -181.486 188.182 -168.783 173.747C-157.181 160.563 -144.042 149.406 -129.734 140.59C-116.429 132.391 -102.724 126.563 -88.9996 123.264C-75.9468 120.127 -63.3119 119.493 -52.465 121.436C-30.1556 125.542 -9.92692 137.176 7.65659 156.015C23.4959 172.984 36.651 195.108 46.7563 221.776C64.8033 269.686 70.6346 329.639 63.617 395.152C63.2316 398.744 62.8005 402.408 62.3337 406.045C58.7642 433.834 52.6061 464.893 43.5103 500.992C41.5102 508.953 39.3912 517.099 37.3415 524.98C30.5764 550.995 23.5809 577.897 19.3562 603.671C19.1026 605.223 18.8545 606.79 18.623 608.329C9.31445 670.951 22.0511 718.199 54.4822 741.377C81.9403 760.994 123.347 762.68 181.073 746.524C185.682 745.232 190.533 743.782 195.493 742.216C223.007 733.543 251.468 721.818 281.599 709.406C306.413 699.184 332.073 688.613 357.137 679.919C423.865 656.939 474.333 651.015 515.97 661.274C529.097 664.439 539.047 668.69 547.283 674.657C557.813 682.284 565.133 692.486 569.666 705.848C578.494 732.069 577.81 768.063 577.148 802.871C576.967 812.432 576.795 821.464 576.818 830.26C577.049 916.938 574.819 1009.07 570.005 1111.94L569.812 1112.04Z" fill="#A1A1A1"/>
<path d="M569.659 1108.91C575.348 1005.4 578.705 912.813 579.929 825.866C580.055 816.87 580.409 807.572 580.786 797.724C582.125 762.645 583.51 726.369 574.644 700.606C563.938 669.713 537.43 662.899 518.423 660.462C466.952 653.636 407.291 671.554 355.717 689.988C337.15 696.665 318.179 704.13 299.831 711.348C263.024 725.828 228.26 739.505 195.05 748.033C190.165 749.289 185.368 750.426 180.79 751.415C154.274 757.112 131.877 758.819 112.322 756.629C90.1533 754.148 71.9518 746.414 58.2219 733.638C44.1177 720.512 34.338 702.122 29.1575 678.977C23.7227 654.704 23.507 625.772 28.5147 592.985C28.7531 591.448 29.0039 589.878 29.2617 588.322C33.4621 563.036 40.021 536.723 46.3634 511.274C48.4428 502.935 50.5903 494.313 52.6161 485.885C61.4704 449.149 67.147 419.112 70.4863 391.352C70.9214 387.736 71.3207 384.093 71.6744 380.518C78.1139 315.378 71.7097 255.957 53.1544 208.679C30.9356 152.379 -4.86633 117.547 -47.6572 110.603C-93.8226 103.314 -161.962 139.412 -196.083 212.442L-196.237 212.397C-187.771 194.279 -176.999 177.818 -164.221 163.473C-152.512 150.331 -139.335 139.176 -125.055 130.324C-111.738 122.068 -98.0311 116.14 -84.3107 112.7C-71.2467 109.424 -58.5343 108.611 -47.5479 110.345C-25.013 114.002 -4.51896 125.213 13.3671 143.663C29.4703 160.272 42.9181 182.083 53.3381 208.488C71.9057 255.793 78.3126 315.248 71.8661 380.426C71.5111 384.003 71.1118 387.649 70.6781 391.266C67.3387 419.039 61.6565 449.092 52.7995 485.843C50.7736 494.271 48.6248 502.895 46.5454 511.235C40.2058 536.675 33.6496 562.98 29.4492 588.253C29.1915 589.809 28.9406 591.375 28.7022 592.913C18.9686 656.648 29.5065 706.541 58.3753 733.404C84.2667 757.498 124.329 763.303 180.852 751.159C185.428 750.172 190.223 749.037 195.106 747.779C228.307 739.254 263.066 725.58 299.867 711.1C318.215 703.882 337.189 696.416 355.758 689.736C390.438 677.344 418.017 669.29 442.547 664.389C471.425 658.622 496.277 657.253 518.527 660.203C532.121 661.947 542.911 665.345 551.514 670.597C562.591 677.358 570.218 687.112 574.829 700.419C583.708 726.215 582.321 762.512 580.981 797.614C580.605 807.459 580.249 816.757 580.124 825.747C578.902 912.697 575.542 1005.29 569.855 1108.81L569.659 1108.91Z" fill="#A1A1A1"/>
<path d="M569.503 1105.77C576.07 1001.6 580.56 908.563 583.229 821.344C583.509 812.198 584.051 802.676 584.626 792.593C586.642 757.174 588.728 720.549 579.803 695.173C568.838 664.193 540.985 659.914 520.986 659.391C471.692 657.928 416.347 676.828 354.334 699.802C343.133 703.975 331.711 708.36 320.663 712.604C278.175 728.919 234.243 745.79 194.649 753.595C189.838 754.546 185.094 755.37 180.551 756.046C154.949 759.842 132.378 759.634 113.463 755.428C92.0355 750.663 74.756 740.645 62.0981 725.653C49.3838 710.593 40.9001 690.336 36.8817 665.444C32.8157 640.252 33.3881 610.685 38.5838 577.564C38.8277 576.026 39.0842 574.457 39.3447 572.902C43.4985 548.236 49.5999 522.642 55.5 497.892C57.6259 488.974 59.8241 479.754 61.8909 470.741C70.3762 433.839 75.7535 403.918 78.8151 376.577C79.2171 372.988 79.5846 369.359 79.908 365.797C85.7846 300.986 78.8062 242.063 59.7289 195.39C36.8406 139.651 0.448796 105.599 -42.746 99.508C-87.928 93.3066 -155.621 127.043 -192.084 201.783L-192.235 201.731C-183.476 183.778 -172.518 167.448 -159.666 153.193C-147.849 140.089 -134.633 128.94 -120.384 120.051C-94.0946 103.655 -65.7582 96.0731 -42.6395 99.2478C-19.8819 102.458 0.880274 113.244 19.0702 131.306C35.4359 147.559 49.1764 169.053 59.9111 195.195C78.9994 241.894 85.9805 300.854 80.1052 365.697C79.7819 369.263 79.4143 372.892 79.0123 376.484C75.948 403.84 70.5693 433.773 62.0798 470.689C60.0116 479.704 57.8148 488.925 55.6889 497.843C49.7902 522.588 43.6901 548.176 39.5377 572.83C39.2759 574.383 39.0208 575.95 38.7769 577.488C28.3814 643.754 36.5025 694.909 62.2611 725.425C86.1136 753.68 125.934 763.896 180.621 755.788C185.162 755.111 189.901 754.287 194.71 753.338C234.29 745.535 278.216 728.668 320.696 712.354C331.744 708.111 343.166 703.726 354.368 699.553C381.514 689.496 412.921 678.113 442.133 670.293C472.69 662.114 498.511 658.464 521.074 659.134C535.306 659.507 546.645 661.927 555.736 666.535C567.202 672.345 575.357 681.917 579.982 694.986C583.981 706.354 586.111 721.158 586.494 740.246C586.834 757.101 585.808 775.092 584.817 792.488C584.243 802.567 583.701 812.089 583.421 821.232C580.751 908.454 576.262 1001.49 569.694 1105.67L569.503 1105.77Z" fill="#A1A1A1"/>
<path d="M569.346 1102.64C576.799 997.799 582.42 904.31 586.529 816.828C586.963 807.565 587.695 797.853 588.47 787.572C591.167 751.776 593.956 714.762 584.96 689.747C576.529 666.414 556.439 656.137 523.545 658.326C477.624 661.264 426.986 680.917 373.372 701.727C366.696 704.318 359.795 706.997 352.947 709.625C350.264 710.658 347.576 711.696 344.891 712.732C293.886 732.418 241.146 752.775 194.248 759.163C189.506 759.811 184.818 760.324 180.314 760.686C155.205 762.692 133.098 760.521 114.612 754.231C93.9119 747.186 77.5488 734.887 65.9809 717.676C54.6287 700.783 47.4411 678.659 44.6182 651.917C41.882 625.997 43.2425 595.796 48.6638 562.149C48.9132 560.611 49.1751 559.041 49.4398 557.486C53.5122 533.621 59.1338 508.928 64.568 485.048C66.7696 475.377 69.045 465.375 71.1807 455.596C79.2928 418.513 84.3723 388.709 87.1602 361.802C87.5304 358.227 87.8662 354.62 88.1578 351.075C93.4578 286.6 85.9038 228.17 66.3072 182.104C42.7495 126.929 5.76648 93.6534 -37.8309 88.4155C-82.6535 83.1635 -150.546 117.376 -188.083 191.131L-188.231 191.073C-179.177 173.283 -168.034 157.083 -155.11 142.923C-143.185 129.857 -129.929 118.708 -115.711 109.789C-89.4495 93.313 -61.0271 85.43 -37.7285 88.1595C-14.7455 90.9214 6.28344 101.282 24.7745 118.957C41.4054 134.848 55.4401 156.029 66.4895 181.909C86.0957 228.004 93.6565 286.466 88.351 350.973C88.0594 354.518 87.7235 358.132 87.3533 361.707C84.5626 388.628 79.4845 418.443 71.3682 455.54C69.2339 465.32 66.9558 475.323 64.7555 484.995C59.3214 508.869 53.7025 533.557 49.6315 557.413C49.3669 558.968 49.105 560.535 48.8555 562.073C37.8332 630.488 43.8149 684.216 66.1535 717.453C88.2049 750.262 126.643 764.718 180.398 760.422C184.898 760.059 189.583 759.547 194.323 758.901C241.204 752.517 293.935 732.164 344.93 712.48C347.618 711.442 350.303 710.405 352.987 709.372C359.834 706.744 366.735 704.065 373.41 701.476C427.035 680.663 477.686 661.005 523.629 658.066C538.49 657.076 550.375 658.52 559.966 662.475C571.969 667.427 580.44 676.54 585.145 689.557C589.174 700.76 591.179 715.555 591.274 734.788C591.357 751.757 589.989 769.914 588.666 787.473C587.893 797.75 587.16 807.46 586.726 816.719C582.617 904.204 576.996 997.696 569.542 1102.54L569.346 1102.64Z" fill="#A1A1A1"/>
<path d="M569.186 1099.5C576.88 1002.23 583.825 905.604 589.826 812.31C590.412 802.854 591.342 792.865 592.326 782.291C595.528 747.896 599.156 708.912 590.114 684.317C581.478 660.902 560.54 652.051 526.104 657.256C485.199 663.372 441.706 681.741 395.658 701.187C381.238 707.277 366.325 713.576 351.56 719.439C325.764 729.713 298.11 740.383 270.663 748.828C241.269 757.874 216.141 763.072 193.84 764.724C189.155 765.071 184.523 765.272 180.071 765.317C155.447 765.56 133.82 761.411 115.791 752.985C95.8334 743.655 80.3771 729.092 69.855 709.689C50.5561 673.624 46.8132 618.796 58.7323 546.726C58.9873 545.188 59.2546 543.619 59.5221 542.065C63.4616 519.28 68.5602 495.773 73.492 473.039C75.8127 462.339 78.2139 451.273 80.4549 440.451C88.1939 403.167 92.9713 373.481 95.4897 347.027C95.8282 343.466 96.1323 339.877 96.3922 336.353C101.128 272.21 92.9955 214.28 72.881 168.817C48.6539 114.203 11.0795 81.7102 -32.9205 77.3224C-78.4859 72.8745 -145.042 106.879 -184.087 180.477L-184.23 180.409C-174.878 162.78 -163.548 146.711 -150.556 132.645C-138.519 119.617 -125.224 108.47 -111.041 99.5181C-97.6779 91.0841 -83.9608 84.8545 -70.27 80.9999C-56.9791 77.2597 -44.3789 75.9342 -32.8194 77.0624C-9.61233 79.3782 11.6847 89.314 30.4783 106.6C47.3704 122.137 61.6978 143.001 73.0619 168.618C93.1887 214.107 101.325 272.072 96.5894 336.247C96.3281 339.774 96.0254 343.367 95.6869 346.928C93.1658 373.396 88.3869 403.095 80.6466 440.39C78.4042 451.215 76.003 462.281 73.6809 472.984C68.7505 495.715 63.6519 519.219 59.7138 541.995C59.4436 543.55 59.179 545.119 58.9226 546.656C47.0132 618.669 50.7508 673.452 70.0317 709.481C90.0279 746.352 128.11 765.572 180.161 765.057C184.61 765.011 189.241 764.812 193.922 764.466C243.78 760.776 299.152 740.077 351.595 719.19C366.36 713.327 381.27 707.03 395.69 700.94C441.748 681.489 485.251 663.116 526.174 656.998C560.664 651.785 581.641 660.657 590.298 684.126C594.348 695.141 596.223 709.889 596.034 729.208C595.867 746.244 594.164 764.522 592.52 782.197C591.537 792.771 590.606 802.757 590.022 812.206C584.021 905.504 577.076 1002.13 569.38 1099.41L569.186 1099.5Z" fill="#A1A1A1"/>
<path d="M569.033 1096.37C577.514 998.978 585.622 901.887 593.13 807.792C593.875 798.319 594.992 788.25 596.172 777.591C600.037 742.724 604.417 703.203 595.278 678.884C586.429 655.381 564.641 647.956 528.672 656.181C491.003 664.766 450.112 683.811 410.565 702.233C390.736 711.469 370.231 721.019 350.182 729.252C318.524 742.269 292.923 751.382 269.612 757.933C240.868 766.01 215.953 770.05 193.446 770.286C188.825 770.335 184.247 770.221 179.84 769.948C156.881 768.522 136.676 762.966 119.726 753.424C118.784 752.894 117.856 752.352 116.935 751.798C97.6616 740.195 83.1299 723.339 73.7419 701.702C69.2292 691.226 65.7943 679.218 63.5342 666.013C61.4092 653.601 60.257 639.743 60.1087 624.823C59.8411 597.98 62.688 567.388 68.8123 531.304C69.0769 529.752 69.3443 528.198 69.6172 526.641C73.3363 505.41 77.8447 483.566 82.2058 462.441C84.7221 450.247 87.326 437.637 89.7447 425.298C97.2038 387.284 101.551 358.584 103.833 332.243C104.14 328.701 104.413 325.129 104.641 321.622C108.804 257.82 100.096 200.387 79.4635 155.529C54.567 101.479 16.4014 69.7653 -28.0011 66.2277C-73.1713 62.6782 -139.913 97.1214 -180.079 169.819L-180.218 169.744C-161.509 135.883 -135.969 108.048 -106.36 89.2495C-92.9763 80.7528 -79.2576 74.4239 -65.579 70.4331C-52.2699 66.5511 -39.5936 65.0486 -27.9 65.9677C-4.46892 67.834 17.0949 77.3477 36.191 94.245C53.3455 109.425 67.9656 129.975 79.6444 155.327C100.289 200.214 109.001 257.682 104.837 321.523C104.607 325.031 104.336 328.607 104.029 332.15C101.744 358.505 97.3969 387.215 89.9337 425.242C87.5136 437.584 84.9111 450.195 82.3934 462.389C78.0337 483.511 73.5252 505.352 69.8075 526.577C69.5346 528.134 69.2659 529.687 69.0026 531.236C55.9879 607.915 57.5972 663.611 73.9228 701.507C96.6256 753.833 144.104 767.469 179.937 769.692C184.341 769.964 188.915 770.079 193.535 770.028C245.301 769.486 304.459 747.821 350.214 729.008C370.259 720.78 390.763 711.228 410.589 701.994C450.144 683.571 491.045 664.518 528.731 655.93C544.827 652.249 557.809 651.734 568.416 654.357C581.497 657.59 590.596 665.78 595.459 678.698C599.552 689.588 601.306 704.378 600.823 723.909C600.397 741.119 598.348 759.616 596.364 777.508C595.183 788.164 594.067 798.23 593.324 807.697C585.815 901.792 577.708 998.883 569.227 1096.28L569.033 1096.37Z" fill="#A1A1A1"/>
<path d="M568.875 1093.23L596.429 803.275C597.33 793.806 598.628 783.681 600.002 772.966C604.537 737.6 609.677 697.517 600.435 673.457C591.496 650.192 568.213 644.021 531.231 655.116C495.678 665.782 457.771 685.243 421.111 704.064C397.215 716.333 372.507 729.017 348.795 739.074C277.527 769.303 223.765 780.587 179.602 774.588C161.283 772.097 144.827 766.77 130.502 758.703C126.159 756.258 122.016 753.562 118.073 750.618C99.4756 736.731 85.8659 717.587 77.6216 693.723C69.9819 671.603 66.7777 644.646 67.8323 611.312C68.6737 584.693 72.1858 554.372 78.8863 515.889C82.4218 495.58 86.5192 474.717 90.4817 454.542C99.447 408.884 108.718 361.673 112.173 317.472C117.469 249.677 108.432 189.083 86.0387 142.241C60.4727 88.758 21.7173 57.8218 -23.0878 55.1343C-66.4667 52.5321 -132.845 83.9754 -176.08 159.165L-176.215 159.082C-156.89 125.474 -131.118 97.7762 -101.686 78.9815C-75.0752 61.9877 -47.127 53.4269 -22.9895 54.876C0.665652 56.2961 22.4976 65.3852 41.8948 81.8926C59.3132 96.7134 74.2247 116.952 86.2182 142.041C97.2986 165.219 105.167 191.947 109.606 221.484C114.081 251.268 115.012 283.528 112.368 317.369C108.914 361.586 99.6415 408.81 90.6734 454.478C86.7123 474.651 82.6162 495.511 79.0808 515.817C69.3028 571.966 60.324 642.907 77.8107 693.532C97.8655 751.589 144.293 769.512 179.71 774.325C223.849 780.324 277.588 769.043 348.829 738.825C372.531 728.772 397.238 716.087 421.13 703.823C457.797 684.998 495.713 665.533 531.284 654.861C568.33 643.747 591.659 649.938 600.62 673.264C604.757 684.037 606.39 698.878 605.609 718.639C604.921 736.034 602.519 754.767 600.196 772.881C598.822 783.597 597.525 793.716 596.625 803.182L569.071 1093.14L568.875 1093.23Z" fill="#A1A1A1"/>
<path d="M578.079 1074.94C588.203 995.582 595.196 930.501 600.088 870.129C602.472 840.806 604.422 811.72 605.883 783.678C606.326 775.196 607.036 766.309 607.789 756.899C609.682 733.249 611.639 708.794 609.426 688.582C608.246 677.715 606.034 669.165 602.664 662.442C592.381 641.696 568.587 638.186 531.941 652.013C512.987 659.148 493.996 668.72 477.92 677.143C460.9 686.059 443.191 696.489 426.065 706.574C401.448 721.073 375.994 736.063 351.34 747.365C336.32 754.277 321.883 759.881 308.429 764.024C281.512 772.312 255.12 776.77 229.987 777.272C214.501 777.507 199.894 776.049 186.574 772.94C175.1 770.25 164.29 766.339 154.442 761.314C139.702 753.796 126.943 743.627 116.523 731.082C105.444 717.742 96.9326 701.615 91.227 683.145C86.1392 666.675 83.1629 647.87 82.1304 625.651C80.1923 584.274 84.8244 540.3 89.0771 506.612C91.2016 490 93.6062 473.193 95.9313 456.94C102.63 410.132 108.957 365.922 109.508 323.679C109.86 289.399 106.164 257.564 98.5204 229.052C92.6472 207.141 84.1135 187.12 73.1582 169.546C70.5471 165.362 67.7857 161.279 64.9508 157.415C52.7382 140.795 37.0128 125.595 18.2136 112.238C-0.712071 98.7223 -19.2012 90.7847 -38.3101 87.9795C-49.0983 86.3672 -60.6951 86.8381 -72.7807 89.375C-115.448 98.333 -157.465 130.045 -185.176 174.207L-185.333 174.083C-177.946 162.31 -169.547 151.346 -160.369 141.491C-151.65 132.129 -142.171 123.704 -132.195 116.448C-113.349 102.742 -92.7753 93.2693 -72.7002 89.0549C-60.5953 86.5127 -48.9806 86.0422 -38.1759 87.6573C-19.0477 90.467 -0.543385 98.4098 18.3975 111.937C37.2077 125.301 52.9399 140.511 65.1608 157.142C67.9984 161.01 70.7612 165.095 73.3736 169.282C84.3386 186.869 92.8792 206.906 98.7565 228.836C106.405 257.367 110.104 289.229 109.749 323.531C109.198 365.799 102.869 410.021 96.1699 456.841C93.8434 473.094 91.4401 489.898 89.3156 506.507C85.0644 540.179 80.4351 584.132 82.3733 625.484C83.4045 647.679 86.3766 666.466 91.4589 682.916C102.626 719.062 123.872 745.335 154.609 761.004C164.449 766.024 175.252 769.931 186.716 772.62C200.028 775.724 214.624 777.181 230.098 776.947C255.216 776.445 281.591 771.991 308.491 763.707C321.936 759.568 336.364 753.966 351.372 747.06C376.012 735.763 401.461 720.776 426.069 706.283C443.199 696.196 460.912 685.762 477.939 676.843C494.023 668.415 513.022 658.841 531.99 651.701C548.306 645.544 562.284 642.815 573.54 643.588C587.365 644.537 597.24 650.796 602.887 662.189C606.266 668.933 608.485 677.507 609.668 688.399C611.884 708.642 609.926 733.112 608.033 756.778C607.28 766.184 606.57 775.072 606.127 783.547C604.667 811.593 602.718 840.682 600.332 870.011C595.439 930.389 588.444 995.475 578.32 1074.84L578.079 1074.94Z" fill="#A1A1A1"/>
<path d="M587.293 1056.63C599.943 977.264 608.053 909.452 612.086 849.327C614.073 819.968 615.171 791.288 615.346 764.084C615.392 756.866 615.6 749.455 615.818 741.61C616.47 718.115 617.145 693.822 613.384 674.633C611.501 664.915 608.727 657.326 604.902 651.427C590.26 628.837 557.537 637.587 532.663 648.904C515.062 656.882 497.325 667.121 479.191 677.791C463.318 687.13 447.33 697.788 430.405 709.07C405.283 725.819 379.305 743.138 353.896 755.653C338.78 763.146 324.23 768.79 310.65 772.429C285.353 779.209 260.514 781.55 234.712 779.587C220.274 778.487 206.424 775.697 193.55 771.29C182.7 767.551 172.518 762.665 163.291 756.761C149.558 747.986 137.701 736.627 128.046 722.999C117.908 708.685 110.099 691.715 104.839 672.561C100.228 655.782 97.4456 636.617 96.3298 613.973C94.2795 572.891 96.8244 530.06 99.2726 497.335C100.179 485.221 101.19 473.088 102.169 461.351C106.066 414.612 109.749 370.462 106.85 329.889C104.684 299.565 98.8038 271.645 89.3744 246.907C82.24 228.189 72.7254 211.817 60.2894 196.856C57.4179 193.405 54.4057 190.056 51.338 186.903C37.8497 173.076 21.6189 161.579 1.80437 147.983C-12.4407 138.115 -31.602 126.109 -53.5262 120.82C-63.8828 118.267 -74.9733 117.716 -86.4892 119.177C-127.037 124.326 -167.327 150.521 -194.268 189.25L-194.437 189.074C-187.293 178.804 -179.207 169.339 -170.405 160.936C-162.017 152.932 -152.928 145.846 -143.387 139.868C-125.259 128.513 -105.545 121.224 -86.3769 118.791C-74.8389 117.326 -63.7277 117.879 -53.3533 120.435C-31.407 125.728 -12.2319 137.744 2.02277 147.618C21.8442 161.218 38.0805 172.718 51.5784 186.553C54.6475 189.711 57.6625 193.061 60.538 196.514C72.9851 211.491 82.5093 227.878 89.6519 246.617C99.0909 271.38 104.977 299.323 107.145 329.677C110.046 370.28 106.364 414.444 102.464 461.201C101.486 472.935 100.474 485.067 99.5692 497.179C97.1237 529.892 94.5788 572.707 96.6264 613.768C97.7395 636.388 100.52 655.532 105.124 672.292C115.469 709.954 135.114 738.249 163.508 756.391C172.728 762.288 182.899 767.171 193.74 770.906C206.601 775.309 220.438 778.098 234.865 779.195C260.644 781.158 285.462 778.818 310.738 772.045C324.301 768.409 338.832 762.774 353.931 755.288C379.318 742.783 405.285 725.471 430.396 708.732C447.328 697.444 463.319 686.784 479.201 677.441C497.345 666.764 515.089 656.522 532.708 648.535C548.833 641.197 562.865 637.289 574.416 636.912C588.422 636.455 598.767 641.23 605.166 651.101C609.004 657.022 611.788 664.637 613.676 674.383C617.443 693.608 616.767 717.923 616.114 741.437C615.896 749.279 615.691 756.689 615.644 763.903C615.469 791.116 614.37 819.806 612.382 849.174C608.347 909.314 600.237 977.138 587.582 1056.53L587.293 1056.63Z" fill="#A1A1A1"/>
<path d="M596.509 1038.33C611.836 957.857 620.857 889.229 624.086 828.529C625.674 799.132 625.917 770.861 624.811 744.493C624.576 738.857 624.407 732.922 624.244 727.184C623.574 703.478 622.88 678.967 617.347 660.688C614.77 652.07 611.434 645.438 607.148 640.416C590.701 621.133 557.96 632.699 533.391 645.795C516.77 654.616 499.872 665.706 483.528 676.432L480.468 678.441C465.635 688.168 450.495 699.472 434.463 711.442C408.936 730.501 382.541 750.207 356.454 763.942C341.223 772.026 326.56 777.71 312.872 780.835C289.006 786.285 265.671 786.623 239.437 781.901C225.872 779.459 212.781 775.334 200.528 769.637C190.303 764.846 180.751 758.983 172.14 752.203C146.059 731.699 127.996 701.342 118.451 661.977C114.325 644.96 111.733 625.439 110.533 602.295C108.466 563.19 108.875 524.421 109.472 488.063C109.551 483.189 109.638 478.352 109.724 473.553C110.609 423.769 111.447 376.747 104.196 336.109C99.4627 309.579 91.3978 285.576 80.2291 264.767C72.0287 249.491 61.2972 236.211 47.424 224.169C44.2949 221.46 41.0333 218.844 37.7287 216.394C29.4044 210.252 20.0166 204.729 10.0766 198.883C2.09297 194.187 -6.16189 189.332 -14.6056 183.733C-30.854 172.814 -49.2705 160.442 -68.7457 153.667C-78.7947 150.171 -89.3776 148.597 -100.202 148.988C-138.62 150.38 -177.187 171.061 -203.368 204.31L-203.536 204.064C-196.633 195.297 -188.861 187.33 -180.437 180.384C-172.38 173.741 -163.679 167.989 -154.576 163.287C-137.166 154.296 -118.312 149.197 -100.053 148.536C-89.2031 148.142 -78.5981 149.719 -68.53 153.222C-49.0354 160.005 -30.6107 172.385 -14.3554 183.308C-5.91581 188.901 2.33767 193.759 10.3185 198.453C20.2626 204.302 29.6533 209.826 37.9844 215.976C41.2903 218.429 44.5561 221.047 47.6879 223.758C61.579 235.814 72.3229 249.11 80.5343 264.409C91.7168 285.242 99.7899 309.271 104.529 335.831C111.787 376.505 110.949 423.55 110.062 473.355C109.976 478.154 109.891 482.99 109.81 487.865C109.213 524.216 108.803 562.975 110.869 602.068C112.07 625.186 114.657 644.688 118.779 661.684C128.311 700.999 146.352 731.314 172.399 751.792C181 758.563 190.542 764.421 200.757 769.207C212.997 774.896 226.075 779.017 239.625 781.457C265.833 786.174 289.141 785.837 312.975 780.395C326.634 777.276 341.27 771.603 356.474 763.533C382.528 749.815 408.907 730.119 434.42 711.071C450.458 699.096 465.607 687.787 480.45 678.053L483.511 676.044C499.863 665.313 516.771 654.215 533.41 645.385C558.057 632.246 590.906 620.653 607.43 640.025C611.735 645.071 615.084 651.727 617.67 660.378C623.216 678.696 623.91 703.234 624.581 726.966C624.743 732.703 624.911 738.638 625.146 744.272C626.253 770.652 626.009 798.939 624.42 828.351C621.19 889.077 612.165 957.728 596.833 1038.23L596.509 1038.33Z" fill="#A1A1A1"/>
<path d="M605.72 1020.02C623.487 939.577 633.703 868.149 636.081 807.729C637.269 778.298 636.66 750.433 634.272 724.906C633.927 721.219 633.595 717.407 633.272 713.72C631.143 689.364 628.943 664.176 621.308 646.747C618.055 639.221 614.158 633.55 609.393 629.405C591.114 613.511 558.369 627.853 534.117 642.683C519.096 651.823 503.962 662.872 489.326 673.557C486.794 675.407 484.264 677.252 481.739 679.087C467.866 689.164 453.502 701.06 438.296 713.653C412.445 735.062 385.714 757.198 359.006 772.233C343.322 781.06 328.957 786.624 315.085 789.245C286.071 794.726 262.946 789.779 244.151 784.22C231.44 780.458 219.107 775.001 207.496 767.99C197.9 762.15 188.979 755.306 180.98 747.652C157.253 724.975 140.792 692.59 132.056 651.398C128.42 634.261 126.023 614.382 124.726 590.624C123.392 566.667 122.45 543.808 121.538 521.7C120.92 506.673 120.335 492.481 119.662 478.801C117.12 427.091 114 381.129 101.538 342.336C94.237 319.614 83.9904 299.525 71.081 282.629C61.8289 270.518 50.2217 260.622 34.5572 251.481C31.1732 249.517 27.6608 247.633 24.1179 245.884C18.7257 243.245 12.9678 240.834 6.87261 238.285C-4.82348 233.39 -18.0826 227.841 -31.0225 219.481C-35.9493 216.296 -40.9074 212.925 -45.7018 209.663C-58.0338 201.273 -70.7857 192.599 -83.9722 186.509C-93.6569 182.038 -103.735 179.442 -113.924 178.794C-150.199 176.493 -187.043 191.663 -212.482 219.374L-212.63 219.042C-205.969 211.785 -198.513 205.319 -190.468 199.821C-182.742 194.541 -174.431 190.125 -165.769 186.695C-149.077 180.087 -131.084 177.177 -113.732 178.278C-103.518 178.927 -93.4162 181.527 -83.7108 186.009C-70.5092 192.104 -57.7532 200.784 -45.4142 209.178C-40.6213 212.44 -35.6631 215.811 -30.7377 218.995C-17.8102 227.348 -4.56212 232.894 7.12846 237.785C13.2264 240.336 18.9857 242.748 24.3834 245.39C27.9304 247.142 31.4455 249.027 34.8337 250.993C50.5216 260.144 62.1439 270.059 71.4125 282.188C84.3371 299.106 94.5989 319.22 101.908 341.972C107.538 359.494 111.687 380.014 114.594 404.701C117.196 426.801 118.656 450.201 120.05 478.538C120.721 492.22 121.307 506.412 121.926 521.439C122.838 543.544 123.779 566.404 125.112 590.357C126.408 614.091 128.802 633.95 132.433 651.067C141.156 692.204 157.594 724.543 181.288 747.189C189.278 754.834 198.188 761.669 207.772 767.502C219.369 774.505 231.689 779.958 244.386 783.712C263.157 789.266 286.251 794.206 315.214 788.736C329.047 786.122 343.375 780.573 359.018 771.767C385.681 756.759 412.391 734.64 438.221 713.249C453.437 700.648 467.808 688.746 481.696 678.658C484.221 676.824 486.749 674.978 489.28 673.13C503.926 662.437 519.07 651.381 534.109 642.229C549.887 632.581 564.041 626.294 576.177 623.543C590.552 620.283 601.827 622.099 609.69 628.939C614.479 633.103 618.395 638.801 621.661 646.358C629.318 663.834 631.52 689.053 633.651 713.439C633.974 717.126 634.306 720.938 634.651 724.622C637.041 750.169 637.648 778.059 636.46 807.513C635.197 839.595 631.717 874.999 626.115 912.738C621.164 946.094 614.424 982.158 606.084 1019.93L605.72 1020.02Z" fill="#A1A1A1"/>
<path d="M614.932 1001.72C635.365 920.175 646.515 847.912 648.074 786.931C648.861 757.466 647.4 730.009 643.733 705.321C643.558 704.146 643.384 702.971 643.21 701.792C639.409 676.098 635.479 649.528 625.271 632.814C621.316 626.337 616.857 621.624 611.64 618.402C591.516 605.977 558.771 623.058 534.847 639.573C520.812 649.213 506.791 660.545 493.232 671.505C489.88 674.215 486.412 677.017 483.017 679.736C470.084 690.09 456.498 702.492 442.114 715.625C415.949 739.513 388.896 764.212 361.562 780.525C345.749 789.962 331.27 795.566 317.299 797.658C289.775 801.779 268.142 794.748 248.865 786.538C236.979 781.475 225.405 774.68 214.463 766.342C205.501 759.452 197.211 751.631 189.822 743.098C168.446 718.45 153.588 684.038 145.663 640.819C142.489 623.512 140.346 603.854 138.923 578.954C136.164 531.727 133.369 497.984 129.86 469.546C122.88 412.986 113.617 376.806 98.8896 348.574C89.0295 329.672 76.5997 313.499 61.9441 300.499C51.7755 291.481 39.3646 284.787 21.7002 278.801C18.0764 277.582 14.3147 276.43 10.5169 275.382C6.92303 274.402 3.21457 273.511 -0.711528 272.564C-15.2092 269.073 -31.6423 265.117 -47.4351 255.234C-55.7596 250.026 -63.8801 244.027 -71.7336 238.227C-80.6592 231.636 -89.8877 224.819 -99.1999 219.355C-108.537 213.878 -118.11 210.259 -127.648 208.607C-161.763 202.691 -196.889 212.355 -221.609 234.456L-221.711 234.02C-215.29 228.277 -208.149 223.312 -200.487 219.26C-193.09 215.347 -185.173 212.268 -176.951 210.104C-160.979 205.897 -143.844 205.179 -127.403 208.03C-117.84 209.69 -108.245 213.315 -98.8861 218.805C-89.5656 224.273 -80.3316 231.093 -71.4032 237.689C-63.5525 243.487 -55.4361 249.484 -47.1185 254.688C-31.3533 264.552 -14.938 268.505 -0.456928 271.993C3.47194 272.938 7.18175 273.833 10.7784 274.811C14.5803 275.862 18.3448 277.015 21.9727 278.233C39.6633 284.23 52.0962 290.934 62.2854 299.973C76.9617 312.991 89.4093 329.188 99.2832 348.116C114.031 376.386 123.304 412.603 130.291 469.213C133.801 497.661 136.598 531.415 139.356 578.655C140.78 603.535 142.919 623.173 146.09 640.461C154.005 683.619 168.84 717.982 190.184 742.594C197.564 751.115 205.845 758.925 214.794 765.807C225.723 774.134 237.282 780.921 249.153 785.979C268.401 794.176 289.995 801.198 317.456 797.087C331.375 795.004 345.803 789.417 361.562 780.013C388.836 763.736 415.862 739.062 441.997 715.201C456.391 702.06 469.987 689.647 482.94 679.278C486.333 676.561 489.8 673.76 493.153 671.049C506.723 660.08 520.753 648.74 534.812 639.084C550.425 628.305 564.64 620.83 577.063 616.863C591.615 612.216 603.354 612.556 611.953 617.86C617.199 621.099 621.681 625.838 625.655 632.344C635.896 649.116 639.833 675.722 643.638 701.455C643.812 702.633 643.986 703.811 644.161 704.983C647.832 729.7 649.295 757.189 648.507 786.687C646.946 847.721 635.787 920.041 615.341 1001.64L614.932 1001.72Z" fill="#A1A1A1"/>
<path d="M255.859 790.14C255.086 789.705 254.326 789.274 253.581 788.845C242.497 782.493 231.679 774.364 221.433 764.682C213.108 756.744 205.449 747.946 198.666 738.535C188.968 725.099 180.714 708.991 174.129 690.657C167.77 672.951 162.772 652.622 159.274 630.231C155.846 608.293 154.185 585.065 153.122 567.278C150.586 525.745 146.19 489.749 140.059 460.287C130.128 412.571 116.207 379.053 96.248 354.805C84.2069 340.176 69.4579 327.731 53.5533 318.775C53.3068 318.636 53.0617 318.498 52.8139 318.362C39.1037 310.752 23.5821 307.975 8.8528 306.109C5.01407 305.632 1.00157 305.213 -3.07583 304.867C-5.31503 304.686 -7.57082 304.528 -9.95752 304.361C-26.7967 303.193 -45.882 301.866 -63.845 290.978C-74.7841 284.346 -85.0046 275.881 -94.888 267.693C-101.269 262.405 -107.868 256.94 -114.423 252.191C-123.436 245.664 -132.5 241.025 -141.37 238.408C-173.304 228.975 -206.715 233.135 -230.745 249.535L-230.776 248.984C-218.451 240.573 -204.101 235.363 -188.125 233.494C-172.868 231.711 -156.596 233.19 -141.072 237.777C-132.181 240.403 -123.09 245.05 -114.059 251.594C-107.496 256.347 -100.895 261.817 -94.5107 267.107C-84.6342 275.291 -74.4206 283.752 -63.4952 290.373C-45.5791 301.235 -26.5255 302.557 -9.71521 303.725C-7.32576 303.89 -5.06995 304.048 -2.82937 304.229C1.25078 304.577 5.2674 304.996 9.10889 305.474C23.863 307.344 39.4108 310.126 53.1554 317.752C69.3701 326.75 84.4095 339.371 96.6556 354.251C106.956 366.768 115.499 381.464 122.77 399.18C129.772 416.242 135.583 436.097 140.531 459.88C146.668 489.364 151.066 525.388 153.603 566.948C154.664 584.723 156.323 607.935 159.749 629.849C166.847 675.283 180.081 711.668 199.082 737.996C205.855 747.395 213.505 756.181 221.817 764.109C232.051 773.778 242.852 781.898 253.923 788.238C271.245 798.161 292.032 808.488 319.701 805.426C333.706 803.876 348.231 798.257 364.107 788.25C391.987 770.674 419.297 743.344 445.712 716.913C459.299 703.318 472.132 690.476 484.183 679.89C488.044 676.499 491.991 672.988 495.807 669.591C508.703 658.116 522.035 646.253 535.508 635.935C550.965 624.039 565.245 615.372 577.948 610.172C592.678 604.144 604.877 603 614.207 606.773C619.966 609.101 625.015 612.878 629.641 618.323C642.012 632.875 648.065 658.325 653.666 685.334C658.549 708.884 660.93 736.726 660.55 765.852C660.167 798.132 656.564 834.226 649.838 873.127C643.845 907.785 635.351 944.867 624.592 983.344L624.139 983.412C647.245 900.781 659.333 827.681 660.062 766.142C660.442 737.058 658.066 709.259 653.188 685.748C647.597 658.786 641.556 633.385 629.232 618.885C624.631 613.47 619.61 609.715 613.886 607.401C596.74 600.472 568.928 610.791 535.572 636.462C522.123 646.762 508.803 658.615 495.92 670.078C492.102 673.477 488.152 676.99 484.291 680.381C472.262 690.947 459.438 703.779 445.865 717.362C432.905 730.33 419.503 743.741 405.793 756.167C390.25 770.255 376.618 780.934 364.115 788.817C348.17 798.869 333.58 804.513 319.509 806.071C307.099 807.446 295.24 806.294 283.252 802.558C273.106 799.383 263.805 794.615 255.859 790.14Z" fill="#A1A1A1"/>
<path d="M277.248 803.803C270.228 799.85 263.905 795.307 258.297 791.153C247.987 783.517 237.928 774.053 228.403 763.024C220.719 754.044 213.688 744.27 207.509 733.971C190.572 705.797 179.247 668.398 172.884 619.643C170.108 598.383 168.614 576.347 167.322 555.603C164.723 514.735 158.984 479.554 150.263 451.03C137.437 409.08 119.438 380.483 93.6182 361.035C78.9067 349.954 61.6438 341.374 43.6954 336.222C28.6728 331.908 11.9036 332.47 -3.9857 333.412C-7.96631 333.657 -12.2309 333.972 -16.6583 334.347C-17.7665 334.445 -18.8872 334.548 -20.0216 334.649C-38.6672 336.348 -59.7649 338.269 -79.2685 327.287C-79.5976 327.101 -79.9238 326.914 -80.2515 326.72C-93.3125 319.052 -104.893 308.107 -116.092 297.519C-120.532 293.321 -125.125 288.982 -129.644 285.018C-138.472 277.278 -146.793 271.775 -155.088 268.197C-185.256 255.186 -216.165 253.873 -239.89 264.601L-239.817 263.934C-228.089 258.632 -214.071 256.187 -199.283 256.863C-184.738 257.528 -169.333 261.21 -154.731 267.509C-146.413 271.096 -138.07 276.612 -129.222 284.369C-124.698 288.337 -120.105 292.679 -115.663 296.875C-104.473 307.451 -92.9034 318.386 -79.8671 326.041C-60.1621 337.615 -38.7183 335.659 -19.8026 333.935C-18.6695 333.833 -17.5475 333.73 -16.4379 333.631C-12.0064 333.255 -7.74037 332.941 -3.75702 332.697C12.1598 331.751 28.958 331.192 44.022 335.516C61.9979 340.678 79.2897 349.27 94.0259 360.369C106.822 370.006 117.557 381.794 126.847 396.404C136.415 411.451 144.243 429.153 150.776 450.527C159.507 479.089 165.254 514.313 167.858 555.222C169.148 575.959 170.641 597.981 173.416 619.221C179.77 667.91 191.078 705.254 207.987 733.383C214.158 743.665 221.179 753.426 228.852 762.394C238.364 773.409 248.407 782.861 258.704 790.483C276.029 803.311 295.183 815.675 321.958 813.752C336.047 812.738 350.67 807.086 366.661 796.471C395.147 777.565 423.957 746.119 449.378 718.375C462.167 704.415 474.248 691.23 485.434 680.49C489.469 676.615 493.602 672.588 497.599 668.694C510.103 656.511 523.032 643.913 536.214 632.771C551.528 619.767 565.872 609.906 578.846 603.462C593.748 596.063 606.408 593.439 616.47 595.667C622.761 597.059 628.376 599.878 633.638 604.277C648.338 616.574 656.526 641.047 663.184 665.664C669.333 688.393 672.59 715.825 672.607 744.997C672.666 777.375 669 813.815 661.711 853.299C655.193 888.608 645.823 926.199 633.859 965.032L633.369 965.076C658.801 882.533 672.184 806.543 672.073 745.324C672.057 716.208 668.805 688.827 662.669 666.143C656.027 641.584 647.861 617.173 633.224 604.927C627.993 600.552 622.412 597.752 616.163 596.368C597.583 592.253 569.23 605.375 536.324 633.318C523.169 644.436 510.254 657.022 497.762 669.194C493.764 673.09 489.631 677.117 485.591 680.996C474.431 691.711 462.362 704.884 449.585 718.828C424.125 746.614 395.267 778.111 366.687 797.081C350.608 807.753 335.904 813.437 321.735 814.457C309.44 815.34 297.844 813.332 286.288 808.308C283.155 806.965 280.144 805.434 277.248 803.803Z" fill="#A1A1A1"/>
<path d="M289.611 814.266C289.51 814.209 289.411 814.153 289.311 814.097C279.414 808.466 270.893 800.815 263.012 793.46C253.448 784.537 244.151 773.737 235.374 761.363C228.331 751.347 221.932 740.594 216.354 729.407C201.552 699.771 192.064 661.531 186.496 609.058C184.489 590.165 183.218 570.321 181.986 551.133C181.833 548.732 181.677 546.332 181.522 543.932C178.818 503.016 171.735 468.646 160.469 441.781C145.042 404.995 122.317 380.622 90.9939 367.268C73.8184 359.948 54.3116 355.389 34.5826 354.084C19.0152 353.056 2.78413 356.331 -16.8186 360.718C-20.7976 361.617 -25.062 362.605 -30.2379 363.829L-30.5274 363.899C-40.5359 366.303 -51.879 369.025 -63.1948 369.579C-76.1907 370.216 -87.1361 367.882 -96.6621 362.472C-111.509 354.025 -123.918 340.531 -135.915 327.479C-138.854 324.282 -141.895 320.975 -144.872 317.856C-153.412 308.918 -161.243 302.422 -168.815 298C-196.697 281.717 -225.944 275.04 -249.053 279.677L-248.859 278.914C-237.538 276.641 -224.255 277.104 -210.444 280.25C-196.608 283.401 -182.068 289.286 -168.398 297.268C-160.804 301.703 -152.952 308.213 -144.394 317.171C-141.414 320.292 -138.373 323.598 -135.432 326.797C-123.449 339.831 -111.057 353.309 -96.2459 361.737C-96.1798 361.774 -96.1124 361.812 -96.0463 361.849C-74.8066 373.809 -50.1639 367.895 -30.3497 363.139L-30.0588 363.07C-24.8802 361.844 -20.6157 360.856 -16.6353 359.958C3.00051 355.564 19.2605 352.283 34.8762 353.315C54.6396 354.62 74.178 359.187 91.3824 366.52C106.71 373.056 119.639 381.934 130.91 393.668C143.055 406.311 152.903 421.859 161.013 441.201C172.301 468.118 179.397 502.544 182.105 543.527C182.261 545.927 182.415 548.329 182.568 550.73C183.799 569.911 185.07 589.748 187.074 608.627C192.634 661.034 202.107 699.22 216.884 728.807C222.454 739.979 228.845 750.714 235.876 760.718C244.642 773.075 253.926 783.859 263.475 792.767C280.576 808.728 298.09 822.982 324.203 822.113C338.374 821.639 353.093 815.955 369.201 804.73C398.299 784.454 427.35 750.014 452.985 719.625C464.985 705.399 476.321 691.959 486.67 681.13C490.652 676.963 494.732 672.631 498.679 668.441C511.017 655.339 523.775 641.794 536.907 629.644C552.095 615.531 566.504 604.475 579.732 596.783C594.809 588.018 607.926 583.918 618.716 584.6C625.406 585.024 631.471 586.809 637.24 590.057C637.365 590.128 637.49 590.198 637.616 590.272C655.456 600.538 665.729 625.461 672.688 646.027C680.099 667.937 684.237 694.96 684.652 724.175C685.153 756.653 681.426 793.436 673.571 833.507C666.522 869.465 656.275 907.568 643.108 946.758L642.583 946.776C662.173 888.463 685.269 802.573 684.065 724.546C683.653 695.398 679.525 668.439 672.132 646.58C665.195 626.072 654.954 601.222 637.199 591.008C631.356 587.637 625.214 585.802 618.424 585.373C598.431 584.111 569.536 600.035 537.059 630.212C523.957 642.334 511.213 655.864 498.888 668.95C494.941 673.143 490.858 677.476 486.874 681.646C476.552 692.448 465.23 705.87 453.243 720.081C427.563 750.525 398.456 785.031 369.245 805.386C353.03 816.686 338.211 822.408 323.945 822.883C311.855 823.283 300.618 820.464 289.611 814.266Z" fill="#A1A1A1"/>
<path d="M298.682 823.928C296.546 822.725 294.431 821.372 292.334 819.868C283.151 813.284 275.453 804.71 267.724 795.765C258.764 785.397 250.46 773.6 242.34 759.702C235.943 748.655 230.175 736.928 225.196 724.841C212.551 694.204 204.813 655.229 200.106 598.471C198.937 584.376 198.05 569.784 197.194 555.672C196.726 547.99 196.246 540.046 195.722 532.258C192.899 491.01 184.472 457.458 170.677 432.532C152.451 399.596 125.531 380.285 88.3763 373.495C68.7465 369.908 46.9958 369.369 25.4779 371.937C8.19192 374 -9.55555 380.573 -28.3456 387.532L-29.6447 388.013C-32.5836 389.107 -35.5583 390.22 -38.5688 391.344C-40.3037 391.994 -42.0497 392.647 -43.8108 393.304C-54.8146 397.447 -66.5366 401.63 -78.2403 403.341C-91.8285 405.326 -103.22 403.652 -113.07 398.222C-129.465 389.177 -142.299 373.045 -154.705 357.438C-156.474 355.209 -158.307 352.906 -160.098 350.692C-168.49 340.307 -175.622 333.035 -182.542 327.799C-208.079 308.481 -235.66 296.43 -258.215 294.736L-257.895 293.901C-235.281 295.598 -207.641 307.67 -182.059 327.023C-175.12 332.273 -167.971 339.564 -159.562 349.968C-157.771 352.186 -155.938 354.489 -154.167 356.718C-141.913 372.134 -129.244 388.067 -113.145 397.132C-112.972 397.23 -112.798 397.327 -112.622 397.423C-91.6944 408.962 -68.0706 401.679 -43.6839 392.503C-41.9228 391.845 -40.1769 391.192 -38.442 390.542C-35.43 389.415 -32.4581 388.305 -29.5165 387.209L-28.2174 386.728C-9.3956 379.758 8.38221 373.173 25.7247 371.103C47.2826 368.528 69.0705 369.069 88.7348 372.662C125.983 379.469 152.974 398.833 171.25 431.858C185.078 456.849 193.526 490.477 196.356 531.816C196.878 539.606 197.361 547.549 197.827 555.233C198.682 569.342 199.569 583.93 200.738 598.016C205.439 654.708 213.165 693.628 225.787 724.213C230.76 736.281 236.519 747.993 242.908 759.022C251.016 772.901 259.306 784.681 268.254 795.032C281.836 810.748 298.737 830.31 326.459 830.45C340.71 830.523 355.525 824.805 371.749 812.966C401.468 791.284 430.734 753.731 456.554 720.601C467.77 706.208 478.365 692.613 487.91 681.754C491.629 677.523 495.444 673.129 499.132 668.878C511.505 654.622 524.299 639.882 537.603 626.502C552.685 611.276 567.159 599.024 580.621 590.087C595.877 579.96 609.449 574.386 620.963 573.519C628.352 572.962 635.101 573.855 641.596 576.248C650.295 579.452 658.008 585.607 665.183 595.054C671.252 603.05 676.818 613.292 682.198 626.369C690.875 647.46 695.889 674.074 696.701 703.334C697.647 735.911 693.856 773.043 685.435 813.698C677.853 850.306 666.727 888.919 652.364 928.468L651.807 928.452C682.13 844.957 697.849 765.154 696.066 703.747C695.257 674.565 690.256 648.026 681.604 626.999C670.012 598.824 657.172 582.956 641.188 577.066C634.737 574.688 628.035 573.802 620.698 574.353C593.307 576.414 560.501 604.165 537.806 627.079C524.535 640.425 511.756 655.148 499.399 669.387C495.707 673.64 491.892 678.036 488.171 682.27C478.655 693.096 468.072 706.676 456.87 721.051C430.994 754.253 401.667 791.885 371.813 813.665C355.46 825.596 340.527 831.361 326.161 831.288C316.424 831.238 307.371 828.821 298.682 823.928Z" fill="#A1A1A1"/>
<path d="M306.001 833.269C291.441 825.07 281.2 810.517 272.438 798.068C264.194 786.357 256.629 773.262 249.309 758.039C243.557 745.972 238.419 733.267 234.039 720.275C220.893 681.356 216.502 633.646 213.717 587.885C213.148 578.543 212.653 568.963 212.175 559.701C211.511 546.838 210.824 533.539 209.924 520.588C206.972 478.876 197.204 446.138 180.893 423.283C159.791 393.722 128.675 379.47 85.7665 379.716C63.6741 379.842 39.6808 383.325 16.3795 389.787C-1.59114 394.77 -19.4849 403.76 -38.4284 413.278C-39.7705 413.952 -41.1168 414.629 -42.4673 415.305L-43.2011 415.674C-47.8084 417.992 -52.5715 420.387 -57.3787 422.776C-68.9202 428.543 -81.2788 434.269 -93.4435 437.111C-107.565 440.41 -119.35 439.384 -129.477 433.972C-147.254 424.476 -160.191 405.598 -172.702 387.342C-173.579 386.062 -174.451 384.788 -175.323 383.525C-183.59 371.516 -190.05 363.519 -196.266 357.593C-219.369 335.575 -245.286 318.148 -267.373 309.782L-266.932 308.902C-244.808 317.279 -218.852 334.731 -195.719 356.779C-189.485 362.721 -183.011 370.736 -174.729 382.766C-173.857 384.03 -172.985 385.304 -172.108 386.587C-159.621 404.807 -146.705 423.644 -129 433.109C-107.008 444.859 -80.4657 433.505 -57.3138 421.939C-52.5066 419.55 -47.7435 417.155 -43.1376 414.84L-42.4038 414.47C-41.052 413.793 -39.707 413.117 -38.3649 412.444C-19.3883 402.909 -1.46419 393.903 16.5671 388.904C39.9112 382.429 63.9486 378.942 86.0796 378.815C106.422 378.7 123.738 381.77 139.018 388.201C156.061 395.376 170.347 406.923 181.481 422.522C197.845 445.447 207.643 478.28 210.604 520.108C211.506 533.066 212.193 546.369 212.856 559.234C213.334 568.497 213.829 578.072 214.398 587.411C217.181 633.123 221.564 680.78 234.686 719.627C239.061 732.6 244.191 745.288 249.935 757.337C257.243 772.538 264.796 785.612 273.028 797.307C285.666 815.264 301.395 837.612 328.706 838.795C343.038 839.414 357.948 833.662 374.289 821.211C404.643 798.079 434.089 757.303 460.07 721.324C470.509 706.868 480.368 693.215 489.143 682.385C492.389 678.379 495.721 674.227 498.943 670.211C511.548 654.505 524.585 638.262 538.291 623.366C553.284 607.016 567.825 593.563 581.505 583.387C596.94 571.903 610.969 564.856 623.202 562.441C631.146 560.874 638.46 560.804 645.567 562.229C655.141 564.15 664.067 569.294 672.1 577.516C679.134 584.717 685.728 594.539 691.699 606.713C701.639 626.983 707.534 653.187 708.745 682.495C710.135 715.172 706.284 752.649 697.296 793.89C689.177 831.146 677.172 870.273 661.614 910.181L661.028 910.129C693.995 825.568 710.7 744.888 708.064 682.952C706.855 653.739 700.981 627.621 691.075 607.419C678.233 581.235 663.22 566.744 645.177 563.125C638.122 561.71 630.859 561.779 622.973 563.334C593.868 569.08 560.999 599.466 538.549 623.948C524.877 638.805 511.859 655.026 499.27 670.712C496.048 674.728 492.713 678.882 489.465 682.893C480.719 693.687 470.872 707.322 460.447 721.759C447.947 739.068 433.782 758.685 419.284 776.391C402.672 796.678 387.983 811.58 374.377 821.949C366.509 827.945 358.797 832.475 351.453 835.416C343.555 838.577 335.789 840.018 328.372 839.696C319.885 839.331 312.51 836.935 306.001 833.269Z" fill="#A1A1A1"/>
<path d="M312.151 842.456C307.338 839.746 302.764 836.071 298.376 831.405C289.734 822.214 283.046 810.603 277.142 800.362C269.702 787.451 262.679 772.647 256.27 756.364C251.165 743.291 246.656 729.608 242.875 715.695C232.003 675.79 229.399 629.403 227.32 577.288C227.135 572.656 226.956 567.938 226.785 563.372C226.106 545.402 225.405 526.82 224.115 508.909C221.031 466.653 209.922 434.731 191.097 414.029C167.353 387.914 131.033 378.456 83.1484 385.926C58.577 389.759 32.341 397.259 7.27559 407.621C-11.5973 415.423 -29.9363 426.824 -49.3529 438.895C-51.3259 440.122 -53.3058 441.352 -55.2953 442.586C-60.2499 445.662 -65.5769 448.958 -70.9521 452.234C-82.2434 459.138 -95.555 466.753 -108.652 470.868C-123.315 475.475 -135.497 475.099 -145.891 469.715C-164.921 459.862 -177.712 438.147 -190.082 417.146L-190.553 416.347C-196.611 406.068 -203.159 395.441 -209.996 387.377C-230.835 362.801 -254.464 340.58 -276.528 324.809L-275.98 323.908C-253.892 339.696 -230.241 361.936 -209.384 386.535C-202.528 394.622 -195.968 405.266 -189.9 415.561L-189.429 416.36C-177.085 437.313 -164.317 458.98 -145.381 468.786C-123.512 480.111 -96.683 467.111 -70.9478 451.373C-65.574 448.1 -60.2497 444.802 -55.2965 441.728C-53.3084 440.497 -51.3271 439.265 -49.3555 438.04C-29.9058 425.949 -11.5336 414.528 7.4013 406.699C32.515 396.316 58.8006 388.801 83.4175 384.962C105.882 381.459 125.953 381.63 143.065 385.471C162.618 389.862 178.984 399.181 191.707 413.172C210.603 433.954 221.754 465.99 224.848 508.391C226.138 526.317 226.841 544.906 227.519 562.887C227.692 567.45 227.871 572.168 228.056 576.8C230.132 628.865 232.734 675.202 243.584 715.037C247.362 728.929 251.863 742.591 256.96 755.647C263.361 771.906 270.372 786.687 277.801 799.578C289.445 819.788 303.938 844.936 330.956 847.134C345.367 848.306 360.37 842.523 376.827 829.451C407.833 804.823 438.72 758.779 463.54 721.781C473.207 707.37 482.337 693.758 490.372 683.019C492.904 679.633 495.504 676.14 498.018 672.76C511.079 655.201 524.587 637.045 538.977 620.234C561.325 594.049 594.465 560.847 625.433 551.371C633.983 548.754 641.867 547.722 649.531 548.216C669.647 549.398 687.029 562.469 701.197 587.059C712.401 606.507 719.176 632.302 720.787 661.656C722.622 694.432 718.709 732.257 709.153 774.085C704.77 793.271 699.19 813.256 692.57 833.488C686.247 852.813 678.942 872.464 670.859 891.897L670.246 891.804C705.866 806.176 723.556 724.618 720.057 662.154C718.451 632.909 711.703 607.213 700.543 587.838C686.442 563.361 669.156 550.354 649.167 549.178C641.559 548.687 633.736 549.711 625.249 552.308C594.495 561.718 561.532 594.754 539.294 620.811C524.94 637.577 511.453 655.71 498.408 673.244C495.893 676.624 493.293 680.121 490.758 683.508C482.751 694.211 473.632 707.803 463.98 722.194C451.491 740.811 437.336 761.913 422.656 781.085C405.788 803.115 390.834 819.19 376.94 830.226C369.014 836.522 361.244 841.22 353.848 844.19C345.881 847.39 338.052 848.705 330.583 848.095C324.026 847.565 317.914 845.702 312.151 842.456Z" fill="#A1A1A1"/>
<path d="M317.496 851.517C311.727 848.269 306.394 843.51 301.401 837.177C293.309 826.919 287.224 814.03 281.855 802.658C275.096 788.342 268.832 772.206 263.239 754.696C258.778 740.623 254.902 725.964 251.718 711.123C242.948 670.306 242.039 623.551 241.074 574.055C241.027 571.606 240.98 569.154 240.931 566.701C240.471 543.703 239.998 519.92 238.315 497.241C235.095 454.395 222.646 423.287 201.315 404.782C174.522 381.536 133.887 377.284 80.5407 392.138C53.8571 399.568 24.6076 411.403 -1.81919 425.461C-21.7735 436.075 -40.7964 449.949 -60.9371 464.64C-63.3217 466.379 -65.7132 468.124 -68.1157 469.869C-72.9194 473.363 -78.6241 477.501 -84.5206 481.699C-95.4566 489.501 -109.81 499.159 -123.839 504.605C-139.037 510.505 -151.619 510.79 -162.302 505.47C-171.052 501.043 -179.149 493.389 -187.055 482.066C-193.843 472.345 -199.552 461.421 -205.784 449.18C-211.431 437.932 -217.469 426.199 -223.729 417.17C-242.271 390.424 -263.116 364.409 -285.68 339.841L-285.038 338.932C-262.459 363.511 -241.604 389.545 -223.051 416.304C-216.774 425.358 -210.728 437.109 -205.073 448.368C-194.629 468.888 -181.633 494.432 -161.764 504.479C-138.97 515.827 -111.2 499.819 -84.5865 480.828C-78.6943 476.633 -72.9923 472.497 -68.1913 469.005C-65.7888 467.26 -63.3973 465.515 -61.0155 463.777C-40.8417 449.064 -21.7856 435.166 -1.76652 424.517C24.7141 410.431 54.0201 398.573 80.7548 391.13C134.263 376.231 175.031 380.509 201.927 403.843C212.239 412.789 220.57 424.772 226.685 439.456C233.247 455.21 237.42 474.47 239.092 496.693C240.778 519.396 241.252 543.192 241.71 566.206C241.758 568.661 241.807 571.111 241.855 573.56C242.817 623.013 243.727 669.723 252.48 710.462C255.659 725.282 259.529 739.92 263.985 753.971C269.571 771.455 275.824 787.568 282.573 801.862C293.181 824.328 306.383 852.287 333.204 855.486C347.732 857.219 362.832 851.403 379.362 837.706C411.044 811.606 442.039 761.936 466.943 722.027C475.851 707.753 484.264 694.272 491.597 683.668C493.11 681.48 494.63 679.28 496.157 677.068C509.951 657.086 524.216 636.423 539.66 617.115C561.835 589.322 595.102 553.436 627.661 540.312C636.745 536.651 645.194 534.656 653.494 534.214C665.058 533.55 675.968 536.321 685.923 542.444C695.011 548.034 703.345 556.436 710.693 567.413C723.162 586.034 730.816 611.419 732.828 640.821C735.111 673.694 731.134 711.87 721.01 754.285C716.365 773.746 710.425 794.004 703.354 814.496C696.582 834.121 688.76 854.015 680.102 873.623L679.465 873.484C717.194 788.044 736.36 703.44 732.051 641.367C730.046 612.091 722.426 586.813 710.012 568.268C694.707 545.402 675.048 533.982 653.159 535.238C644.922 535.677 636.538 537.656 627.525 541.29C595.19 554.323 562.1 590.027 540.035 617.682C524.633 636.939 510.388 657.572 496.612 677.528C495.085 679.74 493.564 681.943 492.051 684.13C484.744 694.694 476.342 708.159 467.448 722.411C442.472 762.435 411.388 812.249 379.502 838.516C371.534 845.117 363.707 849.991 356.243 852.996C348.212 856.228 340.321 857.412 332.79 856.514C327.356 855.86 322.276 854.209 317.496 851.517Z" fill="#A1A1A1"/>
<path d="M322.255 860.494C315.683 856.793 309.786 850.977 304.424 842.945C296.838 831.582 291.38 817.432 286.565 804.952C280.479 789.178 274.976 771.705 270.204 753.024C266.384 737.97 263.14 722.332 260.557 706.548C254.192 667.69 254.338 624.559 254.492 578.895C254.518 571.43 254.543 563.712 254.539 556.107C254.518 529.384 254.164 507.16 252.511 485.568C249.153 442.1 235.366 411.807 211.532 395.528C181.583 375.071 136.633 376.017 77.9308 398.34C48.7681 409.431 17.2152 425.392 -10.9164 443.285C-32.1092 456.766 -52.0105 473.224 -73.0795 490.648C-75.6895 492.807 -78.3091 494.973 -80.9371 497.138C-85.6228 501.002 -91.8089 506.088 -98.0859 511.146C-124.538 532.495 -154.806 552.765 -178.712 541.211C-179.455 540.848 -180.189 540.46 -180.911 540.054C-198.941 529.901 -210.183 506.81 -221.014 481.997L-221.686 480.441C-227.016 468.088 -232.051 456.421 -237.459 446.948C-257.837 411.245 -278.82 378.979 -294.825 354.859L-294.098 353.945C-278.091 378.073 -257.101 410.346 -236.716 446.063C-231.293 455.561 -226.253 467.244 -220.916 479.611L-220.245 481.166C-209.017 506.888 -197.351 530.761 -178.146 540.159C-154.505 551.583 -124.48 531.463 -98.2249 510.275C-91.9521 505.222 -85.7715 500.139 -81.0871 496.277C-78.4578 494.11 -75.8409 491.946 -73.2309 489.787C-52.1288 472.336 -32.1958 455.85 -10.9353 442.327C17.2542 424.395 48.8705 408.402 78.0911 397.289C105.211 386.975 129.797 381.174 151.168 380.043C175.688 378.746 196.204 383.611 212.147 394.5C236.105 410.862 249.963 441.305 253.337 484.976C254.992 506.601 255.345 528.848 255.368 555.594C255.374 563.2 255.347 570.92 255.323 578.386C255.168 624.005 255.022 667.094 261.377 705.875C263.955 721.639 267.194 737.252 271.008 752.283C275.772 770.941 281.268 788.387 287.345 804.136C296.883 828.861 308.755 859.631 335.455 863.824C350.05 866.115 365.242 860.266 381.898 845.945C414.274 818.234 445.352 764.834 470.325 721.926C478.473 707.927 486.17 694.702 492.826 684.302L492.978 684.064C507.884 660.777 523.298 636.699 540.346 613.976C555.195 594.146 569.926 577.095 584.131 563.292C600.147 547.731 615.543 536.273 629.892 529.236C639.493 524.526 648.51 521.568 657.457 520.193C681.673 516.403 703.367 525.929 720.193 547.747C726.965 556.527 732.522 567.181 736.714 579.411C740.93 591.713 743.674 605.363 744.874 619.975C747.604 652.948 743.566 691.472 732.87 734.476C723.257 773.13 708.208 814.924 689.349 855.337L688.691 855.151C729.054 768.655 749.231 683.153 744.048 620.568C741.644 591.268 733.15 566.41 719.484 548.693C702.753 526.999 681.201 517.524 657.153 521.29C648.275 522.655 639.331 525.59 629.805 530.26C603.013 543.401 572.229 572.545 540.78 614.541C523.777 637.204 508.385 661.25 493.499 684.504L493.347 684.741C486.715 695.103 479.029 708.308 470.892 722.288C445.842 765.326 414.67 818.887 382.066 846.793C374.036 853.699 366.151 858.74 358.634 861.777C350.529 865.052 342.577 866.107 334.995 864.92C330.482 864.208 326.244 862.74 322.255 860.494Z" fill="#A1A1A1"/>
<path d="M-197.568 575.696C-205.631 571.156 -212.833 563.411 -219.521 552.11C-226.165 540.882 -231.483 527.552 -236.243 514.822C-237.1 512.509 -237.946 510.205 -238.787 507.918C-242.971 496.529 -246.924 485.773 -251.186 476.728C-268.183 440.669 -285.001 407.391 -301.268 375.213L-303.962 369.88L-303.162 368.969L-300.468 374.302C-284.202 406.486 -267.381 439.765 -250.381 475.833C-246.107 484.901 -242.148 495.67 -237.96 507.074C-237.121 509.36 -236.274 511.664 -235.417 513.974C-225.647 540.107 -214.444 566.41 -194.526 575.844C-169.993 587.356 -137.459 562.589 -111.86 539.729C-105.309 533.885 -98.8625 528.014 -93.9785 523.553C-91.2853 521.095 -88.6004 518.636 -85.9223 516.182C-63.718 495.847 -42.7451 476.638 -20.0998 460.144C9.78899 438.376 43.7156 418.242 75.4304 403.456C104.854 389.737 131.71 380.93 155.253 377.281C182.257 373.094 204.838 375.746 222.368 385.161C248.843 399.157 264.058 428.803 267.586 473.265C269.529 497.933 269.405 523.365 269.028 544.991C268.823 556.759 268.49 568.753 268.169 580.353C267.029 621.417 265.851 663.877 270.275 701.295C272.249 718.013 274.86 734.604 278.034 750.604C281.979 770.375 286.716 789.154 292.118 806.418C300.562 833.402 311.07 866.984 337.708 872.166C352.369 875.018 367.654 869.138 384.436 854.189C417.533 824.802 448.659 767.544 473.667 721.536C481.063 707.932 488.048 695.078 494.056 684.948C507.597 662.107 523.513 635.663 541.034 610.85C555.867 589.818 570.662 571.564 585.005 556.597C601.23 539.666 617.083 526.739 632.123 518.172C642.089 512.495 651.946 508.464 661.42 506.186C674.954 502.91 687.842 503.315 699.727 507.394C710.857 511.214 720.938 518.178 729.691 528.09C737.073 536.45 743.164 546.794 747.794 558.837C752.452 570.955 755.523 584.513 756.919 599.134C758.538 615.974 758.245 634.621 756.048 654.555C753.968 673.443 750.16 693.67 744.732 714.673C734.578 753.965 718.623 796.288 698.596 837.058L697.917 836.821C740.923 749.27 762.11 662.871 756.046 599.777C753.282 570.856 743.664 545.76 728.962 529.108C710.782 508.52 687.334 500.988 661.154 507.327C651.757 509.586 641.978 513.587 632.091 519.218C603.752 535.359 573.283 566.368 541.53 611.392C524.055 636.136 508.168 662.536 494.649 685.34C488.664 695.435 481.688 708.267 474.303 721.856C461.965 744.552 447.98 770.279 432.814 794.223C415.216 822.006 399.459 841.907 384.64 855.064C376.549 862.272 368.605 867.484 361.033 870.555C352.855 873.872 344.839 874.801 337.211 873.315C333.362 872.567 329.847 871.232 326.627 869.418C307.342 858.559 298.551 830.462 291.281 807.23C285.873 789.94 281.127 771.134 277.178 751.335C273.998 735.313 271.385 718.697 269.408 701.955C264.975 664.46 266.154 621.956 267.294 580.853C267.615 569.257 267.948 557.266 268.154 545.504C268.531 523.905 268.655 498.509 266.715 473.887C263.208 429.663 248.081 400.19 221.758 386.267C180.564 364.144 119.392 383.989 75.3265 404.535C43.6752 419.293 9.81888 439.383 -20.0078 461.108C-42.5855 477.553 -63.5267 496.731 -85.6964 517.034C-88.3745 519.487 -91.0608 521.946 -93.7554 524.406C-98.6421 528.869 -105.093 534.744 -111.65 540.594C-122.396 550.191 -138.502 563.9 -154.236 572.115C-161.877 576.103 -169.022 578.596 -175.474 579.526C-182.667 580.562 -189.278 579.698 -195.118 576.956C-195.947 576.57 -196.763 576.149 -197.568 575.696Z" fill="#A1A1A1"/>
<path d="M-214.225 611.334C-222.297 606.789 -229.359 598.837 -235.748 587.129C-242.364 575.009 -247.407 560.366 -251.465 547.639C-252.709 543.724 -253.929 539.778 -255.108 535.961C-258.407 525.291 -261.521 515.211 -264.908 506.506C-277.07 475.243 -289.332 444.502 -301.19 414.771C-305.113 404.937 -309.168 394.769 -313.092 384.902L-312.224 383.99C-308.3 393.858 -304.244 404.025 -300.322 413.859C-288.463 443.591 -276.2 474.335 -264.039 505.602C-260.643 514.331 -257.523 524.421 -254.222 535.105C-253.044 538.921 -251.823 542.865 -250.581 546.779C-242.161 573.167 -231.456 602.11 -210.902 611.527C-185.64 623.042 -151.987 594.944 -125.49 569.181C-118.7 562.582 -111.97 555.907 -106.866 550.829C-104.245 548.224 -101.632 545.618 -99.0236 543.018C-75.5708 519.635 -53.4199 497.549 -29.26 477.965C2.16244 452.495 38.3994 428.226 72.7726 409.627C120.545 383.898 187.049 357.15 232.588 375.831C261.6 387.621 278.17 416.464 281.834 461.563C283.477 481.832 283.74 504.293 282.687 534.398C282.155 549.611 281.335 565.228 280.543 580.326C278.482 619.611 276.349 660.232 279.17 696.729C280.535 714.414 282.515 731.979 285.057 748.939C288.141 769.461 292.123 789.573 296.887 808.715C304.272 838.003 313.46 874.457 339.955 880.523C354.439 883.925 370.256 877.844 386.968 862.451C420.821 831.316 453.274 767.465 476.968 720.844C483.618 707.76 489.898 695.402 495.279 685.611C507.237 663.848 523.32 635.331 541.715 607.742C573.578 559.925 604.745 526.071 634.349 507.128C644.752 500.439 655.192 495.417 665.377 492.198C679.873 487.606 693.744 486.838 706.605 489.919C718.721 492.822 729.682 499.055 739.184 508.448C747.17 516.431 753.787 526.476 758.854 538.299C763.969 550.241 767.369 563.7 768.963 578.306C770.808 595.184 770.611 613.948 768.372 634.079C766.252 653.157 762.287 673.613 756.589 694.884C745.889 734.817 729.031 777.666 707.837 818.798L707.141 818.506C752.801 729.898 774.999 642.599 768.042 579C764.895 550.151 754.381 525.485 738.436 509.547C718.699 490.041 693.359 484.454 665.152 493.39C655.05 496.582 644.695 501.564 634.374 508.2C604.966 527.017 573.981 560.682 542.277 608.265C523.931 635.779 507.881 664.24 495.946 685.96C490.585 695.718 484.312 708.06 477.67 721.126C465.422 745.225 451.538 772.542 436.223 798.218C418.388 828.116 402.355 849.424 387.205 863.357C379.041 870.877 371.038 876.266 363.415 879.372C355.151 882.742 347.076 883.537 339.414 881.738C327.496 879.008 318.031 870.101 310.476 854.506C303.91 840.949 299.701 824.26 295.989 809.538C291.216 790.368 287.231 770.228 284.14 749.677C281.595 732.693 279.611 715.103 278.244 697.395C275.417 660.823 277.551 620.157 279.614 580.832C280.408 565.737 281.225 550.129 281.757 534.929C282.807 504.877 282.544 482.458 280.905 462.236C277.267 417.398 260.805 388.732 231.978 377.017C186.634 358.42 120.343 385.09 72.7142 410.742C38.4099 429.302 2.24882 453.52 -29.1073 478.937C-53.1997 498.465 -75.3188 520.52 -98.7357 543.869C-101.345 546.471 -103.959 549.077 -106.579 551.683C-111.687 556.765 -118.423 563.446 -125.22 570.051C-151.952 596.044 -185.921 624.384 -211.53 612.709C-212.439 612.291 -213.339 611.833 -214.225 611.334Z" fill="#A1A1A1"/>
<path d="M-230.834 647.007C-252.89 634.587 -262.429 597.398 -270.885 564.429C-273.484 554.299 -275.938 544.729 -278.636 536.286L-322.226 399.926L-321.296 399.017L-277.706 535.377C-274.999 543.841 -272.542 553.422 -269.94 563.567C-261.158 597.81 -251.202 636.624 -227.284 647.215C-201.315 658.717 -166.529 627.296 -139.126 598.64C-130.164 589.268 -121.19 579.65 -112.51 570.347C-88.7723 544.909 -64.2269 518.603 -38.4252 495.785C-17.938 477.668 5.05894 459.518 28.0773 443.302C53.3296 425.51 78.2703 410.186 102.202 397.753C128.589 384.047 153.103 374.222 175.062 368.553C199.35 362.284 220.443 361.139 237.761 365.151C272.452 373.189 292.075 401.685 296.079 449.85C299.409 489.874 295.932 535.09 292.57 578.819C289.643 616.882 286.618 656.238 288.064 692.151C289.736 733.632 294.309 773.618 301.66 810.997C307.852 842.492 315.558 881.691 342.21 888.863C364.718 894.922 389.32 877.848 417.42 836.66C441.323 801.625 462.902 756.251 480.241 719.795C486.15 707.37 491.731 695.635 496.507 686.259C522.832 634.57 547.653 593.641 572.386 561.134C587.817 540.853 603.352 523.776 618.558 510.378C635.544 495.411 652.629 484.581 669.338 478.19C683.794 472.661 697.744 470.588 710.802 472.03C723.232 473.403 734.592 477.915 744.568 485.44C764.187 500.239 777.128 525.816 781.006 557.457C783.08 574.37 782.976 593.255 780.698 613.583C778.538 632.85 774.418 653.537 768.448 675.076C757.201 715.648 739.437 759.025 717.078 800.513L716.366 800.167C763.979 711.817 787.782 621.362 780.036 558.2C771.813 491.126 725.178 457.994 669.147 479.424C613.643 500.654 557.413 568.406 497.242 686.553C492.482 695.899 486.908 707.62 481.007 720.029C463.63 756.564 442.006 802.036 417.994 837.228C404.915 856.397 392.313 870.624 380.536 879.517C373.913 884.516 367.378 887.97 361.114 889.778C354.447 891.702 347.889 891.822 341.62 890.136C339.058 889.446 336.618 888.45 334.301 887.146C325.857 882.391 319.007 873.518 313.496 860.254C307.288 845.311 303.635 826.736 300.7 811.812C293.342 774.38 288.761 734.34 287.086 692.8C285.634 656.809 288.665 617.408 291.594 579.305C294.953 535.632 298.425 490.471 295.103 450.549C291.123 402.711 271.638 374.406 237.186 366.424C167.496 350.277 45.577 422.668 -38.2092 496.76C-63.9404 519.514 -88.4528 545.784 -112.159 571.189C-120.843 580.495 -129.822 590.12 -138.793 599.501C-156.986 618.525 -171.555 631.279 -184.641 639.633C-192.807 644.846 -200.424 648.292 -207.278 649.875C-214.898 651.634 -221.851 651.16 -227.945 648.462C-228.927 648.023 -229.892 647.537 -230.834 647.007Z" fill="#A1A1A1"/>
</g>
</svg>
