<svg width="320" height="216" viewBox="0 0 320 216" fill="none" xmlns="http://www.w3.org/2000/svg">
<path d="M287.918 155.484C287.918 84.8375 230.647 27.5671 160.001 27.5671C89.3539 27.5671 32.0835 84.8375 32.0835 155.484" stroke="#A7CEFC" stroke-width="2" stroke-dasharray="15 15"/>
<line x1="31.3887" y1="153.984" x2="287.916" y2="153.984" stroke="#A7CEFC" stroke-width="3" stroke-dasharray="15 15"/>
<line x1="84.2602" y1="51.9986" x2="137.992" y2="126.877" stroke="#A7CEFC" stroke-width="3" stroke-dasharray="15 15"/>
<line x1="246.618" y1="61.1243" x2="193.415" y2="128.336" stroke="#A7CEFC" stroke-width="3" stroke-dasharray="15 15"/>
<rect x="137.234" y="127.865" width="55.2387" height="55.2387" rx="8.5" stroke="#A7CEFC" stroke-width="3" stroke-dasharray="15 15"/>
<g filter="url(#filter0_d_9_22982)">
<rect x="147.52" y="138.151" width="34.6659" height="34.6659" rx="10" fill="white"/>
</g>
<path d="M155 150.808V154.191C155 155.222 156.287 155.771 157.073 155.05L160.827 151.667C161.649 150.928 161.113 149.623 159.987 149.623H156.233C155.554 149.623 155 150.155 155 150.808Z" fill="#5986EF"/>
<path d="M172.767 149.623H169.013C167.905 149.623 167.351 150.928 168.173 151.667L171.927 155.05C172.713 155.754 174 155.222 174 154.191V150.808C174 150.155 173.446 149.623 172.767 149.623Z" fill="#5986EF"/>
<path d="M165.349 157.884L171.927 163.826C172.713 164.53 174 163.998 174 162.967V159.55C174 159.223 173.857 158.914 173.607 158.691L165.349 151.22C164.866 150.791 164.134 150.791 163.651 151.22L155.393 158.691C155.143 158.914 155 159.223 155 159.55V162.967C155 163.998 156.287 164.547 157.073 163.826L163.651 157.884C164.134 157.454 164.866 157.454 165.349 157.884Z" fill="#5986EF"/>
<g filter="url(#filter1_d_9_22982)">
<rect x="14.75" y="138.151" width="34.6659" height="34.6659" rx="10" fill="white"/>
</g>
<path d="M31.3052 156.819C31.1388 156.819 30.9724 156.755 30.8456 156.628C30.5918 156.374 30.5918 155.963 30.8456 155.709L35.0579 151.497C35.3114 151.243 35.7234 151.243 35.9769 151.497C36.2308 151.751 36.2308 152.162 35.9769 152.416L31.7647 156.628C31.638 156.755 31.4716 156.819 31.3052 156.819Z" fill="#FFE492"/>
<path d="M31.3056 156.819C31.1392 156.819 30.9732 156.756 30.8461 156.629L28.7226 154.505C28.4688 154.252 28.4688 153.84 28.7226 153.586C28.9761 153.333 29.3879 153.333 29.6417 153.586L31.7652 155.71C32.019 155.963 32.019 156.375 31.7652 156.629C31.6384 156.756 31.472 156.819 31.3056 156.819Z" fill="#FFE492"/>
<path d="M32.0824 163.587C32.0148 163.587 31.9463 163.577 31.8787 163.554C27.724 162.184 24.9326 158.324 24.9326 153.948C24.9326 153.59 25.2238 153.298 25.5826 153.298C25.9414 153.298 26.2326 153.59 26.2326 153.948C26.2326 157.761 28.6652 161.125 32.2859 162.32C32.6268 162.432 32.8121 162.8 32.6996 163.141C32.6096 163.414 32.3554 163.587 32.0824 163.587Z" fill="#FFE492"/>
<path d="M25.5826 154.598C25.2238 154.598 24.9326 154.307 24.9326 153.948V149.35C24.9326 148.991 25.2238 148.7 25.5826 148.7C25.9414 148.7 26.2326 148.991 26.2326 149.35V153.948C26.2326 154.308 25.9414 154.598 25.5826 154.598Z" fill="#FFE492"/>
<path d="M25.582 150C25.2629 150 24.9844 149.765 24.9389 149.439C24.8895 149.084 25.1375 148.755 25.4933 148.706C27.689 148.401 29.8082 147.745 31.7927 146.756C32.1141 146.596 32.5044 146.726 32.6643 147.048C32.8245 147.369 32.6935 147.759 32.3724 147.919C30.2616 148.971 28.0075 149.669 25.6721 149.994C25.6418 149.998 25.6116 150 25.582 150Z" fill="#FFE492"/>
<path d="M32.0827 163.587C31.81 163.587 31.5555 163.414 31.4655 163.141C31.3531 162.8 31.5383 162.432 31.8792 162.32C35.5 161.126 37.9325 157.761 37.9325 153.948C37.9325 153.59 38.2237 153.298 38.5825 153.298C38.9413 153.298 39.2325 153.59 39.2325 153.948C39.2325 158.323 36.4411 162.184 32.2861 163.554C32.2185 163.577 32.1503 163.587 32.0827 163.587Z" fill="#FFE492"/>
<path d="M38.5826 154.598C38.2238 154.598 37.9326 154.307 37.9326 153.948V149.35C37.9326 148.991 38.2238 148.7 38.5826 148.7C38.9414 148.7 39.2326 148.991 39.2326 149.35V153.948C39.2326 154.308 38.9414 154.598 38.5826 154.598Z" fill="#FFE492"/>
<path d="M38.5836 150C38.5537 150 38.5234 149.998 38.4932 149.994C36.1578 149.669 33.9037 148.971 31.7929 147.919C31.4718 147.759 31.3408 147.369 31.501 147.048C31.6609 146.726 32.0512 146.596 32.3726 146.756C34.357 147.744 36.4763 148.401 38.672 148.706C39.0275 148.755 39.2758 149.084 39.2264 149.439C39.1815 149.765 38.903 150 38.5836 150Z" fill="#FFE492"/>
<g filter="url(#filter2_d_9_22982)">
<rect x="270.584" y="138.151" width="34.6659" height="34.6659" rx="10" fill="white"/>
</g>
<g clip-path="url(#clip0_9_22982)">
<path d="M293.767 152.722H292.303V149.381C292.303 147.012 290.335 145.084 287.916 145.084C285.496 145.084 283.528 147.012 283.528 149.381V152.722H282.067C280.723 152.722 279.63 153.815 279.63 155.159V163.446C279.63 164.79 280.723 165.884 282.067 165.884H293.767C295.111 165.884 296.204 164.79 296.204 163.446V155.159C296.204 153.815 295.111 152.722 293.767 152.722ZM285.153 149.381C285.153 147.908 286.392 146.709 287.916 146.709C289.439 146.709 290.678 147.908 290.678 149.381V152.722H285.153V149.381ZM294.58 163.446C294.58 163.894 294.215 164.259 293.767 164.259H282.067C281.619 164.259 281.255 163.894 281.255 163.446V155.159C281.255 154.711 281.619 154.347 282.067 154.347H293.767C294.215 154.347 294.58 154.711 294.58 155.159V163.446Z" fill="#4F9CF9"/>
<path d="M287.916 156.702C287.086 156.702 286.413 157.375 286.413 158.205C286.413 158.736 286.688 159.201 287.102 159.469V161.252C287.102 161.701 287.466 162.065 287.915 162.065C288.363 162.065 288.727 161.701 288.727 161.252V159.471C289.143 159.203 289.419 158.737 289.419 158.205C289.419 157.375 288.746 156.702 287.916 156.702Z" fill="#4F9CF9"/>
</g>
<g filter="url(#filter3_d_9_22982)">
<rect x="227.945" y="35.54" width="34.6659" height="34.6659" rx="10" fill="white"/>
</g>
<g clip-path="url(#clip1_9_22982)">
<path d="M241.991 42.4734C237.799 42.4734 234.878 43.9291 234.878 45.2357C234.878 46.5422 237.799 47.998 241.991 47.998C246.184 47.998 249.105 46.5422 249.105 45.2357C249.105 43.9292 246.184 42.4734 241.991 42.4734Z" fill="#FFE492"/>
<path d="M234.878 57.927V60.5106C234.878 61.8171 237.799 63.2729 241.991 63.2729C243.87 63.2729 245.644 62.977 246.985 62.4396C247.859 62.0893 248.506 61.655 248.843 61.2035C248.209 60.7072 247.476 59.9935 246.838 59.0089C245.433 59.4587 243.773 59.6946 241.992 59.6946C239.75 59.6946 237.653 59.3085 236.087 58.6072C235.63 58.4027 235.226 58.1747 234.878 57.927V57.927Z" fill="#FFE492"/>
<path d="M234.878 52.847L234.878 55.3954C234.878 56.7019 237.799 58.1576 241.991 58.1576C243.478 58.1576 244.905 57.9712 246.1 57.6262C245.666 56.6243 245.386 55.5183 245.263 54.3214C244.24 54.5137 243.126 54.614 241.991 54.614C239.735 54.614 237.628 54.2235 236.059 53.5143C235.614 53.3129 235.219 53.0894 234.878 52.847Z" fill="#FFE492"/>
<path d="M234.878 47.7649V50.315C234.878 51.6215 237.799 53.0773 241.991 53.0773C243.113 53.0773 244.206 52.9716 245.19 52.7697C245.191 52.5282 245.263 51.8997 245.845 51.74C246.762 51.4883 247.404 50.884 247.46 50.0551C247.484 49.7139 247.911 49.2357 248.229 49.2405H249.105V47.7649C248.764 48.0072 248.37 48.2308 247.924 48.4324C246.353 49.1433 244.246 49.5348 241.992 49.5348C239.737 49.5348 237.63 49.1433 236.059 48.4324C235.613 48.2308 235.219 48.0072 234.878 47.7649V47.7649Z" fill="#FFE492"/>
<path d="M253.499 50.7776H248.914C248.658 51.8435 247.838 52.7179 246.729 53.0992C246.816 58.2156 249.757 60.1665 251.053 60.7782C251.127 60.8131 251.215 60.8094 251.288 60.7683C252.59 60.0348 255.541 57.8515 255.678 53.0974C254.573 52.7152 253.755 51.8419 253.499 50.7776ZM250.932 57.4404C250.621 57.7605 250.085 57.7429 249.796 57.4032L248.335 55.6888L249.505 54.692L250.418 55.7638L252.966 53.143L254.069 54.2142L250.932 57.4404Z" fill="#FFE492"/>
</g>
<g filter="url(#filter4_d_9_22982)">
<rect x="65.7095" y="35.54" width="34.6659" height="34.6659" rx="10" fill="white"/>
</g>
<g clip-path="url(#clip2_9_22982)">
<path d="M90.7874 44.4339C88.1735 41.82 83.9204 41.8201 81.3065 44.4339C79.5213 46.2192 78.9013 48.8508 79.674 51.2377L72.1268 58.785C72.0125 58.8993 71.9482 59.0543 71.9482 59.216V62.6636C71.9482 63.0002 72.2211 63.273 72.5577 63.273H76.0053C76.167 63.273 76.3219 63.2088 76.4363 63.0945L77.2983 62.2324C77.43 62.1007 77.4942 61.9161 77.4727 61.7311L77.3651 60.8056L78.6482 60.6846C78.9396 60.6572 79.1703 60.4265 79.1978 60.1351L79.3188 58.8519L80.2444 58.9594C80.4172 58.9796 80.5902 58.9249 80.7201 58.8092C80.8499 58.6936 80.9243 58.528 80.9243 58.3541V57.2191H82.0386C82.199 57.2191 82.3529 57.1559 82.467 57.0431L83.9812 55.5464C86.3687 56.3203 89.0016 55.7005 90.7874 53.9147C93.4012 51.3009 93.4012 47.0477 90.7874 44.4339ZM89.9255 53.0529C88.3872 54.5911 86.0798 55.0712 84.0471 54.2762C83.8227 54.1885 83.5679 54.2411 83.3966 54.4104L81.7882 56.0002H80.3148C79.9782 56.0002 79.7053 56.2731 79.7053 56.6097V57.6697L78.8408 57.5692C78.678 57.5503 78.5144 57.5978 78.387 57.7009C78.2596 57.804 78.1791 57.9541 78.1637 58.1173L78.0315 59.5184L76.6306 59.6505C76.4673 59.6659 76.3172 59.7463 76.2141 59.8738C76.1109 60.0012 76.0634 60.1648 76.0823 60.3276L76.2279 61.579L75.7528 62.0542H73.1671V59.4685L80.8084 51.8272C80.9795 51.656 81.0332 51.3997 80.945 51.1743C80.1499 49.1415 80.6301 46.8342 82.1684 45.2959C84.3071 43.1572 87.7868 43.1572 89.9254 45.2959C92.0641 47.4344 92.0641 50.9143 89.9255 53.0529Z" fill="#4F9CF9"/>
<path d="M89.0647 46.1575C88.3518 45.4446 87.1918 45.4446 86.479 46.1575C85.7661 46.8703 85.7661 48.0303 86.479 48.7432C87.1918 49.456 88.3518 49.4561 89.0647 48.7432C89.7775 48.0303 89.7775 46.8703 89.0647 46.1575ZM88.2028 47.8813C87.9652 48.1189 87.5786 48.1189 87.3409 47.8813C87.1033 47.6437 87.1033 47.257 87.3409 47.0194C87.5792 46.7812 87.9646 46.7812 88.2028 47.0194C88.441 47.2576 88.441 47.6431 88.2028 47.8813Z" fill="#4F9CF9"/>
</g>
<circle cx="161.04" cy="27.567" r="5.54654" fill="#A7CEFC"/>
<circle cx="119.094" cy="103.139" r="5.54654" fill="#A7CEFC"/>
<circle cx="237.998" cy="155.484" r="5.54654" fill="#A7CEFC"/>
<defs>
<filter id="filter0_d_9_22982" x="109.52" y="104.151" width="110.666" height="110.666" filterUnits="userSpaceOnUse" color-interpolation-filters="sRGB">
<feFlood flood-opacity="0" result="BackgroundImageFix"/>
<feColorMatrix in="SourceAlpha" type="matrix" values="0 0 0 0 0 0 0 0 0 0 0 0 0 0 0 0 0 0 127 0" result="hardAlpha"/>
<feMorphology radius="2" operator="erode" in="SourceAlpha" result="effect1_dropShadow_9_22982"/>
<feOffset dy="4"/>
<feGaussianBlur stdDeviation="20"/>
<feComposite in2="hardAlpha" operator="out"/>
<feColorMatrix type="matrix" values="0 0 0 0 0 0 0 0 0 0 0 0 0 0 0 0 0 0 0.2 0"/>
<feBlend mode="normal" in2="BackgroundImageFix" result="effect1_dropShadow_9_22982"/>
<feBlend mode="normal" in="SourceGraphic" in2="effect1_dropShadow_9_22982" result="shape"/>
</filter>
<filter id="filter1_d_9_22982" x="-24.25" y="103.151" width="112.666" height="112.666" filterUnits="userSpaceOnUse" color-interpolation-filters="sRGB">
<feFlood flood-opacity="0" result="BackgroundImageFix"/>
<feColorMatrix in="SourceAlpha" type="matrix" values="0 0 0 0 0 0 0 0 0 0 0 0 0 0 0 0 0 0 127 0" result="hardAlpha"/>
<feMorphology radius="11" operator="erode" in="SourceAlpha" result="effect1_dropShadow_9_22982"/>
<feOffset dy="4"/>
<feGaussianBlur stdDeviation="25"/>
<feComposite in2="hardAlpha" operator="out"/>
<feColorMatrix type="matrix" values="0 0 0 0 0 0 0 0 0 0 0 0 0 0 0 0 0 0 0.2 0"/>
<feBlend mode="normal" in2="BackgroundImageFix" result="effect1_dropShadow_9_22982"/>
<feBlend mode="normal" in="SourceGraphic" in2="effect1_dropShadow_9_22982" result="shape"/>
</filter>
<filter id="filter2_d_9_22982" x="231.584" y="103.151" width="112.666" height="112.666" filterUnits="userSpaceOnUse" color-interpolation-filters="sRGB">
<feFlood flood-opacity="0" result="BackgroundImageFix"/>
<feColorMatrix in="SourceAlpha" type="matrix" values="0 0 0 0 0 0 0 0 0 0 0 0 0 0 0 0 0 0 127 0" result="hardAlpha"/>
<feMorphology radius="11" operator="erode" in="SourceAlpha" result="effect1_dropShadow_9_22982"/>
<feOffset dy="4"/>
<feGaussianBlur stdDeviation="25"/>
<feComposite in2="hardAlpha" operator="out"/>
<feColorMatrix type="matrix" values="0 0 0 0 0 0 0 0 0 0 0 0 0 0 0 0 0 0 0.2 0"/>
<feBlend mode="normal" in2="BackgroundImageFix" result="effect1_dropShadow_9_22982"/>
<feBlend mode="normal" in="SourceGraphic" in2="effect1_dropShadow_9_22982" result="shape"/>
</filter>
<filter id="filter3_d_9_22982" x="188.945" y="0.540039" width="112.666" height="112.666" filterUnits="userSpaceOnUse" color-interpolation-filters="sRGB">
<feFlood flood-opacity="0" result="BackgroundImageFix"/>
<feColorMatrix in="SourceAlpha" type="matrix" values="0 0 0 0 0 0 0 0 0 0 0 0 0 0 0 0 0 0 127 0" result="hardAlpha"/>
<feMorphology radius="11" operator="erode" in="SourceAlpha" result="effect1_dropShadow_9_22982"/>
<feOffset dy="4"/>
<feGaussianBlur stdDeviation="25"/>
<feComposite in2="hardAlpha" operator="out"/>
<feColorMatrix type="matrix" values="0 0 0 0 0 0 0 0 0 0 0 0 0 0 0 0 0 0 0.2 0"/>
<feBlend mode="normal" in2="BackgroundImageFix" result="effect1_dropShadow_9_22982"/>
<feBlend mode="normal" in="SourceGraphic" in2="effect1_dropShadow_9_22982" result="shape"/>
</filter>
<filter id="filter4_d_9_22982" x="26.7095" y="0.540039" width="112.666" height="112.666" filterUnits="userSpaceOnUse" color-interpolation-filters="sRGB">
<feFlood flood-opacity="0" result="BackgroundImageFix"/>
<feColorMatrix in="SourceAlpha" type="matrix" values="0 0 0 0 0 0 0 0 0 0 0 0 0 0 0 0 0 0 127 0" result="hardAlpha"/>
<feMorphology radius="11" operator="erode" in="SourceAlpha" result="effect1_dropShadow_9_22982"/>
<feOffset dy="4"/>
<feGaussianBlur stdDeviation="25"/>
<feComposite in2="hardAlpha" operator="out"/>
<feColorMatrix type="matrix" values="0 0 0 0 0 0 0 0 0 0 0 0 0 0 0 0 0 0 0.2 0"/>
<feBlend mode="normal" in2="BackgroundImageFix" result="effect1_dropShadow_9_22982"/>
<feBlend mode="normal" in="SourceGraphic" in2="effect1_dropShadow_9_22982" result="shape"/>
</filter>
<clipPath id="clip0_9_22982">
<rect width="20.7995" height="20.7995" fill="white" transform="translate(277.517 145.084)"/>
</clipPath>
<clipPath id="clip1_9_22982">
<rect width="20.7995" height="20.7995" fill="white" transform="translate(234.878 42.4734)"/>
</clipPath>
<clipPath id="clip2_9_22982">
<rect width="20.7995" height="20.7995" fill="white" transform="translate(71.9482 42.4734)"/>
</clipPath>
</defs>
</svg>
